<?xml version="1.0" encoding="utf-8"?>
<!-- Generator: Adobe Illustrator 27.4.1, SVG Export Plug-In . SVG Version: 6.00 Build 0)  -->
<svg version="1.1" id="Layer_1" xmlns="http://www.w3.org/2000/svg" xmlns:xlink="http://www.w3.org/1999/xlink" x="0px" y="0px"
	 viewBox="0 0 639.4 644.4" style="enable-background:new 0 0 639.4 644.4;" xml:space="preserve">
<g>
	<path d="M331.5,4.9c2.8,9.8-8.7,22.4-17.1,23.3c-1.8,0.2-4.1-0.2-5.3-1.4c-0.7-0.7,0-3.3,0.6-4.9c2.8-6.9,6.7-13,13.3-17.1
		C325.9,4.9,328.7,4.9,331.5,4.9z"/>
	<path d="M309.7,4.9c0.1,1.7,0.6,3.6,0.1,5.2c-1.3,3.8-2.7,7.7-4.6,11.2c-2.5,4.5-6.3,7.5-11.6,8.1c-3.8,0.5-5.5-1.7-4.3-5.3
		c1.1-3.3,1.9-6.9,3.8-9.7c2.5-3.5,6-6.3,9-9.5C304.7,4.9,307.2,4.9,309.7,4.9z"/>
	<path d="M357.7,178.3c-2,0.4-3.5,0.8-5,1.1c-5.6,0.9-6.2,1.8-4.7,7.2c3.3,12,6.6,23.9,9.9,35.9c2.2,7.9,4.3,15.9,6.3,23.9
		c1.2,4.7,5,6,9.4,2.9c10.2-7.1,16.6-16.9,19.1-29c1.5-7.1,2.6-14.3,3.5-21.5c2.3-18.7,19-26.5,34.8-16.1c7,4.6,11.6,11.2,14.8,18.8
		c16.3,39.1,31,78.7,40.3,120.1c4.8,21.2,11.3,42.1,17,63.1c0.2,0.7,0.5,1.4,0.5,2c-0.2,2.9,0.4,7.8-0.9,8.4c-2.8,1.2-7,1.1-9.8-0.1
		c-4.9-2.2-9.1-6-13.8-8.6c-2-1.1-4.6-1.6-6.9-1.4c-3.4,0.3-6.1-0.2-8-3.1c-1.6-2.4-3.1-5-5.1-7.2c-1.6-1.8-3.7-3.1-5.7-4.7
		c-2.1-1.6-4.8-2.9-6.1-5c-2.2-3.8-3.3-8.3-5.4-12.2c-1.5-2.7-3.5-5.9-6-7c-5-2.2-7.5-5.8-8.4-10.7c-0.9-4.9-2.4-8.2-8.2-6.9
		c-1,0.2-2.6-0.1-3.1-0.8c-4.5-5.5-10-2.5-14.4-0.8c-4.9,1.9-9.1,5.8-13.4,9.1c-3.9,2.9-7.3,6.5-11.3,9.2c-3.3,2.3-4.3,4.7-2.9,8.5
		c1.6,4.3,3.1,8.7,3.8,13.3c0.6,3.7,0.1,7.7-0.2,11.5c-0.8,9.9-4.8,19.5-1,29.7c1,2.7-0.4,6.4-0.9,9.6c-0.1,0.9-1.1,1.9-0.8,2.7
		c1.7,5.7,3.5,11.5,5.6,17.1c0.3,0.7,2.9,1.3,3.8,0.8c6.8-3.7,13.5-7.7,20.4-11.7c-1.6-2.6-2.9-4.9-4.6-7.8
		c8.5-1.2,16.5-2.3,25.8-3.5c-5.7,7.5-10.7,14.1-16.1,21.2c-1.2-2.6-2.2-4.7-3.4-7.3c-6.8,4-13.5,7.8-20.1,11.7
		c0.1,0.5,0.2,1,0.3,1.6c10.3,4.9,21.3,1.5,32.4,2.7c0-3.4,0-6.1,0-9.6c7.9,3.9,15.3,7.4,23.5,11.4c-8.6,3-16.3,5.7-24.7,8.6
		c0.2-2.7,0.4-4.9,0.6-7.3c-8.5,0-16.8,0-25.4,0c-0.9,3.2,0.4,5.4,3.2,6.8c5.1,2.6,10.3,5,15.9,7.8c1-2.2,2-4.3,3.3-7
		c4.7,6.1,9,11.9,14,18.4c-8.6-0.5-16.2-1-24.6-1.6c2-2.6,3.7-4.6,5.6-7.1c-5.8-3-11.3-5.8-17-8.7c-1.6,4.2-4.9,5.1-8.2,6.9
		c-4.8,2.6-9.9,3.3-14.7,5.2c-1.6,0.6-2.4,2.9-3.7,4.3c-2.1,2.1-3.9,4.9-6.5,6c-8.3,3.2-16.6,6.6-25.9,5c-0.6-0.1-1.6-0.2-2,0.2
		c-3.8,4.1-7.6,1.9-11.7-0.1c-2.9,3.3-6.1,4.2-9.4-0.4c-4.4,3.6-8.6,3.4-12.8-0.5c-0.7-0.6-2.6-0.5-3.7-0.1c-3.3,1.3-5.8,0.5-8.3-2
		c-1.1-1.1-3.3-1.8-4.9-1.6c-3.8,0.5-6.4-0.7-8.6-3.8c-1-1.3-2.8-2.5-4.4-2.9c-6.3-1.3-8-3.3-7.7-9.8c0.2-4,0.4-8,0.7-12.8
		c-7.4,3.7-5.8,11.3-9.6,16.1c-5.3-3.1-10.9-6-15.9-9.5c-3.2-2.3-5.9-3.4-9.4-1.1c-0.6,0.4-1.5,0.5-2.8,0.9c0.7-2.6,1.2-4.6,1.9-7
		c-9.8-4.2-17.7,5-27.3,2.8c1.4-3.8,3-7.8,4.7-12.4c-4.9,0-9.4,0-14.7,0c1.8-3.1,3.2-5.5,4.9-8.3c-4.9-1.4-9.4-2.6-14.3-4
		c1.1-2,2.1-3.9,3.4-6.2c-6.3-0.6-12.9,0-15.7-7.6c2.3-1.2,4.4-2.3,6.8-3.5c-2.2-5.8-4.3-11.4-6.4-17.1c0.3-0.3,0.6-0.6,0.9-1
		c6.2,2.5,12.4,5.1,19.3,7.8c-0.8-3-1.5-5.5-2.2-8.1c8.3-1.8,10.9,5.1,15.3,9.8c2.1-4.7,4.1-9.1,6.3-13.8
		c4.3,6.1,1.5,15.1,10.4,19.2c-1.5-4.3-2.8-7.8-4.3-12.1c6.9,1.5,9.9,7,14.3,11.7c0.6-3.1,1.2-5.7,1.7-8.2c0.4-0.1,0.7-0.2,1.1-0.3
		c3.9,6.2,7.7,12.3,12.1,19.3c1.3-3.8,2.4-6.9,3.7-10.5c4.8,5,8.3,10.1,9.4,16.7c0.9,5.2,3.1,6.9,8.7,6.7c4.6-0.2,5.6-3.9,5.4-7.1
		c-0.4-7.4-1.4-14.7-2.6-22c-0.8-5.1-2.6-10-3.4-15.1c-0.6-4.1-0.4-8.3-0.3-12.5c0.2-5.3,0.9-10.6,1.2-15.9
		c0.6-10-2.5-15.3-11.8-18.8c-6.6-2.5-13.5-4.4-20.4-6.3c-4.5-1.3-8.8-0.4-12.9,2c-7.6,4.7-14.8,9.6-21.2,16.2
		c-7.1,7.4-15.9,13.1-24.6,19.1c13.6-26.4,16-55.7,24.7-83.2c-0.4-0.2-0.8-0.5-1.2-0.7c-0.9,1.3-2.2,2.4-2.7,3.8
		c-2.5,7.3-5.3,14.3-6.5,22.2c-2.9,18.8-8.9,36.9-16.9,54.2c-0.7,1.4-0.6,3.2-0.9,4.8c0.4,0.3,0.9,0.7,1.3,1
		c-5.5,2.5-11,4.9-16.4,7.6c-2.2,1.1-4.1,2.9-5.7,4.7c-4.2,4.6-5.3,5.1-12.4,4.6c0.3-2.6,0.1-5.2,0.8-7.7
		c12.6-41.5,25.3-83,38-124.5c5.9-19.4,12.6-38.5,22.7-56.2c2.1-3.6,4.2-7.3,6.7-10.7c8.4-11.7,25-14.5,36.4-5.6
		c3.1,2.4,5.7,6.3,7,10c6.4,17.6,12.4,35.3,18.5,53c0.4,1.3,0.9,2.5,1.4,3.7c0.5,0.1,0.9,0.2,1.4,0.3c0.9-2.1,2.3-4.2,2.7-6.4
		c1.6-8.8,7-15.4,12.3-22c4.7-5.9,9.5-11.7,14.1-17.7c7.8-10.1,7.2-18.5-2-27.4c-1.7-1.7-3.4-3.3-5.1-5c-5.6-5.9-6.1-7.9-3.4-15.6
		c-3,0.4-5.8,0.8-8.7,1.1c-1.9-3.8-1.9-7.5,0.6-10.8c3-3.9,7.2-4.6,11.7-3.8c2.6,0.5,5,1.9,7.5,2.5c4.7,1.1,9.4,1.9,14.1,2.9
		c2.3,0.5,4.8,0.7,6.7,2c12,8.4,23.8,17.1,35.7,25.7C356.3,177,356.7,177.4,357.7,178.3z M276.9,259c-3.1,0-6.2,0.2-9.2-0.1
		c-2.8-0.2-3.8,0.9-4.5,3.5c-3.6,13.9-3.8,27.9-0.8,41.9c6.9,32.9,25.4,57.4,53.9,74.8c3,1.8,5.7,2,8.5,0c6-4.4,12.3-8.3,17.8-13.2
		c16.8-14.8,26.1-34.1,32.6-55.1c4.6-14.7,6.4-29.6,4.5-45c-0.5-4-2.3-5.4-6.3-5.3c-6.4,0.2-12.9,0.3-19.2-0.4
		c-10.8-1.2-20.6-5.5-29.7-11.6c-2.3-1.6-4.6-2.6-7.2-0.6C305.2,256.9,291.6,259.8,276.9,259z M293.3,167.2
		c-0.5,0.6-0.9,1.1-1.4,1.7c2.8,2.3,5.6,4.5,8.3,6.8c9.8,8.2,11,19.5,3.2,29.7c-6.5,8.5-13,17.1-19.5,25.7c-1.2,1.6-2.4,3.3-3.5,5
		c0.2,0.3,0.5,0.7,0.7,1c4.6-2.5,9.2-5,14-7.6c0.6,1.8,1.1,3.3,1.6,5c3-3.2,5.7-6.1,8.8-9.4c0.6,2.1,1,3.6,1.5,5.3
		c2.6-0.6,3.5-5.6,6.7-2c6.9-7.2,2.6-16.1,3.9-23.9c0.5,0,1,0,1.5,0c0.6,7.9,1.3,15.7,2,24.9c2.7-2.8,4.5-4.8,6.5-6.8
		c0.7,1.9,1.1,4.7,1.8,4.8c5.2,0.7,3.3,5.2,4.6,7.8c0.4,0.9,0.7,1.8,1.4,3.8c1.1-4.4,1.9-7.7,2.9-11.5c1.6,2.6,2.8,4.5,4.3,7
		c1.2-3.5,2.2-6.2,3.3-9.4c3,3.8,5.6,7.2,8.8,11.3c-0.1-1.6,0-2.1-0.1-2.6c-3.8-17-7.6-33.9-11.6-50.9c-0.8-3.2-1.2-5.9,2.8-7.7
		c-4.7-2.7-8.9-4.9-12.9-7.4c-3.4-2.2-6.8-4.6-9.9-7.2c-1.9-1.6-3.1-3.9-4.6-5.9c-2-2.6-4.3-3.3-7.7-2.6c-2.9,0.6-6.3,0-9.2-0.8
		c-3.3-0.9-6.3-2.9-9.6-4.1c-4.2-1.4-6.9,0.4-8.3,5.2c9.9,1.1,14,9,19.5,16.6C299.4,168.2,296.3,167.7,293.3,167.2z M464.1,265.6
		c-0.3,0.1-0.7,0.3-1,0.4c0.5,5.2,1.1,10.4,1.6,15.6c-0.2,0.1-0.5,0.1-0.7,0.2c-1.4-2.2-2.8-4.3-4.2-6.5c-0.4,0.1-0.8,0.2-1.2,0.4
		c0,1.1-0.2,2.3,0,3.3c1.2,5.7,2.4,11.4,3.8,17.1c7.4,29.2,13.4,58.8,24.3,87.1c1.3,3.3,3.4,6.3,5.7,10.5c0.8-2.6,1.1-3.8,1.6-5.2
		c2.4,2.2,4.4,4.1,6.5,6c-1.6-6.1-3.8-11.8-6.2-17.4c-1.3-3-3-5.9-4-9c-0.9-2.6-0.8-5.5-1.5-8.1c-4.1-16.8-8.3-33.6-12.5-50.4
		c-3.5-14-7-28-10.6-42C465.5,266.7,464.6,266.2,464.1,265.6z M181.8,269.8c-0.5,0-1.1,0.1-1.6,0.1c-2.6,7-5.6,13.9-7.6,21.1
		c-3.7,12.9-7,26-10.2,39.1c-3.9,16.2-9.4,31.9-16.8,46.9c-1.1,2.3-1.8,4.9-2.7,7.3c0.4,0.3,0.8,0.5,1.2,0.8
		c1.2-1.5,2.7-2.9,3.6-4.6c3-6.1,6.5-12.1,8.5-18.5c5.7-17.9,10.8-36,16.1-54c3.3-11.3,6.4-22.7,9.6-34.1
		C182.1,272.6,181.8,271.1,181.8,269.8z M249.5,457.4c0.1-7.2,3.5-12.4,9.4-15.9c6.9-4.1,12.1,1.3,18.1,4.1
		c-0.2-1.3-0.2-2.1-0.4-2.9c-1.5-6.4,0.6-12.4,2.6-18.2c1.5-4.5,1.9-5.4-2.9-7.7c-0.9,4.3-1.8,8.5-2.6,12.7c-0.7,3.5-2.2,5.7-6.2,5
		c-1.4-0.3-2.8-0.5-4.1-0.6c-7.8-0.5-15.8-1.8-21.7,5.4c-3.2,3.9-4.5,8.2-3.2,11.8c4.2-4.6,5.7-12.6,15.2-12.2
		C249.5,445.1,244.4,450.3,249.5,457.4z M452.9,279.2c-0.5,0.1-1,0.2-1.5,0.2c-0.1,1.2-0.4,2.5-0.2,3.7c0.6,3.3,1.3,6.5,2,9.8
		c6.5,28.6,12.6,57.3,22.7,84.9c1.1,3.1,3.2,5.8,4.9,8.7c0.4-0.2,0.9-0.4,1.3-0.6c-0.4-2.1-0.6-4.3-1.4-6.3c-2.3-6-5.2-11.9-7.3-18
		c-2.2-6.8-3.9-13.9-5.5-20.9c-3.1-13.6-5.8-27.4-9-41C457.3,292.7,454.9,286,452.9,279.2z M468.7,383.8c0.7-0.4,1.3-0.7,2-1.1
		c-2.6-6.7-5.2-13.3-7.6-20c-1.2-3.2-2.4-6.5-3.1-9.9c-4.3-21.1-8.5-42.2-12.8-63.3c-0.4-1.8-1.4-3.5-2.2-5.3
		c-0.5,0.1-1,0.3-1.4,0.4c0.4,2.9,0.6,5.9,1.2,8.7c5.2,26.7,9.7,53.6,18.4,79.6C464.5,376.7,466.9,380.1,468.7,383.8z M221.1,315.8
		c-2.2-9.4,5.1-17.8,1.8-26.9c-5,16.7-7.5,34.1-16.8,49.3c0.5,0.3,1,0.6,1.6,0.9c2.8-3.3,5.6-6.7,7.5-9c1.7,0.3,2.9,0.8,3.2,0.5
		c1.5-1.6,3.5-3.1,4.2-5.1c3.3-9.4,6.2-19,9.2-28.5c0.7-2.1,0.8-4.4,1.1-6.7c-0.5-0.1-1.1-0.3-1.6-0.4c-1.9,5.7-4.1,11.2-5.5,17
		C224.9,310.2,224.9,313.6,221.1,315.8z M388.7,457.8c1.5-7.1-1.1-12.8-7.7-15.4c-5.4-2.1-7.8-5.8-8.8-11c-0.3-1.8-0.6-3.6-1.3-5.3
		c-0.9-2.3-0.7-6.5-4.8-5.3c-4.3,1.3-1.4,4.4-0.6,6.6c2.8,7.8,4.2,15.4,0.8,23.5c-1.9,4.6,0.1,8.7,4.3,11.7c0-5,0-10.3,0-15.6
		c3.3,5,1.5,11.9,7.3,16.1c-0.8-6.5-1.6-12.4-2.4-18.7C382.3,445.9,383.1,446.7,388.7,457.8z M156.8,376.4c0.5,0.2,1,0.3,1.5,0.5
		c15-29.9,24.5-61.6,29.4-94.8c-1.3,0.7-2.2,1.6-2.5,2.7c-3.9,13.8-7.5,27.6-11.5,41.3c-3.4,11.7-4.6,24-10.6,35
		C160.5,366,158.9,371.3,156.8,376.4z M453.7,368.9c0.4-0.2,0.9-0.5,1.3-0.7c-0.4-1.2-0.8-2.5-1.3-3.7
		c-6.9-17.3-10.3-35.5-12.3-53.9c-0.8-7.3-1.1-14.7-6-21c-0.4,2.4-0.6,4.7-0.4,7.1c0.3,2.9,0.9,5.8,1.4,8.6
		c3.2,18.8,5.9,37.7,12.6,55.7C450,363.8,452.1,366.3,453.7,368.9z M205.9,289.6c-0.6-0.1-1.2-0.1-1.8-0.2
		c-3.1,12.4-5.8,25-9.6,37.2c-3.8,12.3-8.8,24.2-13.4,36.8c5.3-2.3,7-6.8,8.3-11.3c5.5-19.1,11-38.1,16.3-57.3
		C206.3,293.2,205.9,291.4,205.9,289.6z M215.1,290.8c-3.9,1.8-5.8,4.6-6,8c-0.2,2.8,0,5.6-0.6,8.3c-2.9,13.6-6.1,27.1-12.2,39.7
		c-0.5,1-0.8,2.2-1.1,3.3c0.4,0.2,0.9,0.5,1.3,0.7c1.9-3,4-5.9,5.5-9.1C209.9,325.8,210.5,308.1,215.1,290.8z M303.3,421.4
		c-0.6-0.1-1.1-0.2-1.7-0.4c-1.1,3.4-2.2,6.8-3.2,10.2c-3.8,13.2-8.9,26.1-9.3,40.1c-0.1,2.6,0.5,5.2,0.8,7.8
		c4.4-9.4,3.1-19.5,6.6-28.9C299.9,441,301.1,431,303.3,421.4z M435.5,340.5c-3.1-16.6-6.3-33.6-9.7-51.4
		C421,297.3,428.8,334.1,435.5,340.5z M311.7,426.9c-0.5,0-1-0.1-1.5-0.1c-4.6,16.7-9.7,33.3-8.9,51c0.1,1.3,1,2.6,1.6,4.2
		C305.9,463.2,308.8,445.1,311.7,426.9z M227.4,429.5c-5.8-0.2-9.9,1-13.1,4.1c-1.9,1.7-4.3,4.2-4.2,6.3c0.1,2.3-0.9,3.3-2,4.6
		c-0.8,0.9-1.6,1.8-2.4,2.8C216.7,446.4,220.4,437,227.4,429.5z M319.4,430.4c-0.5-0.1-1-0.1-1.5-0.2c-0.3,0.9-0.8,1.8-0.9,2.8
		c-1.6,14.1-3.3,28.2-4.6,42.3c-0.2,2.2,1.1,4.5,1.7,6.7c1.2-1.2,1.8-2.3,1.7-3.2c-0.8-5.4,0.5-10.8,0.2-16.2
		c-0.4-7.9,1.7-16,2.6-24C318.9,435.8,319.1,433.1,319.4,430.4z M173.2,397.5c0.9,11.2,9.3,18.2,18.6,15.4c-3.6-2.7-7-5.2-11.1-8.2
		c2.4,0,3.9,0,5.3,0c0.1-0.3,0.1-0.5,0.2-0.8C182,401.9,177.8,399.8,173.2,397.5z M216.5,425.2c-9.7-0.9-14.8,4.6-19.6,10.7
		c7.5-1,15.4-0.7,21.1-8.3c-2.2,0.3-3.6,0.5-5.7,0.9C213.8,427.3,214.7,426.5,216.5,425.2z M421.6,324.9c0.3-0.1,0.7-0.2,1-0.3
		c-0.5-4-0.8-7.9-1.4-11.9c-0.9-5.9-2-11.7-3.2-17.5c-0.3-1.6-1.3-3.1-2-4.7c-0.5,0.2-1,0.4-1.5,0.6
		C414.6,302.9,415.4,314.5,421.6,324.9z M227,329.8c9-11.1,12.3-22.9,12.5-36c-1.7,1.6-3.2,3.5-3.6,5.6c-1.8,9.7-3.6,19.4-8.9,28
		C226.8,327.6,227,328.1,227,329.8z M221.1,445.4c0.6,0.5,1.2,0.9,1.8,1.4c4.9-4.5,9.9-9,15.4-13.9c-4.5-2.1-7.7-2-10.4,0.5
		C224.2,436.6,222,440.7,221.1,445.4z M353,415.4c2.7,4.9,8,5.7,15,2.4c5.8-2.7,6.7-5.5,3.7-12.9C369.8,416.9,360.5,414.3,353,415.4
		z M246.1,298.8c-4,11-7.6,21.1-11.7,32.3C242.3,324.8,248.3,308.1,246.1,298.8z M292.3,410.2c-8.8,4.5-14.3-1.3-20.4-5.8
		c-0.9,5.3,0.3,8.1,4.6,9.6c3.1,1.1,6.4,1.7,9.7,2.1C289.7,416.5,291.7,414.7,292.3,410.2z M184.6,426.8c8.6,0.8,15.6-2.2,23.2-5
		C200.2,417,190.2,419.2,184.6,426.8z M245.3,331.6c0.4,0.2,0.8,0.4,1.1,0.6c0.5-0.4,1.2-0.6,1.4-1.1c2.8-8.1,5.5-16.2,8.1-24.3
		c0.3-0.9-0.6-2.1-0.9-3.2c-0.4,0-0.8,0.1-1.2,0.1C251,313,248.2,322.3,245.3,331.6z M390.2,330.2c2.1-8.3-1.8-26-5.9-27.4
		C384.8,312,385.1,321,390.2,330.2z M292.3,420.8c-0.5-0.1-0.9-0.3-1.4-0.4c-3.2,9.1-6.5,18.1-9.9,27.6c2,0,3.3,0,4.1,0
		C288.4,438.9,291.6,430.1,292.3,420.8z M326.1,429.6c-0.6,0.1-1.3,0.2-1.9,0.3c0.4,10.4,2.6,20.7,4.8,31.1c1.1-1.1,1.9-2.3,1.7-3.5
		c-0.9-6.3-2.1-12.6-3.1-18.9C327.1,435.6,326.6,432.6,326.1,429.6z M321.8,424.8c2.4-4.2,4.1-7.3,6-10.4c1.5,2.8,2.9,5.3,4.8,8.7
		c1.8-3.3,3-5.5,4.2-7.8c-2.2,0.1-4.3,0.8-5.8,0.1c-1.5-0.6-2.4-2.6-3.6-4.1c-1.7,2.2-3.6,4.5-5.5,7c-1.7-2.3-3.2-4.4-4.7-6.4
		c-0.3,0.2-0.7,0.4-1,0.6C317.8,416.3,319.5,419.9,321.8,424.8z M409,321.8c0.3-9.2-2.2-18.1-4.7-26.9
		C401.2,301.6,404.4,317.4,409,321.8z M231.3,422.8c-1.7-8.8-5.5-15.5-11.9-20.6C222.8,409.1,221.8,418.5,231.3,422.8z M405.2,420.5
		c2,3.5,3.6,6.3,5.6,9.7c3.1-4,5.8-7.5,9.1-11.9C414.3,419.2,410.1,419.8,405.2,420.5z M419.8,231.1c-2.8-0.9-5.1-1.6-7.3-2.3
		c-0.2,0.4-0.3,0.7-0.5,1.1c2.3,1.6,4.6,3.2,7.1,4.7c2.6,1.6,3.6,0.4,3.5-2.3c-0.2-3.1-0.2-6.1-0.5-9.2c-0.3-3.9-0.7-7.7-1.1-11.6
		c-0.4,0-0.7,0-1.1,0.1C419.8,217.9,419.8,224.3,419.8,231.1z M422.4,439.8c0,3.9,0,7.2,0,10.8c4.3-1.5,8.2-2.9,13.1-4.6
		C430.5,443.7,426.7,441.9,422.4,439.8z M383.6,336.4c-1.4-8.8-2.7-16.9-4-25.1C375.8,318.2,378.1,330.8,383.6,336.4z M190.7,274.8
		c1.1-4.7,2.1-9.2,3.1-13.7c-0.3-0.1-0.6-0.3-0.9-0.4c-1.5,2.3-3.1,4.6-4.9,7.4c-1-3.2-1.8-5.8-2.7-8.6
		C182.4,265.8,184,270.5,190.7,274.8z M399.2,324.8c-1.4-19.2-1.7-20.4-6.3-22.2C393.7,310.4,393.1,318.1,399.2,324.8z M283.4,457
		c-2.9-6.3-13.9-12-19.8-9.7C270.1,451.7,276.9,453.9,283.4,457z M248.3,411.9c-3.6,4.1-3.7,6.2-2,10.8c1.4,3.7,4.4,3.5,7.9,4.1
		C252.1,421.5,250.2,416.8,248.3,411.9z M223.7,209.5c-0.4,0-0.8,0-1.3,0c-0.4,7.4-1,14.9-1.3,22.3c-0.1,2.3,1.4,3,3.3,2
		c2.1-1.2,4-2.8,6.3-4.4c-6.8-1.1-6.8-1.1-7-8C223.6,217.3,223.7,213.4,223.7,209.5z M418.5,252.8c2.3,5.3,5.7,9.4,12.2,10.4
		c-0.9-5.5-1.8-10.6-2.6-15.8c-0.5,0-0.9,0.1-1.4,0.1c0,3.4,0,6.9,0,11.1C423.4,256.2,421,254.5,418.5,252.8z M211.9,281.6
		c-0.4-3.9-0.7-7.2-1.1-10.6c-0.4,0-0.7,0-1.1,0c-0.8,4.8-1.5,9.7-2.3,14.6c6.2-0.7,9.4-3.3,10.9-8.4
		C216.2,278.7,214.2,280,211.9,281.6z M210.8,248.8c-0.2-0.2-0.4-0.5-0.6-0.7c-1.9,1.2-3.7,2.3-5.9,3.7c-0.4-2.5-0.7-4.4-0.9-6.3
		c-0.2-1.8-0.3-3.7-0.4-6c-3.1,6.3-2.3,14.2,1.8,18.8C206.8,255.1,208.8,252,210.8,248.8z M434.5,211.6c-0.4,0-0.7-0.1-1.1-0.1
		c-0.1,1.7-0.3,3.4-0.4,5.1c-0.3,7-0.2,7-7,7.8c2,2.5,3.8,4.8,5.8,7.4C435.7,224.9,434.8,218.2,434.5,211.6z M442.9,244.3
		c-0.5-0.1-1-0.2-1.6-0.3c-0.7,2.9-1.5,5.9-2.3,9.1c-2.2-1.7-4.1-3.2-5.9-4.6c1.2,3.6,3,6.6,5.1,9.3c0.4,0.5,3,0.1,3-0.2
		C441.9,253.2,442.4,248.7,442.9,244.3z M197.1,264.2c-3.2,6-2.9,13.2,1.1,17.5c2.3-2.7,4.6-5.4,6.9-8c-0.2-0.2-0.4-0.5-0.6-0.7
		c-2,1-4,2.1-6.2,3.2C197.9,272,197.5,268.2,197.1,264.2z M424.6,277.9c3.5,6.5,6.1,8.3,11.6,8.4c-0.8-4.9-1.6-9.7-2.3-14.6
		c-0.9,1.7-1.2,3.4-1.4,5c-0.2,1.8-0.3,3.5-0.5,5.7C429.6,281,427.5,279.7,424.6,277.9z M327.4,482.7c5-5.6,5.1-15.4,0-20.4
		C327.4,469.8,327.4,476.2,327.4,482.7z M210.2,210.2c-0.4,0-0.7,0.1-1.1,0.1c0.1,6.7-1.5,13.7,2.8,20.4c2-2.7,3.8-5.1,6-8.1
		c-2.8,0.4-4.5,0.7-6.1,0.9C211.3,218.9,210.8,214.5,210.2,210.2z M216,249.2c-0.4,0-0.8,0-1.2,0c-0.5,4.2-0.9,8.4-1.4,13
		c6.1-1.3,9.5-4.7,11.2-10.1c-2.4,1.6-4.8,3.3-7.4,5.1C216.7,254.2,216.3,251.7,216,249.2z M450.6,262c-0.3,0.1-0.6,0.3-0.9,0.4
		c1.1,4.3,2.3,8.7,3.5,13.3c6.7-5,8.1-8.8,5.3-13.7c-0.8,2.7-1.5,5.3-2.5,8.8C453.9,267.3,452.2,264.6,450.6,262z M207,395.3
		c-4,8.4-2.2,13.8,5,15.3C210.3,405.5,208.8,400.7,207,395.3z M235.2,423.9c4.1-7.2,2.4-13.5-4.5-16.9
		C232.2,412.7,233.6,418.1,235.2,423.9z M192.9,247.2c1.9-3.5,3.7-6.9,5.5-10.3c-0.4-0.2-0.8-0.5-1.3-0.7c-1.4,1.7-2.7,3.4-4.5,5.6
		c-0.5-1.7-0.9-2.9-1.3-4c-0.4-1.1-0.8-2.3-1.3-3.6C187.8,239,188.7,243.3,192.9,247.2z M448.7,269.4c-0.4-0.2-0.8-0.4-1.2-0.6
		c-0.4,4.8-1.6,8.7-8.4,6.6c2.5,2.7,3.9,4.4,5.4,6c2,2.1,3.3,1.2,3.5-1.3C448.4,276.6,448.4,273,448.7,269.4z M243.5,243.9
		c0-0.5-0.1-0.9-0.1-1.4c-4.6-0.9-4.6-0.9-7.5-10.3c-1.3,4.4-3.6,8.4-0.3,11.5C237.1,245,240.8,243.9,243.5,243.9z M446.6,238.6
		c-0.2,0.2-0.5,0.5-0.7,0.7c1.4,2.5,2.7,5,4.2,7.4c1.1,1.8,2.8,1.9,3.3-0.2c0.8-3.7,0.9-7.6,1.3-11.4c-0.4,0-0.7-0.1-1.1-0.1
		c-0.6,2.5-1.1,5-1.7,7.7C449.9,241.1,448.2,239.8,446.6,238.6z M416.8,461.9c-1.6,2.7-2.9,5-4.7,8c4,0.2,7.2,0.4,11.4,0.7
		C420.8,467.2,418.9,464.8,416.8,461.9z M260.9,314.3c-2.3,6.8-4.2,12.5-6.3,19C260.7,328.5,263.2,321.4,260.9,314.3z M190.3,393.7
		c-2.1,6.5,2.1,13,7.4,12.2C195.2,401.7,192.8,397.7,190.3,393.7z M296.9,255.7c6.2-2.6,9-7.4,11.3-12.6c-4.2,2-5,9.3-12.2,6.2
		C296.4,251.7,296.6,253.5,296.9,255.7z M330.4,396.5c-0.3,0.3-0.6,0.6-0.9,0.9c1.6,2.2,3.1,4.6,4.8,6.6c0.4,0.5,2.5,0.4,2.7,0
		c1.5-3.6,2.7-7.4,4-11.1c-0.3-0.1-0.7-0.3-1-0.4c-1.5,2.5-2.9,4.9-4.5,7.5C333.7,398.8,332.1,397.7,330.4,396.5z M247.8,261.7
		c0.2-0.4,0.3-0.8,0.5-1.2c-6.5,1.9-6-3-7.4-6.4c-0.8,3.4-1.3,6.8-1.4,10.1c0,0.4,2.2,1.4,2.8,1.1
		C244.3,264.4,246,262.9,247.8,261.7z M403.4,256c-0.4,0-0.7-0.1-1.1-0.1c-0.5,2.1-1,4.3-1.6,6.6c-1.9-0.5-3.7-0.9-5.5-1.3
		c1.9,2.4,4.1,4.1,6.6,5.5c0.4,0.3,2.3-0.7,2.3-1.1C404,262.3,403.6,259.1,403.4,256z M237.9,279c-0.3,0-0.6,0.1-0.9,0.1
		c-0.1,1.2-0.3,2.4-0.2,3.6c0.3,2.6,0.8,5.2,1.2,7.8c2.2-1.7,4.5-3.3,6.7-5c0.2-0.1,0.1-0.5,0.3-1.2c-1.7,0.4-3.2,0.8-4.9,1.3
		C239.3,283.3,238.6,281.2,237.9,279z M329.6,245.2c-0.4,0.4-0.7,0.9-1.1,1.3c1.7,1.4,3.2,3,5,4.3c1.9,1.4,4.1,2.4,6.1,3.6
		c0.2-2.7,0.3-5.5,0.4-8.2c0-0.2-0.3-0.4-0.8-1c-0.6,2.2-1.1,4.1-1.6,6.3C334.8,249.1,332.2,247.2,329.6,245.2z M405,292
		c0.5-0.2,1-0.3,1.5-0.5c0.2-3.4,0.5-6.9,0.7-10.3c-0.4-0.1-0.8-0.1-1.1-0.2c-0.9,1.9-1.8,3.8-2.7,5.8c-2-1-3.6-1.8-5.3-2.6
		c-0.2,0.3-0.5,0.6-0.7,0.9C400,287.5,402.5,289.7,405,292z M278.3,475.3c1.8-5,4.6-9,2-14.1C276.5,464.5,275.7,469.1,278.3,475.3z
		 M225.2,275.5c-0.3,0-0.6-0.1-0.9-0.1c-1,3.7-2.1,7.3-3.1,11c0.5,0.2,1,0.4,1.5,0.6c2.8-2.5,5.6-4.9,8.4-7.4
		c-0.2-0.2-0.3-0.5-0.5-0.7c-1.7,0.7-3.4,1.3-5.3,2.1C225.2,278.8,225.2,277.2,225.2,275.5z M412.8,278.9c-0.3,0.3-0.6,0.7-0.9,1
		c3.1,2.7,6.2,5.5,9.3,8.2c0.5-0.3,1-0.7,1.6-1c-1.1-3.5-2.3-7-3.4-10.5c-0.3,0.1-0.6,0.1-1,0.2c0.1,1.8,0.2,3.6,0.3,5.9
		C416.4,281.2,414.6,280.1,412.8,278.9z M271.3,455c-4.2,0.1-7.1,7.8-5,14.6C268.2,464.1,269.7,459.6,271.3,455z M259.9,338.2
		c6.3-4,8.1-9.4,4.9-13.9C263.2,328.8,261.7,333.1,259.9,338.2z M415.9,264c0.5-0.3,0.9-0.6,1.4-1c-1.3-3.5-2.5-7-3.8-10.6
		c-0.3,0.1-0.6,0.2-0.9,0.3c0,1.6,0,3.2,0,4.9c-1.5,0-2.8,0-5,0C410.9,260.1,413.4,262,415.9,264z M226.5,262.5
		c0.6,0.2,1.1,0.4,1.7,0.7c2.2-2.3,4.4-4.5,6.9-7.2c-1.7,0.3-2.9,0.5-4.4,0.7c0-2,0-3.7,0-5.3c-0.3,0-0.6-0.1-0.8-0.1
		C228.7,255.1,227.6,258.8,226.5,262.5z M376.4,341.2c-1.2-4.8-2.3-9-3.6-13.8C369.4,332.2,371,338.3,376.4,341.2z M407.9,200.4
		c-0.4-0.1-0.9-0.1-1.3-0.2c-0.5,2.1-1,4.2-1.6,6.4c-1.7-0.9-3.4-1.7-5-2.6c-0.3,0.3-0.5,0.5-0.8,0.8c1.8,2.1,3.6,4.1,5.4,6.2
		c0.6-0.2,1.3-0.3,1.9-0.5C406.9,207.1,407.4,203.7,407.9,200.4z M197.7,212.2c-1.9,5.5-1,9.8,2.6,14.1c1.2-2,2.2-3.6,3.4-5.7
		C197.1,221,199.5,215.7,197.7,212.2z M354,400.3c1.3-3.6,2.6-7.1,3.8-10.6c-2,1.5-2.8,4-4.5,4.9c-1.5,0.8-3.9-0.4-5.8-0.6
		C349.6,395.9,351.6,397.9,354,400.3z M283,390.2c0.6,2.4,1.3,5.7,2.2,9.5c1.3-1.1,2-1.6,2.6-2.1c1.4-1.5,2.8-3,3.3-3.6
		C288.3,392.7,285.6,391.4,283,390.2z M266.3,376.8c-0.3,0-0.6,0.1-0.9,0.1c0,2.6,0,5.3,0,9.3c3.6-3.1,6.3-5.3,8.9-7.6
		c-0.2-0.3-0.4-0.5-0.5-0.8c-2.1,1-4.2,1.9-6.3,2.9C267,379.3,266.6,378.1,266.3,376.8z M446.6,216.4c-2,2.1-3.7,4.1-5.9,6.5
		c0.3,0.5,0.9,2,2,2.9c0.5,0.4,2.7-0.2,2.8-0.6C446.1,222.3,446.3,219.3,446.6,216.4z M249.9,218c-0.2,0-0.3,0-0.5,0.1
		c0,3.5,0,7.1,0,10.6c0.3,0.1,0.7,0.2,1,0.3c1.3-1.8,2.6-3.6,4.2-5.8c-1.9,0.3-3.1,0.4-4.3,0.6C250.2,221.7,250.1,219.9,249.9,218z
		 M250.2,299.3c0.5,0.2,1.1,0.4,1.6,0.5c1.3-2.2,2.7-4.4,4-6.5c-0.2-0.2-0.4-0.3-0.7-0.5c-1.1,0.6-2.2,1.3-3.4,1.9
		c-0.9-1.9-1.6-3.5-2.3-5c-0.4,0.1-0.7,0.3-1.1,0.4C249,293.2,249.6,296.3,250.2,299.3z M413.5,187.2c-0.4,0-0.7-0.1-1.1-0.1
		c-0.2,1.8-0.5,3.6-0.7,5.4c-1.4-0.2-2.7-0.5-3.9-0.7c-0.2,0.3-0.3,0.7-0.5,1c2.1,1.3,4.2,2.5,6.2,3.8c0.1-2.1,0.2-4.1,0.3-6.2
		C413.8,189.4,413.6,188.3,413.5,187.2z M352.7,435.6c-0.4-0.6-0.7-1.2-1.1-1.8c-1.9,1.6-4.9,2.9-5.4,4.8s1.7,4.4,2.7,6.6
		c0.6-0.3,1.2-0.6,1.7-0.8c-0.8-1.7-1.6-3.5-2.4-5.2C349.8,437.9,351.3,436.8,352.7,435.6z M241.4,202.8c-0.4,0-0.8,0.1-1.2,0.1
		c0.3,2.7,0.5,5.5,1,8.2c0.1,0.5,2,1.2,2.4,0.9c1.4-1,2.5-2.5,3.7-3.8c-0.2-0.3-0.5-0.6-0.7-0.8c-1.2,0.4-2.4,0.8-3.6,1.2
		C242.4,206.5,241.9,204.7,241.4,202.8z M401.7,243.9c1.9,0.7,3.8,1.3,6.5,2.2c0.3-3.9,0.5-7.3,0.7-10.6c-0.4-0.1-0.8-0.2-1.2-0.4
		C406.6,238.6,407.2,243.4,401.7,243.9z M277.7,364.9c0.4,0.1,0.8,0.1,1.2,0.2c1.1-1.8,2.3-3.6,2.8-4.5c-2.6-1.8-4.5-3.2-6.9-5
		C275.9,359.1,276.8,362,277.7,364.9z M235.9,195.8c-0.4-2.3-0.8-4.2-1.1-6c-0.3,0-0.6,0-1,0c-0.2,3.2-0.4,6.5-0.6,9.7
		c0.5,0.2,0.9,0.4,1.4,0.6c1.9-1.7,3.9-3.5,5.8-5.2c-0.2-0.3-0.5-0.5-0.7-0.8C238.6,194.5,237.5,195,235.9,195.8z M305.7,414.1
		c1.6,2.2,3,4.2,4.5,6.2c1.4-1.9,2.9-3.8,4.3-5.6C311.4,414.4,309,414.3,305.7,414.1z M349,374.4c-0.2,0.2-0.5,0.5-0.7,0.7
		c1.4,1.8,2.8,3.6,4.9,6.3c1.2-3.6,1.9-6.1,2.7-8.6c-0.3-0.2-0.6-0.4-0.9-0.6c-0.8,1.3-1.6,2.5-2.2,3.5
		C351.1,375.2,350.1,374.8,349,374.4z M307.9,399.1c-2.6-0.9-4.9-1.6-7.3-2.4c0.9,2.6,1.7,5.2,2.8,8.5
		C305.3,402.7,306.6,400.9,307.9,399.1z M324.4,403.4c-2.5-1-4.5-1.7-7.4-2.9c1.6,3.6,2.7,6.1,4.1,9.1
		C322.3,407.3,323.3,405.6,324.4,403.4z M377.5,374.5c-0.9-4.5-1.6-8.1-2.3-11.6c-0.2,0-0.4,0.1-0.7,0.1c-0.5,2.9-1.1,5.9-1.6,8.9
		C374.2,372.6,375.3,373.2,377.5,374.5z M402.4,230.1c0.3-0.2,0.7-0.4,1-0.6c0-3.2,0-6.5,0-9.7c-0.2,0-0.3,0-0.5,0
		c-0.3,1.8-0.6,3.5-1,5.5c-1.3-0.5-2.5-1-3.7-1.4c-0.2,0.2-0.4,0.5-0.5,0.7C399.2,226.4,400.8,228.2,402.4,230.1z M361.7,464.6
		c-0.4,0-0.9,0.1-1.3,0.1c-1.9,3-1.1,5.7,3.6,10C363.1,470.7,362.4,467.6,361.7,464.6z M357.4,438.1c-0.3-0.5-0.6-0.9-0.9-1.4
		c-2.1,0.7-4.2,1.5-6.9,2.4c1.8,2.2,3.3,4,4.7,5.8c0.3-0.2,0.5-0.3,0.8-0.5c-0.3-1.3-0.6-2.5-1-4.2
		C355.1,439.5,356.3,438.8,357.4,438.1z M288.4,378c1.7-2.4,2.7-3.9,4-5.8c-2.3-1-4.1-1.7-6.7-2.9
		C286.7,372.6,287.4,374.9,288.4,378z M230,190.7c-0.2-0.4-0.4-0.7-0.6-1.1c-1.5,0.8-3.1,1.5-4.6,2.3c-0.6-1.6-1.1-2.9-1.6-4.3
		c-0.4,0.1-0.8,0.3-1.2,0.4c0.5,2.3,1,4.6,1.7,7.5C226,193.6,228,192.2,230,190.7z M425.5,185.1c-0.5-0.5-1-1-1.6-1.5
		c0.3,6.7-2.9,4.8-6.1,3.2c-0.1,0.4-0.2,0.9-0.2,1.3c1.9,1.4,3.8,2.8,6.3,4.7C424.5,189.6,425,187.3,425.5,185.1z"/>
	<path d="M154.5,144c-0.6-1.7-0.8-3.8-1.9-4.9c-2.6-2.5-4.5-0.1-6.2,1.7c-1.3,1.4-3.4,3.2-3.3,4.8c0.2,3.3,2.6,4.6,6.2,3.4
		c-8.1,9.2-16.2,18.4-24.3,27.6c2.4-5.4-1.9-7.2-4.6-9.6c-2.9-2.6-6-5-8.9-7.6c-2.6-2.4-5.1-4.5-8.7-1c-0.2-0.4-0.5-0.8-0.7-1.2
		c5.3-6.3,10.7-12.6,16.2-19.2c2.2,1.7,4.1,3.2,6.4,5c-3.2,0.5-6.1,0.2-8.2,1.4c-2.2,1.2-3.6,3.8-5.7,6.1c2.7,2.4,5.3,4.6,8,7
		c3-2.3,5-4.6,2.1-8.5c0.4-0.2,0.8-0.5,1.3-0.7c2.5,2.1,5,4.2,7.5,6.4c-0.1,0.4-0.1,0.7-0.2,1.1c-4-1.7-6.5,0-8.3,3.6
		c1.1,1,2.3,2.2,3.6,3.1c2.2,1.4,3.7,5.3,7.3,2.6c4.6-3.5,5.7-7.4,3.3-12c-0.4-0.8-0.6-1.6-0.2-3c2,1.5,4,3,5.9,4.5
		c0.4-0.1,0.8-0.3,1.2-0.4c-0.4-2.3-0.5-4.7-1.3-6.8c-2.5-6.5-5.3-12.9-7.9-19.4c-0.5-1.3-0.9-2.8-1.7-5.1c1.9,0.5,3,0.7,3.8,1.1
		c7.3,3.5,14.6,7.1,22,10.4c1.7,0.7,4.1,0.7,5.8,0.2c3-0.9,3.7-3.1,1.7-5.9c-3.6-4.8-6.9-9.9-10.8-14.4c-1.4-1.6-4.1-1.9-6.6-3
		c3.5-2.6,7.5-5.5,11.5-8.4c0.4,0.2,0.8,0.3,1.1,0.5c-3.7,3.9-1.3,6.6,0.9,9.5c3,3.8,5.9,7.8,8.7,11.8c1.7,2.3,3.4,2.4,5.6,0.8
		c4.6-3.2,5.2-4.6,5.4-13.4c1.9,2.5,3.7,5.1,5.7,7.8C175.4,127.9,164.6,136.2,154.5,144z M141.5,142.2c2.2-2.1,3.9-3.7,6.1-5.7
		c-3.6-1.6-6.5-2.9-10.3-4.7C138.9,135.8,140.1,138.7,141.5,142.2z"/>
	<path d="M71.1,404.1c-8.7,1.9-9.2,2.3-11.2,7.8c-1.6-4.5-3.2-9.1-4.8-13.6c0.4-0.4,0.8-0.8,1.2-1.3c2,4.9,4.9,3.5,8,2.4
		c5-1.8,10-3.6,15-5.2c3.7-1.2,3-3.7,2.5-6.4c-0.5-3-2.5-3.4-5-2.9c-5.9,1.2-11.8,2.2-17.6,3.8c-1.9,0.5-3.2,3-5.1,4.8
		c-0.3-1.1-0.7-2.7-1.1-4.3c-1-4.9-2-9.8-3-14.8c-1.1-5.4,0.3-6.8,7.5-5.7c-7.5,3.7-4.3,9-3.2,14.4c3.6-0.7,6.9-1.4,10.3-2.1
		c0-3.9-0.7-6.7-5.4-6.8c0.1-0.5,0.2-1,0.2-1.5c3.1-0.7,6.2-1.3,9.3-2c-2.6,3-3.4,5.8-1.1,9.4c1.5-0.2,3.1-0.3,4.7-0.8
		c2.5-0.8,6.5,0.2,6.4-4.3c-0.1-5.8-2.3-8.7-7.2-9.7c-0.9-0.2-1.8-0.5-2.7-1.8c2.9-0.6,5.9-1.3,9.2-2c3.2,13.7,6.4,27.2,9.8,41.4
		c-5.3-6.7-9.6-0.5-14.7-0.2c1.7,4.8,3.1,9,4.5,13.1c7.9-0.7,11.1-2.8,12.7-8.2c1.6,4.6,3.2,9.2,4.8,13.8c-0.3,0.4-0.5,0.8-0.8,1.2
		c-2.9-5.1-6.4-3-9.8-1.7c-3.9,1.4-7.9,2.8-11.9,4.1c-2.9,1-6,1.7-4.2,6.5c-0.6-0.1-1.2-0.1-1.8-0.2c-1.6-4.5-3.2-9-4.8-13.6
		c0.2-0.4,0.5-0.7,0.7-1.1c4.2,6.3,8.3,1.6,13,0.7C74.1,412.8,72.6,408.6,71.1,404.1z"/>
	<path d="M336.3,598.2c5.3-1.1,4.4-4.6,4-8.1c-0.6-4.4-0.9-8.9-1.5-13.3c-0.3-2.5,0-5.4-4-5.7c-3.7-0.3-5.3,1.3-6.3,4.6
		c-2,6.8-4.1,13.6-6.4,20.4c-0.5,1.3-1.7,2.4-2.6,3.6c-0.9-1.2-2.1-2.4-2.6-3.7c-2-5.8-3.8-11.6-6-18.5c-2.5,6.6-4.4,12.2-6.7,17.7
		c-0.6,1.4-2,2.6-3.1,3.8c-0.8-1.3-1.9-2.5-2.3-3.9c-1.8-6.5-3.2-13-5.1-19.4c-0.7-2.5-2.3-4.7-3.5-7.2c3.6,0,7.8,0,12,0
		c-4.5,2.2-2.4,5.5-1.8,8.3c0.9,3.9,2,7.7,3.4,12.9c2.5-6.8,4.5-12.3,6.8-17.8c0.5-1.2,1.8-2.1,2.7-3.1c0.7,1,1.7,2,2.1,3.2
		c1.9,5.6,3.7,11.3,6.4,17c1.4-4.7,3.1-9.3,4.1-14.1c0.3-1.4-1.4-3.2-2.3-5c11-0.8,22.6-1.7,34.7-2.7c0.3,2.4,0.7,4.7,1,7.1
		c-0.3,0.4-0.6,0.8-0.9,1.3c-3-7.5-8.3-5.8-14.1-4.5c0.3,3.3,0.6,6.7,1,10.2c3.8,0.5,6.6,0,7.5-4.4c0.4,0.1,0.8,0.2,1.2,0.3
		c0.4,3,0.7,6,1.1,9.1c-0.3,0.2-0.6,0.5-0.9,0.7c-1.9-3.8-4.7-4.2-8.3-2.6c0.1,1.2,0.1,2.6,0.4,3.9c0.8,2.7-1.2,7,3.8,7.5
		c6.1,0.6,8.9-1.4,10.6-7c0.1-0.5,0.4-1,0.6-1.4c0.4,0,0.8-0.1,1.2-0.1c0.3,2.9,0.7,5.9,1.1,9.5c-9.2,1-18,1.9-26.7,2.9
		C336.8,599,336.6,598.6,336.3,598.2z"/>
	<path d="M338.3,64.2c2.6-1.1,5.2-2.1,8.2-3.3c-0.2,2.7-0.5,5.9-0.7,8.7c-2.5-1.5-5-3-7.5-4.5c-0.4,0.3-0.9,0.7-1.3,1
		c-0.2,3.1-0.6,6.3-0.4,9.4c0,0.9,1.5,2.3,2.6,2.6c5.9,1.8,8.8,0.4,11.8-5.3c0.3-0.5,0.3-1.1,0.5-1.6c0.5,0.3,1,0.5,1.5,0.8
		c-0.2,3-0.4,6-0.7,9.2c-14.1-0.7-27.8-1.4-42.3-2.1c7.9-3.2,3.2-8.9,4.1-13.5c-4.9,0-9.3,0-13.5,0c-1.6,7.1-0.3,11.4,4.1,14.5
		c-4.8,0.3-9.6,0.7-15.4,1.1c1.1-1.2,1.6-1.7,2-2.2c0.9-1.2,2.5-2.4,2.5-3.6c0-6.4-0.3-12.9-1-19.2c-0.2-1.7-2.3-3.1-4-5.1
		c4.6-0.3,9.3-0.6,13.9-0.9c-5.8,3.5-2.9,8.5-3,13.3c4.6-0.2,9-0.5,13.4-0.7c1.9-6.6,0.7-10-3.9-11.6c2-1.9,10.2-2.5,15.3-0.9
		c-5.1,1.1-4.8,4.5-4.6,8c0.4,5,0.8,10,0.8,15.1c0,3.9,2.8,4.1,5.4,4.4c2.9,0.3,3.9-1.4,4-4.1c0.3-4.7,0.9-9.5,1.2-14.2
		c0.2-3.6,2.1-7.9-4.9-8.7c0.4-0.4,0.8-0.9,1.3-1.3c8.1,0.6,16.3,1.2,24.7,1.8c0,2.5,0,4.8,0,7.1c-3.4-5.3-8.1-6.7-14.3-5.3
		c-0.2,3.2-0.5,6.5-0.7,9.8C337.6,63.3,337.9,63.8,338.3,64.2z"/>
	<path d="M82,258.7c0.5,1.4,1.5,2.9,1.3,4.1c-1.6,9.3-3.5,18.6-5.4,27.9c-0.3,1.3-1.5,2.7-2.6,3.4c-2.6,1.6-5.4,2.9-8.2,4.2
		c-2.9,1.3-4.5,3.2-3.9,6.5c6.1,2.5,9.6,1.9,13.5-2.4c-0.4,4.8-0.8,9.6-1.1,14.4c-2.5-5.9-7.8-4.4-12.1-4.9c-3.5-0.4-7-0.5-10.4-1
		c-3.1-0.4-5.5,0.1-6.5,4.3c-0.6-1.3-1.2-1.8-1.1-2.3c0.4-5.3,0.6-10.6,1.4-15.8c0.8-5.3,3.5-8.2,7.3-8.6c4.9-0.6,7,2.6,8.4,6.3
		c3.6-2.1,7.3-3.8,10.5-6.2c1.7-1.2,2.5-3.6,3.8-5.5c-1.6-0.9-3.1-2.2-4.8-2.6c-4.3-1.2-8.7-2-13.1-2.9c-3.4-0.7-7.3-3-8.9,3.6
		c-0.4-0.5-0.7-1-1.1-1.5c1.7-8,3.4-16,5.2-24.4c2.7,0.5,5.1,1,7.4,1.4c0.3,0.4,0.6,0.8,0.9,1.2c-8,0.5-7.9,6.2-8.8,12
		c3.3,0.7,6.6,1.5,11.4,2.5c-0.6-3.6-1.2-6.4-1.7-9.7c2.4,0.5,5.5,1.2,8.6,1.8c0.1,0.5,0.2,0.9,0.3,1.4c-4.7,0.1-5.4,3-5.4,6.7
		c1.4,0.4,2.8,1,4.3,1.1c2.7,0.1,6.1,3.1,8-1.3c2.3-5.3,1.3-9.3-2.9-12c-0.6-0.4-1.2-0.9-1.6-2.2c2.6,0.2,5.2,0.4,7.8,0.5H82z
		 M60.2,305.3c0.8-7.5-0.6-10-5.6-10.2c-4.4-0.2-6.4,2.8-6.1,9C52.3,304.5,56.2,304.9,60.2,305.3z"/>
	<path d="M580.6,235.2c1.5,4.7,3,9.4,4.4,14.1c-0.2,0.4-0.3,0.8-0.5,1.2c-4.4-6.9-9.1-2-13.6-1.2c-2.9,0.5-5.6,1.8-8.4,2.5
		c-3.2,0.9-6.2,1.9-4.8,6.7c-0.4-0.1-0.9-0.1-1.3-0.2c-3.3-9.4-6.5-18.8-9.9-28.5c1.9,0.9,3.5,2.2,5.1,2.3c1.7,0,3.4-1.1,5-1.8
		c4.1-1.8,8.1-3.7,12-6.4c-8.5,0-17,0-25.4,0c-0.3-0.4-0.5-0.8-0.8-1.2c5.5-6.5,11-12.9,16.5-19.4c-0.2-0.3-0.3-0.5-0.5-0.8
		c-5.5,2.5-11.1,4.8-16.4,7.6c-1.2,0.6-1.2,3.2-2.2,6.1c-1.7-3.9-3.2-7.1-4.6-10.4c0.2-0.4,0.5-0.8,0.7-1.2c3.2,5.2,6.5,2.4,9.8,0.9
		c3.6-1.6,7.1-3.3,10.7-4.7c3.2-1.3,6.3-2.6,5-7.3c5.3,4.4,5.9,9.5,2,14.1c-3.5,4.1-7.1,8.3-10.6,12.4c-0.1,0.2-0.1,0.5-0.4,1.8
		c6,0,11.8,0.4,17.6-0.1c4.5-0.4,6.7,1.4,7.8,5.4c0.4,1.5,1.1,3,1.9,5c-2.3-1.1-3.9-2.4-5.5-2.4c-1.7,0-3.4,1.1-5,1.9
		c-4.3,1.9-8.6,4-13,5.8c-4.1,1.6-2.9,4.6-2.1,7.3c0.8,3.1,3.3,2.3,5.5,1.6c4.3-1.3,8.5-2.6,12.8-4c3.5-1.2,8.4-0.9,6.7-7.9
		C579.4,234.7,580,235,580.6,235.2z"/>
	<path d="M133,524c-3.9-4.1-7.4-7.8-10.9-11.4c4.1,4.1,6.2,0.1,8.9-2.5c2.5-2.4,5-4.9,7.4-7.4c2.6-2.7,6.3-5,3.5-10
		c0.7,0.4,1.5,0.8,2,1.3c4.7,4.4,9.4,8.7,13.9,13.3c1,1,1.6,2.9,1.6,4.3c0.2,7.5,0.1,15,0.1,22.5c0.5,0.1,0.9,0.3,1.4,0.4
		c3-3.7,6.3-7.3,8.9-11.3c0.8-1.2-0.1-3.5-0.3-6.1c3.3,1.9,6,4.3,8.7,7.7c-5.3-3.1-7.1,1-9.4,3.8c-4.4,5.2-8.7,10.5-13.6,16.5
		c-2.4-5.7-1-11-1.3-16c-0.4-5.1-0.1-10.2-1-15.8c-3.8,4.7-7.7,9.3-11.1,14.2c-0.7,1,0.5,3.4,1.2,6.6c-3.6-3-6.4-5.3-9.2-7.7
		c0-0.5,0.1-0.9,0.1-1.4c5.1,3,6.9-0.6,9.2-3.4c2.9-3.6,5.8-7.2,8.7-10.7c2.4-2.8,1.5-5-0.9-7.2c-2.6-2.3-4.2-0.5-6,1.2
		c-3.4,3.5-6.8,7-10.4,10.3C131.9,517.8,129.9,520.1,133,524z"/>
	<path d="M415.5,568.6c2.7,3.5,1,10.5,9.1,9.3c0,0.4,0,0.8-0.1,1.2c-4.5,1.9-9,3.8-13.5,5.6c4.5-4.8,0.6-8.7-0.8-12.6
		c-1.2-3.4-2.8-6.7-4.1-10.1c-1.2-2.9-2.4-5.6-6.7-4.3c0.4-0.6,0.7-1.4,1.3-1.6c4.7-2,9.4-4.2,14.3-5.9c5.4-1.9,9.2-0.9,11.4,2.3
		c2.8,4.1,0.9,7.4-1.9,10.6c5.4,3,10.6,6,15.7,8.9c-3.6,3.5-6.4,3.8-10.3,1.1c-2.2-1.5-4.3-3.1-6.5-4.6
		C420.2,566.2,419.6,566.3,415.5,568.6z M415,567.2c2.7-2.9,5.4-4.7,6.2-7.2c0.6-1.7-1.1-5.5-2.7-6.2c-2.3-1.1-5.5-0.3-9.2-0.3
		C411.4,558.4,412.8,562,415,567.2z"/>
	<path d="M242,587.2c4.7,0.9,5.7-1.6,6.4-4.7c0.9-4.5,1.9-9,3-13.4c0.8-3.4,2.6-7-2.9-8.2c0.5-0.7,0.7-1.1,0.8-1.1
		c6.9,1.8,14.2,2.9,20.7,5.6c6.2,2.6,8.4,10,6.5,16.8c-1.9,6.9-6.9,11.1-14.1,10.5c-6.5-0.6-12.8-2.4-19.2-3.7
		C243,589,242.8,588.4,242,587.2z M259,564c-1.7,7.5-3.4,14.8-4.9,22.2c-0.2,1,0.9,3.1,1.6,3.2c2.8,0.3,6,0.7,8.4-0.4
		c4.4-2,7.2-10.2,6.1-15.9C269.2,567.9,266.2,565.3,259,564z"/>
	<path d="M516.3,169.4c-8.8,0.1-17.5-8.4-17.7-17.4c-0.2-8.5,7-16,15.4-16.2c8.7-0.1,17.8,8.9,17.9,17.9
		C531.9,161.8,524.5,169.2,516.3,169.4z M511.7,164.5c6.2,0.1,15-7.5,15.8-13.6c0.8-6.3-6-12.1-12.1-9.9c-5.4,2-9.7,5.6-12,11
		C501,157.9,505.5,164.4,511.7,164.5z"/>
	<path d="M221,91.4c0,8.7-8.6,16.6-18.2,16.6c-8.3,0-15.5-7.4-15.5-16s8.7-16.5,18.3-16.6C214,75.3,221,82.6,221,91.4z M215.2,95.1
		c-0.5-5.8-2.9-10.7-7.3-14.5c-3.1-2.7-6.7-2.3-10.1-0.4c-3.4,1.9-5.6,5-4.5,8.6c1.5,4.6,3.7,9.2,6.6,13.2c2.3,3.2,6.2,3.4,9.9,1.8
		C213.4,102,215.4,99.3,215.2,95.1z"/>
	<path d="M242.7,566.8c0,8.9-6.9,16-15.5,15.9c-10-0.1-18.2-7.5-18.1-16.6c0-9,6.8-15.9,15.5-15.8
		C234.6,550.4,242.7,557.7,242.7,566.8z M237.7,563.2c-0.3-0.2-0.7-0.4-1-0.5c-0.2-4-2-6.9-5.8-8.4c-3.7-1.5-7.2-1.4-10,1.7
		c-3.7,4-5.7,9-5.8,14.4c-0.1,4.2,2.3,7,6.2,8.5c3.7,1.5,7.4,0.9,9.5-2.2C233.6,572.5,235.4,567.7,237.7,563.2z"/>
	<path d="M232.8,531.4c-2.9-1.2-7.1-2.5-11-4.6c-2.9-1.5-2.7-3.6,0.3-5.3c3.6-2.1,7.4-3.8,11.1-5.7c7-3.5,13.7-2.1,20.3,1.3
		c2.3,1.2,4,3.2,1.2,5C248.6,526.3,242.1,530.3,232.8,531.4z"/>
	<path d="M271.8,522c2.3,0.7,5.5,1.4,8.4,2.6c2.5,1,3.1,3.2,0.8,4.8c-5,3.6-9.9,7.3-15.4,10c-5.5,2.8-11.2,1-16.5-1.6
		c-1.7-0.9-3.4-2.5-1.3-4.2C254.5,527.9,261.6,522.7,271.8,522z"/>
	<path d="M119.6,361c-0.3,5.7-1.9,6.6-6.8,3.7c-3.2-1.9-6.4-3.9-9.5-6c-6.5-4.5-8.5-11.1-8.2-18.6c0.1-2.1,1-4.3,3.6-3
		c8.1,4,15.8,8.5,19.3,17.5C118.8,356.6,119,358.9,119.6,361z"/>
	<path d="M176,167.1c-0.1,8.6-2.1,15.4-8.3,20.3c-3.8,3-5.7,2.4-6.3-2.3c-0.6-4.4-0.9-8.9-1-13.3c-0.2-7.4,3.7-12.7,9.5-16.7
		c2.9-2,4.8-1.2,5.3,2.3C175.7,160.8,175.8,164.5,176,167.1z"/>
	<path d="M382.6,106.6c2.9,0.8,5.9,1.4,8.7,2.5c2.7,1.1,3.3,3.1,0.7,5.1c-4,3-8,6-12.2,8.8c-6.7,4.5-13.4,2-19.9-0.9
		c-0.7-0.3-1.3-3.4-0.7-3.9C366,112.5,373,107,382.6,106.6z"/>
	<path d="M188.9,502.3c-7.8-0.3-12.6-3.5-16.5-8.2c-1.4-1.6-1.7-3.7,0.8-4.3c8.2-1.9,16.4-5.5,24.9-1.6c3,1.3,5.7,3.4,8.2,5.6
		c2.2,1.9,1.9,4.2-1.2,4.9C199.2,500.2,193.3,501.4,188.9,502.3z"/>
	<path d="M537.1,280.9c-9.5-0.7-21.1-11.6-22.4-21c-0.6-4.4,1.3-6.4,5.4-5c10.6,3.4,18,10.3,21.2,21.1
		C542.4,279.7,540.9,281.2,537.1,280.9z"/>
	<path d="M121.3,276.5c-0.4,1.5-1,4.5-2.1,7.2c-0.9,2.3-2.8,3-4.4,0.7c-3.5-4.7-7-9.4-10-14.4c-3.4-5.8-1.3-11.7,1.3-17.2
		c1.3-2.8,4-2.6,6.2-0.4C118.3,258.7,120.7,266.4,121.3,276.5z"/>
	<path d="M498.5,453.2c-0.4,7.5-1.7,13.1-6.3,17.4c-3.2,3.1-5,2.8-6.1-1.4c-1.2-4.8-2.4-9.7-3-14.7c-0.8-7.1,2.6-12.7,7.9-17
		c2.6-2.1,4.3-0.6,4.8,2C497,444.5,497.8,449.5,498.5,453.2z"/>
	<path d="M480.1,470.7c0,8-1.4,15.3-8,20.6c-4,3.2-5.7,2.6-6.4-2.5c-0.6-4.1-1.1-8.3-1.2-12.5c-0.3-7.9,3.8-13.4,10.1-17.6
		c2.4-1.6,4.1-0.7,4.5,2C479.6,464,479.7,467.4,480.1,470.7z"/>
	<path d="M466.5,164c8.2-0.3,16,0.8,21.4,7.9c1,1.3,1.9,3.3,1.6,4.7c-0.2,0.9-2.7,1.6-4.2,1.8c-4.1,0.5-8.3,0.7-12.5,0.9
		c-7.7,0.4-12.9-3.6-17-9.5c-1.9-2.8-1.1-4.7,2.4-5.3C460.9,164.1,463.7,164.2,466.5,164z"/>
	<path d="M126,420.8c8.7,1.1,17.2,5.1,22.8,14.1c0.9,1.4,1.6,3.8,1,4.9c-0.6,1-3.2,1.5-4.8,1.3c-5.2-0.8-10.4-1.8-15.5-3.3
		c-5.8-1.8-8.8-6.7-10.6-12.1C117.7,422.4,119.9,420.6,126,420.8z"/>
	<path d="M311.8,119.5c-1.1-0.2-2.6-0.2-4.1-0.6c-2.7-0.7-3.6-2.4-2.6-5c3.2-8.6,18.8-17.6,27.8-16c3.7,0.7,4.5,2.2,2.3,5
		c-3.3,4.1-6.7,8.2-10.4,12C321.6,118.6,317,119.5,311.8,119.5z"/>
	<path d="M366.2,545c-3.3,0.1-4.6-1.4-3.2-4.4c2.3-5.1,4.6-10.2,7.4-14.9c3.4-5.7,9.2-7.4,15.4-7.6c1.1,0,3.3,2.4,3.4,3.7
		C389.4,530.6,375.1,544.8,366.2,545z"/>
	<path d="M126.5,391.8c-11.4,1.9-26.7-10.1-27.3-21.4c-0.3-4.7,0.9-5.6,5.3-3.8c2.7,1.1,5.4,2.3,8,3.6
		C121.3,374.6,126,381.8,126.5,391.8z"/>
	<path d="M157.2,190.6c-0.2,8.6-1.8,14.1-6.4,18.4c-2.9,2.8-4.8,2.3-5.9-1.6c-1.2-4.3-2.2-8.6-2.9-13c-1.2-7.2,1.6-13.1,6.8-17.9
		c3-2.8,5-2.4,5.9,1.5C156,182.9,156.7,188,157.2,190.6z"/>
	<path d="M516.8,226.2c-4-0.9-9.7-1.7-15.1-3.6c-6.1-2.1-9.1-7.4-11-13.3c-0.7-2.3,0.3-3.8,2.6-3.6c8,0.9,16.3,1.6,22.6,7.4
		c2.5,2.3,4.4,5.3,6,8.4C523.6,224.9,522.3,226.4,516.8,226.2z"/>
	<path d="M448.9,145.6c8.5,0.2,14.1,1.6,18.4,6.1c3,3.1,2.6,5-1.6,6.1c-4.3,1.1-8.7,2.1-13.1,2.9c-7.5,1.3-13.3-1.9-18.2-7.3
		c-2.4-2.7-1.9-4.5,1.6-5.4C441.2,146.9,446.3,146.1,448.9,145.6z"/>
	<path d="M426.9,145.8c-7.5-0.3-12-2.6-15.9-6.1c-2.2-2-2-4.1,0.9-5.1c5.9-2,11.9-3.8,18-5.6c1-0.3,2.2,0,3.2,0.4
		c3.5,1.5,6.9,3,10.2,4.8c1.2,0.7,2.4,2,2.7,3.2c0.1,0.6-1.6,2.1-2.8,2.5C437.2,142.3,431.2,144.3,426.9,145.8z"/>
	<path d="M438.2,501.7c-1.1,8.5-5.2,16.9-13.8,22.5c-1.5,1-3.6,0.9-5.5,1.4c-0.3-1.8-1.1-3.7-1-5.4c0.4-4,1.2-8,2.1-11.9
		c1.4-6.2,5.2-10.3,10.9-12.8C436.3,493.1,438.4,494.5,438.2,501.7z"/>
	<path d="M545.7,305.8c0,4.2-1.8,5.4-5.4,3.3c-4.2-2.4-8.4-5-12.2-7.9c-5.3-4.1-6.8-10-6.5-16.4c0.2-3.1,1.9-4.5,5.1-3.6
		C535,283.6,545.6,297.2,545.7,305.8z"/>
	<path d="M171.5,483.3c-8.4,1.3-14.7-2.3-19.5-8.9c-2.4-3.4-1.8-5.4,2.3-5.5c6.1-0.3,12.3-0.5,18.3,0.1c5,0.5,9,3.7,12,7.8
		c2.5,3.4,1.9,5-2.3,5.5C178.8,482.7,175.1,483,171.5,483.3z"/>
	<path d="M137.3,415c-1.6,1.1-2.6,2.3-3.7,2.4c-11.8,0.8-23.9-8-26.6-18.9c-0.7-3,0-5.2,3.3-4.4c8.2,1.9,16.4,4.1,21.9,11.1
		C134.3,407.8,135.4,411.2,137.3,415z"/>
	<path d="M116.2,333c-0.2,1.7,0.1,3.4-0.6,4.4c-0.6,1-2.9,2.2-3.3,1.9c-6.9-5.6-15.7-9.7-17.6-19.7c-0.4-2.3-0.3-4.7,0-7
		c0.6-4.4,2.9-5.6,6.6-3.3C110.2,314.8,114.8,323.1,116.2,333z"/>
	<path d="M359.6,524.7c0.4,0.2,2.6,0.5,3.4,1.7c0.6,0.9-0.4,3.2-1.2,4.4c-2.9,4.2-5.7,8.6-9.2,12.3c-3.6,3.9-8.5,5.7-13.8,6
		c-4.6,0.2-6-1.8-3.7-5.9c2.3-4,4.7-7.9,7.4-11.6C346.3,526.4,352,524.8,359.6,524.7z"/>
	<path d="M507,412.2c1,1.4,2.1,2.4,2.5,3.5c1.9,5.7,5.1,11.5,4.9,17.1c-0.2,5.4-3.9,10.6-6.3,15.8c-0.2,0.3-2.5,0.3-3.1-0.3
		c-7.6-7.3-8.3-25.4-1.5-33.3C504.3,414.1,505.5,413.4,507,412.2z"/>
	<path d="M125.9,215.1c0-7.8,2.5-12.2,6.1-16.1c1.7-1.8,3.8-1.9,4.7,0.6c2.2,6.3,4.7,12.6,5.7,19.2c0.5,2.9-2,6.5-3.6,9.6
		c-1.1,2.2-3,4-4.6,6c-1.4-2.1-3.2-4.1-4-6.4C128.3,223.2,126.8,218.1,125.9,215.1z"/>
	<path d="M223.7,125.2c-1.5,5.5-2.7,11.1-4.7,16.4c-2,5.3-6,9.2-11.5,10.8c-1.4,0.4-3.5-0.2-4.9-1.1c-0.6-0.3-0.5-2.4-0.2-3.6
		c0.7-3.3,1.8-6.5,2.4-9.7c1.5-8.1,6.8-12.8,13.8-16.1C221.9,120.4,223.4,121.5,223.7,125.2z"/>
	<path d="M120.4,222.9c1.7,2.9,3.5,5.7,5.1,8.7c1.1,2.1,1.5,4.6,2.7,6.5c4.3,6.6,1.3,12.4-1.5,18.4c-1.2,2.4-3.3,2.9-5.1,1.3
		C113.1,250.5,109.5,229.8,120.4,222.9z"/>
	<path d="M231.8,511c-6.1,2.3-11.5,4.5-17,6.4c-2,0.7-4.6,1.9-6.3,1.2c-4.3-1.6-8.3-4-12.1-6.5c-0.7-0.5-0.6-3.7,0.3-4.7
		c5.6-6.3,25.9-6.6,31.9-0.6C229.5,507.6,230.1,508.7,231.8,511z"/>
	<path d="M396.7,133.3c-2.2-0.8-6.3-2.1-10.1-3.9c-2.4-1.2-2.3-3.9,0-5c6.5-3.1,13.1-6.7,20-8.1c3.7-0.7,8.3,2.6,12.2,4.6
		c0.5,0.3,0.2,4.1-0.9,5.2C412.8,131.2,405.9,132.6,396.7,133.3z"/>
	<path d="M227,138.8c0-12.7,5.7-25.2,15.9-27.8c5.9-1.5,7.9,0,6.6,5.8c-1.7,7.7-5.6,14.2-11.7,19.2C234,139,232.1,139.4,227,138.8z"
		/>
	<path d="M535,251.2c-2.2,0.7-4.3,1.9-6.5,1.9c-8.8-0.1-20.4-8.5-23.2-16.8c-0.6-1.8-0.2-4-0.3-5.9c2,0,4.1-0.4,6,0.2
		c3,0.9,5.9,2.5,8.9,3.7C527.3,237.2,532.2,242.6,535,251.2z"/>
	<path d="M532,397c-3.4-4.2-6.9-8-9.9-12.2c-4.8-6.5-4.3-13.6-1-20.6c1.6-3.5,3.4-3.8,5.7-0.7c2.3,3.1,4.6,6.3,6.5,9.7
		C537.8,381,538.3,388.7,532,397z"/>
	<path d="M113.9,311.8c-13.6-7.9-19.1-18-15.6-29.7c1.3-4.3,2.8-4.9,5.8-1.7c3.3,3.5,6.7,7.1,9.3,11.2
		C118.1,298.9,118,303.9,113.9,311.8z"/>
	<path d="M251.9,128.1c1.3-7.6,4.2-14.3,8.9-20c3.6-4.4,9-5.3,14.3-5.7c2.3-0.1,4.1,1.2,2.8,3.7c-2.8,5.5-5.6,11.2-9.1,16.3
		C264.9,128.1,258.7,128.9,251.9,128.1z"/>
	<path d="M392.9,538.9c-0.7-2.8-2-5.3-1.8-7.7c1-9.1,5.6-16.3,13.4-21.1c2.5-1.5,5.9-1.7,8.9-2.5
		C415.6,518.3,406.7,531.7,392.9,538.9z"/>
	<path d="M516.7,387c2.2,3.1,3.9,5,5.1,7.3c1.4,2.6,1.9,5.6,3.4,8.1c3.9,6.4,2,12.2-1,18.1c-1.8,3.5-4.3,4-6.7,0.8
		c-5.5-7.4-7.8-15.8-6.2-24.9C511.9,393.4,514.5,390.7,516.7,387z"/>
	<path d="M304.7,547.1c5.1-14.3,19-22.1,30.9-17.4C331.6,541.6,319.4,555,304.7,547.1z"/>
	<path d="M309.2,530.3c-3,5.8-7.6,9.7-12.8,13c-6.6,4.2-13.2,5.7-20,0.4C279.4,533.5,297.9,521.1,309.2,530.3z"/>
	<path d="M442.4,501c0.7-4.1,0.9-8.3,2.2-12.2c1.6-5,5.4-8.3,10.2-10.5c2.7-1.3,5.1-0.5,4.9,2.7c-0.6,10.7-0.5,21.8-11.1,28.6
		c-1.3,0.8-2.9,1-4.4,1.6c-0.5-1.5-1.3-3-1.4-4.6c-0.2-1.8,0.2-3.6,0.3-5.4C442.8,501.1,442.6,501,442.4,501z"/>
	<path d="M497.8,202.3c-5.1-1.5-10.5-2.4-15.3-4.7c-2.9-1.4-5-4.8-7-7.5c-0.8-1.2-1.4-3.8-0.7-4.6c0.9-1.1,3.2-1.6,4.8-1.5
		c4.4,0.5,8.8,1.4,13.2,2.1c6.1,1,10.4,4.5,13.7,9.5c2.3,3.5,1.5,5.2-2.6,5.4c-1.9,0.1-3.9,0-5.9,0
		C498.1,201.5,497.9,201.9,497.8,202.3z"/>
	<path d="M156.9,462.9c-7.6,0.5-14.6-0.8-19.7-7c-1.5-1.8-2.7-3.9-3.5-6.1c-0.8-2-0.2-3.8,2.4-3.7c11,0.2,22.1,0.5,29.1,11.1
		c0.8,1.2,1.2,2.7,1.7,4c-1.5,0.5-3,1.3-4.5,1.5C160.6,463.1,158.7,462.9,156.9,462.9z"/>
	<path d="M332,117c8.1-14.6,24.3-20.8,33-13.2c-3.2,6.5-8.6,10.4-14.7,14.1C343.7,122,337.9,121,332,117z"/>
	<path d="M541.2,475.9c-2.5,1.8-5.1,3.4-7.3,5.5c-0.9,0.9-1.6,2.8-1.4,4c0.6,3.1,1.8,6,3.1,10.1c-4.2-3-7.4-5.3-10.8-7.7
		c-3.4,2.4-6.6,4.7-10.7,7.6c1.2-3.9,1.9-6.9,3.1-9.7c0.9-2.3,0.3-3.6-1.6-4.8c-2.4-1.6-4.7-3.4-6.9-6.1c2.9,0,5.9-0.2,8.8,0
		c2.6,0.2,3.8-0.8,4.4-3.2c0.7-2.8,1.8-5.5,3-9.3c1.3,3.9,2.4,6.8,3.2,9.7c0.6,2,1.6,3,3.8,2.8c3-0.2,6,0,9.1,0
		C541,475.3,541.1,475.6,541.2,475.9z"/>
	<path d="M280.7,122.4c-3.3,0-4.4-1.3-2.6-4.1c3.3-5.1,6.4-10.8,10.8-14.8c3.4-3.1,8.7-4.5,13.4-6c1.2-0.4,3.7,0.9,4.6,2.1
		c0.6,0.8-0.2,3.2-1,4.4c-2.8,4-5.9,7.7-9,11.5C292.6,120.7,286.7,121.8,280.7,122.4z"/>
	<path d="M99,495.5c1.2-4,2-6.9,3.1-9.7c0.9-2.3,0.4-3.6-1.6-4.8c-2.4-1.6-4.7-3.4-6.9-6c2.9,0,5.8-0.2,8.7,0
		c2.5,0.2,3.8-0.7,4.4-3.2c0.7-2.8,1.8-5.6,3-9.3c0.9,2.6,1.5,4.3,2.1,6c2.8,7.6,0.6,6.3,8.7,6.4c1.8,0,3.5,0,5.7,0.9
		c-1.8,1.3-3.5,2.8-5.5,3.9c-3.4,1.9-4.7,4.2-2.7,8c1.1,2,1.4,4.4,2.5,7.7c-4.1-3-7.4-5.3-10.7-7.7
		C106.4,490.2,103.1,492.6,99,495.5z"/>
	<path d="M197.2,135.9c0.4,2.9,1,4.8,0.7,6.6c-0.8,5.2-2,10.4-3.1,15.5c-1.1,5.6-5.3,8.7-9.8,11.2c-0.8,0.4-3.1-0.2-3.5-1
		c-3.9-8.2,1-25,8.7-29.7C192.1,137.5,194.3,137,197.2,135.9z"/>
	<path d="M196.8,568.4c-2.6-0.9-5.7-2-8.9-3.1c-8-2.8-12-8.2-11.6-15.9c0.3-7,5.3-13.1,12.2-14.8c7-1.7,13.1,1.3,17.5,8.8
		c1-0.2,2.1-0.5,4.3-1c-1.9,3.6-3.4,6.4-4.9,9.2c-0.4-0.1-0.9-0.1-1.3-0.2c0-1.4,0-2.8,0-4.1c-0.1-4-1.8-7-5.5-8.6
		c-3.6-1.6-6.9-0.8-9.7,1.7c-4,3.6-6.4,8.2-7.1,13.4c-0.6,4.3,2.4,8,6.9,9.2c3.3,0.9,5.7-0.5,6.7-3.4c0.6-1.7-0.2-3.8-0.5-6.5
		c3.7,2.1,7.5,4.2,10.6,6C202.4,562.4,199.7,565.3,196.8,568.4z"/>
	<path d="M522.6,344.2c1.4-3.2,2.8-6.4,4.2-9.6c2.3,2,4.9,3.8,6.8,6c2.3,2.6,4,5.7,6.1,8.5c3.7,4.9,3.8,10.4,2.2,15.9
		c-0.3,1.1-3.6,2.6-3.9,2.3c-5.6-5-11.7-9.7-13.8-17.4c-0.5-1.7-0.6-3.6-0.9-5.3C523.1,344.5,522.9,344.4,522.6,344.2z"/>
	<path d="M74.3,321.1c0.7,4.8,2,10,2.2,15.2c0.2,6.4-3.7,10.6-9.4,13c-6,2.5-13.1,0.9-17.4-3.6c-4.2-4.3-5.4-10.9-3-16.3
		c1.3-3.1,1.3-3.1-1.6-5.8c4-0.3,7.2-0.6,10.3-0.9c0.1,0.4,0.3,0.8,0.4,1.2c-1.2,0.7-2.4,1.5-3.6,2.2c-3.2,2.1-4.6,5.1-4.2,9
		c0.4,3.7,2.6,6.1,6.1,7.3c5.1,1.8,10.3,1.3,15.1-0.7c4.6-1.9,6.6-7.3,4.2-11.6c-0.9-1.6-3.4-3-5.2-3.1c-1.7-0.1-3.5,1.7-5.9,3
		c-0.2-3.5-0.5-7.8-0.7-11.2C65.7,319.6,69.6,320.3,74.3,321.1z"/>
	<path d="M545.9,331c-0.2,2.6-0.1,4.1-0.4,5.4c-0.5,2.4-2.3,3.5-4.3,2c-4.5-3.4-9.1-6.9-12.9-11.1c-4-4.3-4.5-10.1-3.6-15.8
		c0.6-4,3.3-5.2,6-2.4c4.9,5.1,9.4,10.6,13.7,16.2C545.7,327.2,545.6,329.9,545.9,331z"/>
	<path d="M463.3,123.3c3.7,2.7,5.7,0.7,7.7-2c2.5-3.4,5.3-6.5,7.8-9.8c2.2-2.8,6.2-5.2,0.9-9.9c0.6-0.1,1.2-0.2,1.8-0.3
		c3.2,2.5,6.4,5,9.5,7.5c3.3,2.6,6.5,5.3,10,8.1c-1.6,2.1-3,4.1-4.4,6.1c-0.4,0.1-0.8,0.3-1.3,0.4c2.4-7.3-1.9-10.5-7.2-13.4
		c-2.1,2.5-4.2,5.1-6.4,7.8c2.3,2.7,4.4,5.4,8.5,1.7c0.2,0.5,0.5,1,0.7,1.5c-2,2.5-4,5-5.9,7.3c-1.3-2.9-2.5-5.5-4.1-9.1
		c-1.9,2.1-3,3-3.6,4.2c-1.3,2.5-6.1,4.4-2.7,8c4,4.3,7.6,6.6,12.7,2.5c0.4-0.3,1-0.4,1.5-0.5c0.3,0.3,0.7,0.6,1,0.9
		c-2,2.4-4,4.8-6.3,7.5c-7-5.7-14-11.3-20.9-16.9C462.9,124.2,463.1,123.7,463.3,123.3z"/>
	<path d="M556.4,426.2c-4.1-0.4-7.7-6.8-12.6-0.3c-0.3-0.3-0.6-0.6-1-0.9c2-4.5,4-9,6-13.5c0.5-0.1,0.9-0.2,1.4-0.3
		c-1.5,6.2,3,6.8,6.5,8.3c3.3,1.5,6.7,2.9,9.9,4.5s6.3,3.2,9.1-1.2c0.3,0.3,0.6,0.6,1,1c-1.7,3.9-3.1,8-5,11.8
		c-1.5,2.9-3.4,5.7-5.5,8.2c-2.2,2.5-5.1,2.5-8.1,1.1c-2.9-1.4-4.7-3.8-4.2-7C554.4,434.2,555.4,430.6,556.4,426.2z M558.2,427.1
		c0,3.8-0.9,7.2,0.3,9.6c0.8,1.6,4.8,3,6.8,2.4c2.2-0.7,3.7-3.7,5.9-6.2C566.4,430.8,562.9,429.2,558.2,427.1z"/>
	<path d="M586.8,394.8c-2.3,6.3-4.2,12.8-7,19c-1.9,4.2-5.6,5.3-9.5,3.9c-4-1.4-5.9-4.7-5.2-9.3c0.4-2.9,1.1-5.7,1.8-8.8
		c-4.6-0.8-9-5.8-13.3,1c-0.2-0.3-0.4-0.6-0.6-0.9c1.5-4.7,3-9.4,4.5-14.1c0.4-0.1,0.9-0.3,1.3-0.4c-0.9,5.6,2.9,6.2,6.3,7.2
		c3.6,1.1,7.2,2.3,10.8,3.4c3.4,1,7.2,3.9,9.5-2.7C585.9,393.6,586.4,394.2,586.8,394.8z M568.4,400c0.3,3.8-0.3,7.2,1.1,9.2
		c1.1,1.6,5.1,2.8,6.9,2c2.3-1,3.6-4.2,5.8-7C577.2,402.8,573.5,401.6,568.4,400z"/>
	<path d="M616.1,328.4c0-7,1.8-8.3,7-5.3c4.4,2.6,8.9,5.3,12.4,8.9c2.3,2.3,3.4,6.3,3.9,9.7c0.5,3.3-2.1,4.9-5.2,3.4
		c-4.5-2.2-8.9-4.6-13.2-7.2C617.2,335.5,616.1,331.6,616.1,328.4z"/>
	<path d="M96.9,523.2c3.1,1.9,6.9,3.7,10.1,6.4c2.4,1.9,1.8,4.4-1.4,5.3c-5.2,1.5-10.5,3-15.8,4c-4.4,0.9-10.7-3-12.1-7.3
		c-0.3-1,0.6-3.3,1.4-3.6C84.7,526.3,90.2,525,96.9,523.2z"/>
	<path d="M128.1,94.3c-1.7,2.9-3.6,6.9-6.3,10.2c-2.2,2.6-4.6,1.9-5.5-1.4c-1.4-4.8-2.7-9.6-3.6-14.6s2.3-10.6,6.9-12.8
		c2.1-1,4-0.9,4.6,1.6C125.5,82.6,126.6,87.7,128.1,94.3z"/>
	<path d="M35.4,245c-0.7,1.2-1.4,3.8-3.2,5.2c-0.8,0.6-3.9-0.8-5.4-1.9c-3.1-2.5-6.1-5.3-8.8-8.3c-3.6-3.9-3.6-8.6-1.8-13.3
		c0.9-2.3,2.7-3.5,5.3-2.6C26.6,226,35.4,238.6,35.4,245z"/>
	<path d="M78.1,523.8c-6.1,0-11.8-3.8-12.9-8c-0.3-1,0.7-3.4,1.4-3.6c6.7-1.5,13.5-4.4,20.4-1.9c2.8,1.1,5.4,3.2,7.7,5.4
		c1.9,1.8,1.2,4.1-1.4,4.8C87.7,521.9,82,523,78.1,523.8z"/>
	<path d="M625.1,418.4c-0.4,1.6-0.6,3.1-1.1,4.6c-0.9,2.5-2.8,3.3-4.8,1.4c-4.2-3.9-8.4-7.8-12.2-12c-2.7-3.1-2.8-9.3-0.2-12.5
		c0.9-1.1,3.7-2.1,4.7-1.5C619.1,402.8,623.1,409.9,625.1,418.4z"/>
	<path d="M128.3,77.2c-0.2-6.8,2.9-11.6,7.7-13.8c2.1-0.9,3.9-0.7,4.2,1.6c0.8,6.3,1.2,12.6,1.6,18.9c0.1,1.1-0.5,2.7-1.3,3.4
		c-2.3,2.2-4.8,4.2-7.3,6.2c-1.1-2.4-2.5-4.7-3.2-7.2C129.1,82.9,128.7,79.3,128.3,77.2z"/>
	<path d="M119.3,567c-6.3-0.2-9.8-2.2-12.5-5.4c-1.7-2-1.5-3.9,1.2-4.9c5.2-2,10.4-5.3,15.7-5.5c4.2-0.2,8.6,3.4,12.8,5.6
		c0.2,0.1-0.2,2.7-0.9,3.1C129.6,562.6,123.6,565.1,119.3,567z"/>
	<path d="M639.1,324.8c-8.5,1.1-20.2-5.9-22.7-13.7c-0.4-1.3-0.6-2.7-0.5-4.1c0.1-4,1.6-5.2,5.2-3.6c4.5,2,9,4.3,13.1,7.1
		C639.1,314,640.7,319,639.1,324.8z"/>
	<path d="M83.1,113.9c0.9-4.8,3.3-8,6.6-10.5c2-1.5,3.8-1.1,4.6,1.3c1.9,5.2,5.1,10.5,5.1,15.8c0,4.3-3.7,8.6-5.9,12.8
		c-0.1,0.2-2.8-0.2-3-0.8C88,126.3,85.6,120.1,83.1,113.9z"/>
	<path d="M178.5,51.4c0.4-3.2,0.4-6.4,1.1-9.5c1.2-4.8,4.7-7.3,9.3-8.7c2.6-0.8,4.3,0.2,4.2,2.9c-0.2,5.4-0.4,10.9-1.3,16.2
		c-0.7,4.3-3.8,7.4-7.8,9.2c-3.2,1.4-4.8,0.5-5.1-2.9c-0.2-2.4,0-4.7,0-7.1C178.8,51.4,178.6,51.4,178.5,51.4z"/>
	<path d="M313.1,622c-0.4,7.1-11.1,20.1-17.1,21c-2.1,0.3-4.8-0.7-6.5-2c-0.8-0.6-0.3-3.7,0.5-5.2c1.9-3.6,4.1-7,6.5-10.2
		c3.2-4.1,7.7-6,12.9-5.5C310.9,620.2,312.2,621.5,313.1,622z"/>
	<path d="M598.8,425.8c0.6-2.4,0.8-3.9,1.3-5.4c1.7-5,3.8-5.5,7.7-1.9c4.5,4.2,8.9,8.4,10.1,14.9c0.2,0.8,0.6,1.7,0.4,2.4
		c-0.9,2.8-1.9,5.6-2.9,8.3c-2.1-1.3-4.6-2.3-6.4-3.9c-2.6-2.3-5-4.9-7-7.7C600.4,430.4,599.6,427.7,598.8,425.8z"/>
	<path d="M97.7,101.3c0.4-6.5,3-9.8,6.7-12.3c2.1-1.5,3.8-0.6,4.5,1.7c1.5,5.1,4.2,10.2,4,15.2c-0.2,4.4-3.7,8.6-6,12.8
		c-0.2,0.3-3.5-0.4-3.8-1.2C100.9,111.7,99.1,105.7,97.7,101.3z"/>
	<path d="M389.4,615.3c-0.1,11-5.8,20.7-13.2,23.1c-1.7,0.5-4.3,0.8-5.3-0.2c-1-0.9-0.9-3.6-0.4-5.3c1.3-4.5,2.8-9,4.6-13.4
		c1.8-4.5,6.5-7.1,11.1-6.4C387.4,613.4,388.6,614.8,389.4,615.3z"/>
	<path d="M23.6,345.7c-8.4-1.4-16.3-3.8-21.3-11.2c-1.6-2.4-0.9-6.4-1-9.6c0-0.4,2.5-1.6,3.3-1.2c5.2,2.4,10.7,4.7,15.3,8
		C24.4,334.8,25.7,339.7,23.6,345.7z"/>
	<path d="M497.1,568.4c-0.1-5.7,2.8-10.8,7.9-12.7c1.1-0.4,4,0.7,4.1,1.4c0.9,6.3,1.9,12.6,1.5,18.8c-0.2,3-3,6.1-5.3,8.5
		c-2.4,2.4-4.6,1.5-5.4-1.8C498.9,578,498.1,573.2,497.1,568.4z"/>
	<path d="M447.4,605.3c0-2.5-0.2-5,0-7.5c0.6-5.5,5.1-10.5,10.4-11.1c1.1-0.1,3.5,1.5,3.5,2.2c-0.4,6.5-0.7,13.1-2.3,19.3
		c-0.6,2.6-3.9,4.9-6.5,6.6c-3.1,2.1-4.9,0.9-5.2-2.8C447.2,609.8,447.3,607.6,447.4,605.3C447.3,605.3,447.4,605.3,447.4,605.3z"/>
	<path d="M346.9,619c5.5,0,6.4,1.1,4,6.2c-2.5,5.2-5.4,10.3-9,14.8c-1.6,2-5.2,2.9-8.1,3.3c-3.3,0.5-4.7-1.5-3.5-4.6
		c2-5,4.2-10,6.6-14.8C339,619.9,342.7,618.9,346.9,619z"/>
	<path d="M439.9,537.9c-1.9,5.1-1.9,5.2,0.9,10.1c1.9,3.4,3.8,6.9,5.9,10.1c2.6,3.9,5.6,4.8,9.3,3.1c3.9-1.8,6.1-5.7,4.4-9.6
		c-2.4-5.3-5.3-10.5-8.5-15.3c-0.7-1.1-3.5-1-6.2-1.6c3.6-2.1,6.7-3.9,9.8-5.7c0.4,0.3,0.8,0.6,1.2,0.9c-4.3,3.2-2,6.1-0.2,9
		c1.9,3.3,3.9,6.5,5.6,9.8c3,5.8,1.1,11.4-5,14.9c-6.4,3.8-12.2,3-15.9-2.4c-2-3-3.7-6.3-5.5-9.4c-1.9-3.2-3-7.5-8.8-5.2
		c0-0.5,0.1-1,0.1-1.4C431.3,542.8,435.6,540.3,439.9,537.9z"/>
	<path d="M175.5,52.5c0.2,6-0.2,11.9-5.3,16c-1.6,1.3-3.9,1.7-5.9,2.5c-0.7-1.9-1.8-3.6-2.1-5.6c-0.5-3.6-0.7-7.2-0.7-10.8
		c0-5.9,3.2-9.8,8.5-12.2c2.9-1.3,4.6-0.5,5,2.7C175.3,47.5,175.3,50,175.5,52.5z"/>
	<path d="M546.1,124.9c-7.4,0.1-10.6-3-13.2-7c-1.3-2-0.4-3.5,1.7-4.1c5.1-1.4,10.3-4.1,15.3-3.6c4.5,0.4,8.7,4.1,12.9,6.6
		c0.2,0.1-0.7,3.4-1.6,3.7C555.6,122.4,549.9,123.9,546.1,124.9z"/>
	<path d="M50.7,477.7c2.6-0.1,5.3-0.5,7.9-0.4c5.5,0.2,10,2.3,12.8,7.2c1.6,2.7,0.9,4.8-2.2,5.2c-5.2,0.7-10.5,1.4-15.7,1.3
		c-4.7-0.1-7.8-3.3-9.9-7.3c-2-3.8-1.3-5.3,3-5.8C47.9,477.7,49.3,477.7,50.7,477.7C50.7,477.6,50.7,477.7,50.7,477.7z"/>
	<path d="M4.6,270.3c1.6-2.6,2.4-5.2,4.2-6.4c1-0.7,3.8,0.6,5.4,1.5c6.3,3.8,12.2,8.2,12.9,16.3c0.2,2-0.3,4.7-1.6,6
		c-0.7,0.8-3.9-0.1-5.5-1c-3.4-2-7-4.2-9.7-7.1C7.9,277.1,6.6,273.7,4.6,270.3z"/>
	<path d="M631,399.4c-1.1,2.2-1.6,4.5-2.9,5.3c-1.1,0.6-3.5-0.2-4.9-1.2c-3.4-2.4-6.8-5-9.8-7.8c-3.5-3.4-4.9-7.8-3.3-12.7
		c1.2-3.9,3.7-4.9,6.8-2.4c3.5,2.8,7.1,5.5,9.8,8.9C628.9,392.4,629.6,396.1,631,399.4z"/>
	<path d="M542.8,548.4c-2.1,3.5-4,7.5-6.6,11.1c-1.3,1.8-3.6,1.2-4.3-1c-1.9-5.9-3.6-11.9-4.9-18c-0.4-1.8,0.5-4.4,1.7-5.8
		c1.7-1.9,4.1-3.8,6.5-4.3c0.9-0.2,3,3.3,3.9,5.4C540.5,539.7,541.4,543.8,542.8,548.4z"/>
	<path d="M272.9,32c-2.7,0-4.1-1.1-3.1-4.1c1.4-4.2,3.1-8.3,4.4-12.6c1.7-5.3,6.1-7.4,10.6-9.2c1.3-0.5,3.5,0.1,4.6,1
		c0.8,0.7,1.1,2.9,0.7,4.1c-1.6,4.6-3.4,9.1-5.5,13.5C282.3,29.3,278.2,31.5,272.9,32z"/>
	<path d="M495.2,580.2c0.5,6.2-2.1,11.2-6.4,15.3c-2.7,2.5-5.1,1.9-5.7-1.6c-0.9-5.2-1.6-10.5-1.6-15.7s3.4-8.7,7.9-10.9
		c2.7-1.3,4.6-0.8,4.9,2.6C494.6,573.3,494.9,576.7,495.2,580.2z"/>
	<path d="M331.7,621.4c-1.5,8.4-4.2,16.2-11.7,20.9c-2.5,1.5-6.4,0.8-9.7,0.7c-0.5,0-1.6-2.8-1.2-3.7c2.4-4.8,4.7-9.8,7.9-14.1
		C320.4,620.7,325.5,619.3,331.7,621.4z"/>
	<path d="M354.6,641.8c-4.1,0.1-5.4-1.5-4.4-4.5c1.6-4.9,3.3-9.8,5.4-14.5c1.8-4.2,6.9-6.8,11.4-6.2c2.7,0.3,4.6,1.5,3.4,4.7
		c-1.7,4.5-3.1,9.2-5.4,13.5S358.4,641.1,354.6,641.8z"/>
	<path d="M34.3,441.9c6.7-0.3,13.1,2,17.7,8c1,1.3,2.1,3.6,1.6,4.8c-0.5,1.1-2.9,2-4.5,2c-4.3,0-8.7-0.2-12.9-0.8
		c-5.3-0.7-8.8-3.9-10.6-9c-1.4-4-0.4-5.4,3.9-5.4C30.7,441.6,32.1,441.8,34.3,441.9z"/>
	<path d="M500.1,86.3c-1.6-0.3-3.5-0.3-4.8-1.1c-2.1-1.5-4.8-3.3-5.5-5.5c-1.1-3.2,2.7-3.6,4.7-4.7c2.4-1.3,5.2-2.1,7.5-3.6
		c5.7-3.7,10.6-0.9,15.5,1.7c2,1,3.2,3.4,1,4.7c-5.8,3.5-11.9,6.3-17.9,9.4C500.5,86.9,500.3,86.6,500.1,86.3z"/>
	<path d="M478.8,587.9c-0.4,3.3-0.3,6.8-1.5,9.8c-1,2.7-3.1,5.4-5.3,7.2c-3.7,3-6.3,1.8-6.8-2.8c-0.5-5-0.5-10.1-0.2-15.1
		c0.3-4.3,5.1-9,9.2-9.9c2.6-0.6,3.7,0.8,3.9,3.1c0.2,2.5,0,5,0,7.5C478.4,587.8,478.6,587.8,478.8,587.9z"/>
	<path d="M43.2,215c-6.5-5.6-13.4-10.7-13.7-20.3c-0.1-1.7,0.4-3.6,1.1-5.2c1.7-3.8,4.6-4.2,7.3-1c2.8,3.4,5.8,6.8,7.9,10.7
		C48.7,204.5,48.8,209.9,43.2,215z"/>
	<path d="M40.9,224.5c-0.2,1.6-0.2,2.6-0.6,3.5c-0.8,1.7-1.5,4.2-2.8,4.6c-1.2,0.4-3.5-1.1-4.7-2.3c-3.1-3-6-6.2-8.7-9.5
		c-3.4-4.1-3.2-8.7-0.9-13.3c1.5-3.1,3.8-3.5,6.2-1c3.4,3.7,6.7,7.4,9.5,11.5C40.1,219.9,40.4,222.6,40.9,224.5z"/>
	<path d="M556.8,534.5c-1.9,3.4-3.6,7.3-6.1,10.6c-1.5,2-3.7,1.1-4.6-1.1c-2-5-4.2-10-5.6-15.3c-1.2-4.5,0.5-8.6,4-11.7
		c2.7-2.4,5.2-1.8,6.5,1.6C553,523.8,554.8,528.9,556.8,534.5z"/>
	<path d="M23.6,422.8c8.9,0,16.5,2.7,21.3,10.7c0.7,1.2,1.3,3.2,0.8,4.1c-0.6,1-2.6,1.6-3.9,1.5c-4.6-0.3-9.1-1-13.6-1.7
		s-7.4-3.5-9.2-7.6C16.6,424.4,17.8,422.7,23.6,422.8z"/>
	<path d="M429,48.7c-0.7-0.2-2.7-0.5-4.4-1.3c-3.4-1.7-3.8-4.1-1-6.7c2.5-2.4,4.9-5.1,7.8-6.9c2.7-1.7,6.1-3.3,9.2-3.4
		c3-0.1,6,1.9,9,3c-1.4,2.3-2.4,4.9-4.3,6.7C441.1,44.2,437,48.9,429,48.7z"/>
	<path d="M31.3,263.2c-1.2,2.4-1.7,4.9-3.2,5.8c-1,0.6-3.7-0.4-5.1-1.4c-3.5-2.5-6.8-5.3-9.9-8.3c-3.7-3.6-4-8.1-2.5-12.8
		c1.1-3.3,3.3-4,6-2c3.4,2.6,7,5.1,9.7,8.4C28.6,255.9,29.6,259.7,31.3,263.2z"/>
	<path d="M70.3,129.4c1-2.8,1.2-5.1,2.4-6.6c1.4-1.8,3.6-3.6,5.7-4c1-0.2,2.9,2.7,3.9,4.5c1.2,2.1,1.7,4.8,3.1,6.8
		c4.2,6.1,1.2,11.3-1.9,16.4c-1.2,2-3.4,3.1-4.6,0.8C75.5,141.4,72.9,135.2,70.3,129.4z"/>
	<path d="M578.6,158.5c7.7-0.9,14,0.4,18.5,6.5c1.7,2.4,2.1,4.9-1.3,5.3c-6.1,0.7-12.4,1-18.6,0.6c-4.4-0.3-7.2-3.8-8.7-8.1
		c-0.9-2.5,0-4.1,2.8-4.2C574,158.4,576.6,158.5,578.6,158.5z"/>
	<path d="M610.5,454.9c-0.1,0.5,0,1.6-0.4,2.4c-0.9,1.8-1.8,4.1-3.4,4.8c-1,0.5-3.5-1.2-4.7-2.5c-2.8-3-5.5-6.3-7.9-9.7
		c-2.8-4-2.5-8.4-0.4-12.6c1.7-3.4,4.2-3.7,6.9-1C607.7,443.4,610.5,448.5,610.5,454.9z"/>
	<path d="M211.2,600.6c0.7,0,1.5-0.2,2.1,0c2,0.9,4.5,1.6,5.5,3.2c0.5,0.9-1.2,3.8-2.5,5.1c-2.7,2.8-5.7,5.4-8.8,7.7
		c-4,2.9-8.5,3.4-13,1.2c-3.6-1.7-3.9-4.4-1.1-7.2C201,602.8,205.1,600.5,211.2,600.6z"/>
	<path d="M213.7,42c0.9-5.1,1.5-9.8,2.7-14.4c1.2-4.9,6.5-8.9,11.4-8.9c1,0,2.8,1.1,3,2c1.9,6.6-4.1,20.9-10.3,24.5
		c-1.4,0.8-3.7,1.7-4.9,1.1C214.5,45.7,214.2,43.3,213.7,42z"/>
	<path d="M368,8.3c0.8,0.3,3.4,0.6,4.1,1.9c0.6,1.1-0.6,3.6-1.6,5c-2.6,3.9-5.4,7.8-8.3,11.5c-3.1,3.8-8.7,4.9-12.7,2.7
		c-0.9-0.5-2-2.1-1.9-3.1C348,20.1,359,9.1,365.2,8.4C365.8,8.3,366.3,8.4,368,8.3z"/>
	<path d="M184.3,589.1c-4.3,5.9-10.1,9.4-16.5,11.9c-1.9,0.7-4.6,0.7-6.5-0.1c-2.2-0.9-4.6-2.7-5.6-4.8c-0.5-0.9,1.9-3.9,3.6-5.1
		c3.1-2.3,6.5-4.3,10.1-5.8C175,582.7,180,583.8,184.3,589.1z"/>
	<path d="M586.8,497.9c-5.5-3.7-8.9-8.9-11.2-14.8c-1.7-4.2-1.3-8.5,1.7-12.3c2.2-2.8,4.7-2.7,6.7,0.2c1.6,2.3,3.2,4.6,4.6,7
		C592.5,484.9,593.4,491.6,586.8,497.9z"/>
	<path d="M597.4,480.6c-6.3-3.7-10.1-9.4-12.9-15.9c-0.7-1.7-0.9-4.1-0.2-5.7c1-2.5,2.5-5.5,4.7-6.7c2.9-1.7,3.9,2.1,5.5,3.8
		c1.2,1.3,2.3,2.8,3.2,4.3C602.1,467,603.6,473.6,597.4,480.6z"/>
	<path d="M196.4,45.5c0.3-2.7,0.6-5.9,0.9-9c0.7-5.8,4.6-10,10.3-11.2c2.5-0.5,3.8,0.6,3.9,3c0.6,9.1-0.6,17.7-8.7,23.6
		c-1.4,1-3.2,1.3-4.8,1.9c-0.6-1.7-1.2-3.4-1.6-5.2C196.2,47.8,196.4,46.9,196.4,45.5z"/>
	<path d="M51.3,197.1c-6.1-3.9-10.1-9.4-12.5-16c-0.7-2-0.8-4.6-0.1-6.5c0.9-2.2,2.6-4.7,4.6-5.7c0.9-0.5,3.9,1.8,5.2,3.4
		c2.4,3,4.6,6.3,6.1,9.9C56.9,187.6,56,192.7,51.3,197.1z"/>
	<path d="M384.8,33.6c3.1-7.1,8.1-12.2,14.6-15.6c2-1,4.6-1.3,6.9-1.1c5.2,0.4,6.4,3.3,3.4,7.3c-2.3,3-4.5,6-7.2,8.6
		C396.5,38.2,392,38.3,384.8,33.6z"/>
	<path d="M502.8,63.6c-4.3,5.8-9.9,9.2-16.5,11c-2.4,0.7-5.4,0.4-7.7-0.5c-2.1-0.9-4.1-3-4.9-5c-0.4-0.9,2.1-3.3,3.7-4.5
		c2.1-1.6,4.4-2.9,6.8-4C491,57.5,497.3,57.3,502.8,63.6z"/>
	<path d="M615.4,204.9c-6.6,3.6-13.4,2.1-20.2,0.5c-1.9-0.5-4-1.9-5-3.5c-1.4-2.3-1.8-5.3-2.6-8c2.2-0.6,4.5-1.4,6.7-1.9
		c1.5-0.3,3.1-0.1,4.6,0C607.5,192.5,613.2,196.6,615.4,204.9z"/>
	<path d="M637,362.6c0.1,3.4-1.4,4.5-4.4,2.7c-4.6-2.7-9.1-5.5-13.3-8.7c-4.1-3.1-5.6-8.8-3.5-13c0.6-1.1,2.6-2.3,3.7-2.1
		C628.3,343,636.8,353.5,637,362.6z"/>
	<path d="M292.8,620.2c-0.6,8.2-7.7,17.8-15.4,19.9c-2.2,0.6-5-0.1-7.1-1c-0.8-0.3-1.5-3.2-0.9-4.4c1.4-3,3.3-5.8,5.3-8.5
		C279.3,620.2,285.1,617.1,292.8,620.2z"/>
	<path d="M570.4,484.3c6.5,7.4,12.1,14.4,9.4,24.6c-0.3,1.1-0.7,2.1-1.3,3.1c-2.3,4-4.7,4.2-7,0.2c-2.6-4.7-5.3-9.5-7.3-14.5
		c-0.7-1.8,0.2-4.5,1.2-6.5C566.6,488.9,568.5,487,570.4,484.3z"/>
	<path d="M636,283.9c-7.4,0.7-14.2-0.9-19.6-5.1c-2.7-2.1-4-6.4-5.2-10c-0.8-2.6,1.3-4.5,3.9-3.8c5,1.4,10.1,3.1,14.8,5.4
		C634.9,273.1,636,278.1,636,283.9z"/>
	<path d="M70.4,164c-5.9-4.5-9.1-10.2-10.9-16.6c-1.2-4.2-0.3-8.1,2.6-11.3c2.4-2.7,5-2.3,6.7,0.8c2.3,4.5,4.9,8.8,6.5,13.6
		c0.8,2.2-0.2,5.3-1.1,7.7C73.6,160.2,71.9,161.9,70.4,164z"/>
	<path d="M60.1,180.2c-6-4.2-9.6-10.3-11.9-17c-0.6-1.8-0.4-4.4,0.5-6.1c1.2-2.3,3.1-4.5,5.3-5.7c0.6-0.4,3.5,2.4,4.8,4.1
		c1.7,2.2,3,4.7,4.3,7.2C66.3,169,65.8,174.9,60.1,180.2z"/>
	<path d="M51.6,473.8c-2.2,0-4.6,0.5-6.6-0.1c-3-0.9-6.2-2-8.3-4.1c-1.9-1.8-2.3-5.1-3.4-7.7c2.4-0.6,4.8-1.6,7.3-1.7
		C47.7,460,55,460,60,466.3c1.2,1.5,1.7,3.6,2.6,5.3c-1.9,0.7-3.7,1.6-5.6,2C55.3,474,53.4,473.8,51.6,473.8L51.6,473.8z"/>
	<path d="M368.1,81.2c-0.8,0.6-1.6,1.2-2.4,1.8c-0.3-0.1-0.6-0.3-0.9-0.4c0.7-3.2,1.5-6.4,2.2-9.6c0.4,0,0.8,0,1.2-0.1
		c0.4,1.5,0.8,3,1.2,4.5c0.9,3.3,2.6,6.2,6.2,6.4c1.7,0.1,4.3-0.8,5.2-2.1c0.7-1,0.1-3.8-0.9-5.1c-1.3-1.9-3.5-3.1-5.3-4.7
		c-5.8-5-6.9-10.2-2.8-14.3c4-4.1,9.9-3.2,14.9,2.2c0.8-0.5,1.5-1,2.3-1.5c0.3,0.1,0.6,0.3,1,0.4c-0.6,2.5-1.2,5.1-1.8,7.6
		c-0.4,0-0.9,0-1.3,0c-0.4-1.1-0.6-2.3-1.2-3.2c-1.3-1.7-2.5-4-4.3-4.7c-1.6-0.6-3.9,0.6-5.9,1c0.4,1.9,0.3,4.2,1.3,5.5
		c1.8,2.2,4.4,3.8,6.6,5.7c4.9,4.3,5.6,8.5,2.3,12.7c-3.4,4.2-9.2,4.8-13.9,1.4C370.4,83.7,369.4,82.5,368.1,81.2z"/>
	<path d="M168.4,578c-4.6,6.7-9.9,9.7-15.6,12c-5.2,2.2-9.9,0.5-13.8-3.1c-0.8-0.8-1-3.7-0.5-4.1c5.3-3.8,10.5-8.4,17.4-8.2
		C159.9,574.7,163.9,576.7,168.4,578z"/>
	<path d="M23.5,307.1c-6.9-1.2-12.3-4.4-17-8.6c-3.9-3.6-5.1-8.7-2.9-12.9c0.6-1.1,3-2.3,4-1.9c6,2.4,11.5,5.8,15.1,11.4
		C25.2,298.8,24.6,302.7,23.5,307.1z"/>
	<path d="M613.8,288.5c0.3-3.9,2.6-5.4,5.9-3.8c4,1.9,7.9,4.2,11.9,6c4,1.9,6.1,5.3,7.2,9.2c0.4,1.4-0.1,3.4-0.9,4.5
		c-0.5,0.7-2.6,0.8-3.8,0.4c-4.5-1.5-8.9-3.2-13.2-5.2C616.2,297.4,614,293.4,613.8,288.5z"/>
	<path d="M485.8,52.4c-3.8,6-9.3,9.4-15.3,12.1c-4.4,2-8.6,0.6-12.1-2.3c-2.1-1.7-2.6-3.9,0.2-5.8c2.3-1.6,4.5-3.3,6.8-4.8
		C472.2,47.2,479,46.3,485.8,52.4z"/>
	<path d="M33.2,420.9c-3.5-0.8-8.6-1.6-13.5-3.1c-4.1-1.3-6.5-4.7-7.5-8.8c-0.9-3.8,1.3-5.9,5-5c4.3,1,8.6,2.4,12.9,3.4
		c4.2,1,6.7,3.7,8.3,7.5C40.5,419.3,39.5,420.9,33.2,420.9z"/>
	<path d="M431.1,26c-3.4,7.9-9.3,13.4-17.2,15.9c-2.7,0.8-6.4-1.4-9.6-2.6c-0.4-0.1-0.4-2.7,0.2-3.6c4.1-6.1,9.4-10.7,16.8-12.3
		C425,22.6,428.2,23.3,431.1,26z"/>
	<path d="M208.9,623.2c7.2-13.6,18.5-18.7,28.1-13.7c-2.8,8.7-9.2,14.1-17.4,16.6C216.9,627,212.9,624.3,208.9,623.2z"/>
	<path d="M237.8,632.3c-1.9-0.3-3.2-0.4-4.4-0.8c-4.9-1.4-5.6-3.4-2.3-7.4c2.7-3.2,5.6-6.2,8.7-8.9c3.8-3.4,8.6-3.9,13.4-2.7
		c3.2,0.7,3.9,2.7,1.8,5.1c-3.9,4.4-7.9,8.6-12.1,12.6C241.5,631.5,239.1,631.7,237.8,632.3z"/>
	<path d="M566.6,352c-0.9-1-1.6-1.7-2.3-2.5c0.1-0.3,0.2-0.7,0.3-1c3.2,0.4,6.4,0.8,9.5,1.2c0.1,0.3,0.2,0.7,0.3,1
		c-1.2,0.5-2.4,1.1-3.6,1.6c-3.5,1.2-6.6,3.1-6.7,7.1c0,1.7,1.3,4.2,2.7,5c1.1,0.6,3.9-0.3,5-1.4c2.1-2,3.4-4.8,5.3-7
		c4.2-5.1,9-6.1,13-2.6c4.1,3.6,4.1,9,0,13.8c-0.3,0.3-0.5,0.6-0.9,1.1c0.5,0.8,1.1,1.6,2.2,3.3c-3.4-0.4-6.1-0.7-8.7-1
		c-0.1-0.3-0.2-0.6-0.4-0.9c1-0.6,2.2-1.1,3-1.9c1.9-2,4-4,5.2-6.5c0.4-0.9-1-3.5-2.2-4.2c-1-0.6-3.4,0.1-4.4,1
		c-1.9,1.9-3.3,4.4-4.9,6.7c-4.5,6.4-9.2,7.8-13.9,4.1c-4.9-3.9-4.9-10.5,0-15.8C565.6,352.6,566.1,352.4,566.6,352z"/>
	<path d="M438.9,109.4c-3.8-1.8-8-3.8-12.1-5.8c0.1-0.3,0.2-0.7,0.3-1c1.2-0.1,2.5-0.1,4.4-0.2c-0.2-2.1,0.4-4.9-0.6-5.8
		c-2.1-1.8-5-3.2-7.8-3.7s-3.8,3.6-1.2,8.3c-4-1.9-6.9-3.3-10.2-4.8c10.4-3.9,15.9-12.9,23.7-19.1c1.1-0.9,2.3-1.6,4.4-3.1
		c-0.4,6.6-0.7,11.9-1.1,17.3c-0.2,2.5-0.6,5-0.6,7.5C438.1,102.3,438.6,105.6,438.9,109.4z M432,94.3c0.3-3.9,0.5-7.1,0.7-10.1
		c-2.7,2.2-5.3,4.3-8.1,6.7C427.3,92.1,429.4,93.1,432,94.3z"/>
	<path d="M588.3,152c-6.9,1.3-12.6,2.8-18.5,3.4c-4.9,0.6-10.2-3.4-12.1-8.1c-1-2.4-0.5-4.3,2.3-4.6c5.8-0.5,11.7-1.2,17.5-0.9
		C582.7,142.1,584.5,147.1,588.3,152z"/>
	<path d="M151.6,568.5c-4.8,6.2-11,9.4-18.1,10.7c-4.4,0.8-8.1-1.5-11.2-4.6c-1.7-1.8-1.7-3.5,0.7-4.7c5.2-2.4,10.2-5.4,15.7-6.9
		C143.5,561.8,147.5,565.2,151.6,568.5z"/>
	<path d="M255.9,636.8c-1.1-0.1-2.2-0.1-3.3-0.3c-4.7-0.9-5.6-3.1-2.5-6.9c2.9-3.6,5.9-7.1,9.2-10.3c3.2-3.1,7.1-4.3,11.6-3.2
		c3.6,0.9,4.4,3.1,2.1,6.1c-3,3.8-6,7.7-9.4,11.2c-1.9,1.9-4.7,2.9-7.1,4.3C256.3,637.3,256.1,637.1,255.9,636.8z"/>
	<path d="M111.2,191.2c0.4,1.1,0.7,2.1,1,3c-0.3,0.3-0.5,0.5-0.8,0.8c-2.8-1.9-5.5-3.7-8.3-5.6c0.2-0.4,0.4-0.8,0.5-1.2
		c1.1,0.1,2.3,0.4,3.4,0.4c2.2-0.1,4.5,0.1,6.5-0.6c3.2-1.2,4.9-5.1,3.6-7.4c-2-3.4-4.7-2.8-7.6-1.2c-2.1,1.1-4.1,2.4-6.2,3.4
		c-6,2.8-10.7,1.5-12.8-3.4c-2.1-4.9,0.3-10,5.9-12.4c0.4-0.2,0.8-0.3,1.3-0.5c-0.1-1-0.3-2-0.6-4.1c3,2,5.2,3.5,7.4,5
		c-0.1,0.4-0.2,0.8-0.4,1.2c-1.4,0-2.9-0.3-4.2,0.1c-1.9,0.5-4.4,0.9-5.5,2.3c-1.1,1.4-0.8,3.9-1.1,5.9c1.9,0.3,4,1.2,5.7,0.7
		c2.6-0.8,4.9-2.6,7.4-3.9c6.1-3.2,10.9-2.2,13.3,2.7c2.5,5.1,0.3,10.9-5.2,13.7C113.6,190.4,112.5,190.7,111.2,191.2z"/>
	<path d="M596.6,188.5c-2.4,0-4.8,0.2-7.1,0c-5.3-0.4-9.7-3.9-10.9-9c-0.3-1.3,0.9-4.1,1.5-4.2c9-0.5,18.4-2.1,25.2,6.3
		c1.1,1.4,1.4,3.4,2.1,5.1c-1.6,0.6-3.2,1.4-4.9,1.7C600.6,188.8,598.6,188.5,596.6,188.5z"/>
	<path d="M231.3,37.5c1.8-6.5,3.1-12.3,5.1-17.7c1.6-4.4,5.8-5.9,10.1-6.2c2.6-0.2,4.4,1.4,3.5,4.3c-1.6,5.5-2.7,11.3-5.5,16.1
		c-1.8,3-6.1,4.7-9.6,6.5C234.4,40.8,232.5,38.5,231.3,37.5z"/>
	<path d="M471.3,520.7c0.1-1.1,0.3-2,0.5-4.1c2.2,2.8,3.9,4.9,5.5,6.9c-0.1,0.3-0.3,0.6-0.4,0.9c-1.1-0.3-2.2-0.7-3.3-0.8
		c-2.5-0.1-5.3-0.6-7.5,0.3c-1.3,0.5-2.7,3.6-2.2,4.9c0.5,1.3,3.1,2.5,4.9,2.6c2.7,0.1,5.5-0.9,8.2-1.3c6.9-0.8,10.6,1.4,11.4,6.7
		c0.8,5.8-3.2,10.7-9.5,11.5c-1.1,0.1-2.2,0-3.5,0c0,1.2,0,2.2,0,3.2c-0.3,0.2-0.7,0.4-1,0.6c-2-2.7-3.9-5.4-5.9-8.1
		c0.3-0.3,0.5-0.6,0.8-1c1.3,0.6,2.5,1.2,3.8,1.9c3.2,1.7,6.6,2.3,9.4-0.2c1.3-1.1,2.2-3.7,1.8-5.3c-0.3-1.2-2.8-2.5-4.4-2.7
		c-2.4-0.2-4.9,0.6-7.4,0.9c-7.6,0.9-11.9-1.7-12.2-7.3C459.6,524.6,463.7,521,471.3,520.7z"/>
	<path d="M623.3,245.3c-4.3-0.9-9.1-1.7-13.8-3.1c-4.7-1.4-7.2-5.1-7.8-9.9c-0.3-3,1-5.1,4.4-4.3c5,1.2,10,2.3,14.9,3.9
		c4.3,1.4,6.5,5.3,7.6,9.4C629.8,245.7,626,244.5,623.3,245.3z"/>
	<path d="M147.3,82.2c-1-6.2-2.3-11.8-2.8-17.4c-0.5-5.8,2.8-9.7,7.9-12.2c2.8-1.4,4.8-0.7,5,2.5c0.3,5.6,0.7,11.2,0.4,16.7
		C157.5,77.3,153,79.4,147.3,82.2z"/>
	<path d="M409.5,623.5c0.5-3.1,1-7.8,2.2-12.4c1.3-4.8,4.7-7.9,9.7-8.8c3.6-0.7,5.3,1.2,4.4,4.8c-1.1,4.8-2.5,9.4-3.5,14.2
		c-0.9,4-3.4,6.2-6.9,7.8C411,630.9,409.3,629.9,409.5,623.5z"/>
	<path d="M0,309.2c1.2-2.4,1.6-4.6,2.7-5.1c1.4-0.6,3.7-0.2,5.2,0.6c3.6,2,6.9,4.7,10.5,6.9c4.1,2.6,5.4,6.5,5.6,11.1
		c0.1,2.9-1.7,4.6-4.1,3.5c-5-2.3-10.1-4.8-14.5-8.1C2.9,316.1,1.8,312.2,0,309.2z"/>
	<path d="M389.7,629.3c1.2-4.2,2.5-9.9,4.6-15.3c1.6-4.2,5.7-5.6,9.9-5.8c2.6-0.1,4.2,1.5,3.4,4.4c-1.3,4.5-2.9,9-4.1,13.5
		c-1.3,4.5-4.3,6.9-8.5,8.4C391.3,635.9,389.7,634.8,389.7,629.3z"/>
	<path d="M336,29.1c-7,0.2-8.8-2.8-6.5-7.6c3.7-8.1,9.3-13.8,18.5-15c1.3-0.2,3.1,0.1,4,0.9c0.5,0.5,0.1,2.7-0.5,3.7
		c-2.7,4.5-5.2,9.3-8.6,13.3C340.9,26.9,337.5,28.1,336,29.1z"/>
	<path d="M587.6,269.9c0.7,0.5,1.6,1.1,3.3,2.3c-3.6,0.8-6.2,1.4-8.9,1.9c-0.5-0.7-1.1-1.4-1.6-2.1c1.1-0.4,2.5-0.4,3.1-1.1
		c1.3-1.4,2.6-3.1,3-4.8c0.6-2.7,0.2-5.6-3.1-6.3c-3.1-0.7-4.4,1.7-5.1,4.3c-0.7,2.7-1.2,5.4-2,8.1c-1.7,5.8-5.5,8.3-10.5,7
		s-8.1-6.3-7-11.7c0.3-1.6,0.9-3.2,1.5-5c-0.9-0.4-1.8-0.9-2.7-1.4c0-0.3-0.1-0.7-0.1-1c3.2-0.7,6.5-1.4,9.7-2.2
		c0.2,0.4,0.4,0.9,0.6,1.3c-1.1,0.8-2.6,1.5-3.3,2.6c-1.5,2.4-3.3,4.9-3.5,7.5c-0.1,1.5,2.3,4.1,4.1,4.6c1.2,0.3,3.9-1.8,4.6-3.5
		c1.5-3.2,1.9-7,3.4-10.3c1.9-4.3,5.6-6,9.5-4.9c4.1,1.2,7,5.4,6.5,9.6C588.7,266.5,588.1,268.1,587.6,269.9z"/>
	<path d="M565,287.2c-1.1-0.7-2-1.3-3.9-2.6c4.5-0.6,7.7-1,11-1.4c0.2,0.4,0.3,0.8,0.5,1.2c-1.1,0.8-2.3,1.6-3.4,2.3
		c-3.2,2.1-5.3,4.9-4.1,8.8c0.4,1.5,2.3,3.3,3.8,3.6c1.2,0.3,3.5-1.1,4.3-2.3c1.3-2.1,1.9-4.6,2.8-7c2.6-6.9,7.2-9.7,12.2-7.5
		c5.4,2.3,6.7,8,3.3,14.7c0.7,0.6,1.4,1.3,3,2.8c-3.6,0.4-6.2,0.8-8.8,1.1c-0.1-0.4-0.3-0.9-0.4-1.3c0.9-0.7,2.1-1.2,2.7-2.1
		c1.2-1.8,2.9-3.7,3-5.6c0.1-1.7-1.3-4.4-2.8-5.2c-2.4-1.3-4.1,0.7-5,3c-1,2.6-1.9,5.2-2.9,7.8c-2.5,6.3-6.3,8.5-11.5,6.6
		s-7.7-7.9-5.4-13.6C563.7,289.5,564.4,288.4,565,287.2z"/>
	<path d="M172.5,605.8c6.6-11.2,19.9-15.4,29.1-8.9c-3.7,5.8-8.6,10.2-14.9,12.9C181.1,612.2,176.4,610.2,172.5,605.8z"/>
	<path d="M576.2,135.4c-6.3,1.6-12,3.4-17.8,4.4c-4.8,0.8-8.6-1.7-11.3-5.6c-2.1-3.1-1.2-5.6,2.3-6.6c2.3-0.6,4.6-1.2,6.9-1.7
		C566,124,570.1,125.8,576.2,135.4z"/>
	<path d="M502.2,501.6c-5.2-3.5-9.2-2.8-12.3,2.4c5,5.4,10,11.1,15.3,16.4c1.1,1.1,3.8,0.6,6.5,0.9c-3.7,3.4-7.3,6.8-10.9,10.2
		c-0.4,0-0.8-0.1-1.2-0.1c4.1-6.2-1.2-8.5-4-11.8c-3.3-3.9-6.9-7.6-10.4-11.3c-5.9,3.9-6.1,4.7-4.5,11.8c-1.7-2.1-3.4-4.2-5.3-6.6
		c6.6-6.1,13.9-12.8,21.3-19.7c2,2.2,3.8,4.2,5.6,6.2C502.3,500.6,502.2,501.1,502.2,501.6z"/>
	<path d="M518.9,102.7c12.5-8.9,25.2-8.7,30.5,0.6c-5.2,5.3-12.3,6.9-19.1,7.9C524.8,112,522,106.9,518.9,102.7z"/>
	<path d="M504.1,90.9c7.7-6.4,15.7-10.2,25.4-6.6c1.9,0.7,3.4,2.9,5,4.4c-1.4,1.4-2.5,3.3-4.2,4.2c-3.8,1.9-7.8,3.9-12,4.8
		c-2.7,0.6-5.9-0.4-8.5-1.5C507.7,95.1,506.2,92.9,504.1,90.9z"/>
	<path d="M91.4,545.6c10.8-9.4,22.8-9.4,30.3-0.1c-5.2,4.8-11.8,7-18.5,8C97.7,554.3,94.6,549.7,91.4,545.6z"/>
	<path d="M269.1,10.2c1.3,11.3-3.4,20.5-12.8,24.4c-1.4,0.6-3.7,0-5.2-0.7c-0.6-0.3-0.5-2.6-0.2-3.9c1-3.3,2.2-6.6,3.4-9.8
		C257.6,11.2,259.2,10.1,269.1,10.2z"/>
	<path d="M622.5,224.5c-7.7,2.5-15,1-22-2.1c-1.6-0.7-3.3-2.5-3.9-4.2c-0.8-2.1-1-4.8-0.5-6.9c0.2-0.7,3.5-0.9,5.4-0.8
		c2.9,0.2,5.7,1.3,8.6,1.5C617.6,212.5,621.5,216.5,622.5,224.5z"/>
	<path d="M593,342.2c-0.1-0.1,0.5,0.6,1.9,2.3c-3.7-0.2-6.4-0.4-9-0.6c-0.1-0.3-0.2-0.6-0.3-1c0.8-0.5,1.6-1,2.4-1.6
		c1.5-1.4,3.4-2.5,4.4-4.2c1.3-2.3,1.3-5.1-1.4-6.6c-2.8-1.6-4.7,0.2-6.1,2.6c-1.3,2.3-2.5,4.7-3.9,6.9c-3.3,5.6-7.5,7.1-12.1,4.6
		c-4.8-2.7-6.4-8.6-3.6-13.8c0.7-1.2,1.6-2.3,2.5-3.5c-0.7-0.8-1.5-1.6-3.2-3.4c4.5,0.3,7.7,0.5,10.9,0.6c0.1,0.4,0.1,0.8,0.2,1.2
		c-1.3,0.6-2.6,1.1-3.9,1.7c-3,1.3-5.6,3.3-5.3,6.8c0.1,1.9,1.4,4.7,2.8,5.2c1.4,0.5,4.2-0.8,5.4-2.2c2.6-3.1,4.3-6.9,6.8-10
		c2.1-2.6,5.5-3.6,8.3-1.7c2.3,1.6,4.5,4.4,5.1,7C595.5,335.2,593.9,338.3,593,342.2z"/>
	<path d="M217.1,68.9c7.5-2.7,14.9-5.4,23.1-8.3c0.9,2.6,1.7,4.9,2.5,7.2c-0.3,0.3-0.7,0.6-1,1c-4.2-6.2-8.8-3.1-14-1.2
		c1.1,3.4,2.2,6.6,3.3,9.7c4,0.2,5.8-1.7,5.9-5.6c0.4,0,0.7,0,1.1,0.1c1,2.9,2.1,5.9,3.1,8.8c-3.1-1.5-5.8-3.2-8.6-0.2
		c1.8,9.3,3,10.9,8.2,10.8c0.1,0.4,0.3,0.8,0.4,1.1c-4.7,1.7-9.3,3.3-14,5c4.4-4.4,1.1-8.4-0.1-12.4c-0.9-2.8-1.8-5.6-2.9-8.3
		c-1.3-3.2-1-8.2-7.9-6.1C216.5,70.1,216.8,69.5,217.1,68.9z"/>
	<path d="M82.1,258.8c1.2-3-0.9-4.7-2.8-6.3c-5.6-4.8-11.3-9.5-17-14.3c-1.1-0.9-2-2-3.4-3.5c11.9-2.9,23.7,0.8,35.2-4.6
		c-1.6,4.6-3.1,8.9-4.4,12.6c-1.8-1.4-3.1-3.1-4.6-3.5c-3.2-0.9-3.8,1.7-4.5,4.1c-0.5,1.7-1.6,3.5-1.5,5.2c0.2,3,4.3,3.4,7.2,0.9
		C87.2,253.4,84.9,258.5,82.1,258.8C82,258.7,82.1,258.8,82.1,258.8z M77,247.4c0.9-2.8,1.6-5.1,2.6-7.9c-3.9,0.2-7.1,0.4-11.4,0.6
		C71.6,242.8,74,244.8,77,247.4z"/>
	<path d="M8,384.8c10-1.4,21.5,4,24.7,11.1c1.3,2.7,1.3,5.1-1.5,7.6c-5.7-1.8-12-3.3-17.8-5.9c-2.1-0.9-3.4-4-4.5-6.4
		C8.1,389.4,8.3,387.1,8,384.8z"/>
	<path d="M561.4,531.1c-2.7-5.4-6-10.5-8.1-16.1c-1.6-4.3-0.7-8.9,2.9-12.3c2.7-2.6,5.3-2.2,6.9,1.2c1.5,3.1,2.5,6.5,4.2,9.5
		c2.6,4.8,1.6,9-1.5,13.1c-1,1.3-1.9,2.7-2.8,4.1C562.4,530.7,561.9,530.9,561.4,531.1z"/>
	<path d="M519.3,573.9c-5.1-6.6-6.6-13.1-7-19.7c-0.3-5.1,3.2-8.8,7.7-11c0.8-0.4,3.5,0.9,3.6,1.7c1.2,6.3,3,12.7,2.6,18.9
		C526.1,567,522.1,570.1,519.3,573.9z"/>
	<path d="M630.3,265.9c-6.6-2.2-12.7-3.8-18.4-6.3c-3.7-1.6-4.8-5.7-5-9.6c-0.1-2.7,1.5-4.4,4.3-3.4c5.7,1.9,11.6,3.5,16.7,6.5
		c2.7,1.6,4,5.9,5.4,9.2C633.6,263,631.4,264.6,630.3,265.9z"/>
	<path d="M386.6,11.5c1.2,0.7,3.7,1.4,4.6,2.9c0.6,1-0.9,3.7-2,5.1c-2.9,3.7-6.1,7.2-9.3,10.7c-3,3.3-9.6,3.8-13,1
		c-0.7-0.6-1.3-2.3-0.9-2.8c4.6-6.6,8.8-13.7,17.1-16.3C383.9,11.9,384.8,11.8,386.6,11.5z"/>
	<path d="M543.3,180.4c-2.6,1.7-5.2,3.5-7.6,5.1c-0.3-3.2-0.5-5.8-0.8-8.8c-9.3,4.2-10.5,5.7-10.7,12.1c-2.8-4.1-5.7-8.3-8.5-12.4
		c0.2-0.6,0.3-1.1,0.5-1.7c4.1,5.1,6.9,1.6,9.8-0.4c2.9-1.9,5.9-3.8,8.7-5.9c2.9-2.2,7.8-3.2,4.3-9.4c0.6,0.1,1.1,0.2,1.7,0.2
		c4.5,6.6,9,13.2,13.9,20.3c-2.2,1.5-4.2,2.9-6.8,4.6c0.5-3.3,1.6-5.9,1.1-8.1c-0.6-2.4-2.6-4.4-4.2-6.9c-3.1,2.1-5.8,4-8.5,5.9
		C538.1,179.4,538.1,179.4,543.3,180.4z"/>
	<path d="M632.4,385.3c-8.8-2.1-15.4-7.2-19-15.4c-1-2.2,0.1-6.1,1.5-8.3c1.9-2.8,4.4-0.6,6.4,1c2.2,1.8,4.4,3.5,6.5,5.3
		C634.4,373.7,635.2,376.7,632.4,385.3z"/>
	<path d="M4.7,365c10.9-1.1,21.3,5.3,26.1,15.9c-2,2.5-4.4,3.3-7.6,2.2c-2.7-1-5.6-1.7-8.3-2.7C6.1,377.3,4.6,374.9,4.7,365z"/>
	<path d="M438.5,52.6c5-8.3,12.2-11.6,19.5-13.9c2.8-0.9,6.7,1.6,10.7,2.7c-4.7,7.6-10.2,13-18,14.4
		C447.1,56.5,442.9,53.9,438.5,52.6z"/>
	<path d="M430.5,623.2c-3.3-7-1.8-13.4-0.2-19.7c1-4.2,4-7,8.3-8.1c3.7-0.9,5.7,0.8,5.2,4.5c-0.7,5.1-1.5,10.2-2.5,15.3
		c-0.2,1.2-1.2,2.7-2.2,3.3C436.4,620.2,433.5,621.6,430.5,623.2z"/>
	<path d="M78.7,192.6c2.6,1.4,5,2.6,7.4,3.8c-0.1,0.3-0.1,0.5-0.2,0.8c-2.2,0.3-4.7,0.1-6.4,1.1c-1.7,1.1-2.5,3.5-4.1,5.8
		c7.5,3.5,14.4,7,21.6,9.9c1.2,0.5,3.2-1.2,6-2.4c-2.4,5.1-4.5,9.5-6.5,14c-0.4,0-0.9,0.1-1.3,0.1c1.5-5.5-2.2-6.5-5.6-8.1
		c-5.3-2.4-10.6-5-15.8-7.5c-4.1,4.6-4,5.7,0.9,13.2c-3.5-1.5-5.8-2.5-8.8-3.7C70.1,210.6,74.3,201.8,78.7,192.6z"/>
	<path d="M27.1,363.8c-8.3,0.7-14.3-1.7-19.7-5.1c-4.6-2.9-5.7-7.7-5.4-12.8c0.1-2.4,1.6-3.2,3.8-2.1c5.7,2.8,11.9,5.1,16.9,8.9
		C25.2,354.7,25.5,359.6,27.1,363.8z"/>
	<path d="M83.6,503.3c-6.8,3.7-13.3,5-20.3,4.1c-4-0.5-7.1-2.6-8.9-6.1c-1.6-3.1-0.5-5.6,3-5.9c5.3-0.5,10.5-1,15.8-1
		C78.8,494.4,80.1,499.8,83.6,503.3z"/>
	<path d="M77.4,432.4c-5,3.9-5,7.9-1.1,12.3c6.7-3.4,13.6-6.7,20.2-10.5c1.2-0.7,1.3-3.4,2.2-6c2.4,4.5,4.7,8.9,7,13.3
		c-0.2,0.4-0.3,0.7-0.5,1.1c-4.4-5.2-8.1-1.4-11.8,0.4c-4.8,2.3-9.4,4.8-14.1,7.2c1.3,5.8,2,6.3,10.9,7.4c-3.1,1.7-5.4,3-8.2,4.6
		c-4.6-9-9-17.7-13.7-26.9c2.8-1.3,5.2-2.4,7.5-3.5C76.4,432,76.9,432.2,77.4,432.4z"/>
	<path d="M284.6,51.4c0.5,3.2,0.9,5.7,1.5,9.4c-6.8-6.5-6.9-6.6-12.6-4.3c1.4,7.3,2.6,14.7,4.4,22c0.4,1.5,3,2.5,5.2,4.1
		c-5.2,1-10,1.9-14.9,2.8c-0.4-0.3-0.7-0.6-1.1-0.9c6.3-2.2,4-6.4,3.4-10.2c-1-5.6-2.1-11.2-3.1-16.7c-6.9,0.2-6.9,0.2-10.1,8.7
		c-0.9-3.6-1.5-6.2-2.2-9.3C264.8,55.1,274.3,53.3,284.6,51.4z"/>
	<path d="M456.7,120.7c-4.3-2.7-8.5-5.3-12.6-7.9c6.7,1,7.6-4.7,10-8.2c2.8-4.2,5.4-8.5,8-12.7c-4.1-4.3-4.9-4.4-13.2-0.7
		c1.8-3.1,3.1-5.4,4.7-8.1c8.6,5.4,16.9,10.6,25.5,16c-1.7,2.5-3.2,4.7-4.7,6.9c-0.5,0.1-1.1,0.1-1.6,0.2c2.9-6.3-0.1-9.2-5.2-11.2
		c-4,6.4-8.1,12.6-11.8,19.2C455.1,115.4,456.3,117.9,456.7,120.7z"/>
	<path d="M399.3,587.5c-5.4,1.4-10,2.6-14.6,3.8c-0.4-0.2-0.7-0.5-1.1-0.7c5.9-2.8,3.3-6.8,2.4-10.4c-1.4-5.5-3-11-4.5-16.4
		c-7,0.7-7.9,1.6-8.5,8c-0.4,0.1-0.7,0.3-1.1,0.4c-0.8-2.6-1.7-5.1-2.6-8c9.9-2.6,19.3-5.2,29.1-7.8c0.7,3,1.3,5.5,1.9,8
		c-0.3,0.4-0.6,0.8-0.9,1.1c-2.9-5.3-6.7-6.5-11.9-3.4c2,7.2,3.8,14.6,6.1,21.9C394.2,585.4,396.9,586.1,399.3,587.5z"/>
	<path d="M396.5,59.7c9.6,3.4,18.7,6.5,28.2,9.8c-1,2.7-1.8,5.2-2.7,7.7c-0.4,0.2-0.8,0.4-1.2,0.6c0.3-5.9-1.9-9.4-8.1-9.5
		c-2.4,6.8-5,13.7-7.1,20.7c-0.5,1.6,1.1,3.7,1.9,6.4c-4.6-1.6-9.2-3.2-13.8-4.7c6.9-0.6,6.4-6.6,8.1-10.6c1.8-4.5,3.2-9.2,5.1-14.5
		c-2.6-0.6-5-1.8-7.2-1.4c-1.9,0.3-3.4,2.4-5.9,3.2C394.7,65,395.5,62.6,396.5,59.7z"/>
	<path d="M563.9,451.1c-2.4,4.4-4.9,8.7-7.3,13.1c-0.6,0.1-1.1,0.2-1.7,0.3c2.9-6.2-1.8-7-4.9-8.9c-3.6-2.1-7.3-4-10.9-6.1
		c-2.8-1.6-5.5-3.2-7.8,1.5c-0.3-0.5-0.7-0.9-1-1.4c2.3-4.4,4.7-8.8,7-13.2c0.6,0.3,1.1,0.5,1,0.6c-1.3,4.7,2,6.2,5.2,7.8
		c3.4,1.7,6.6,3.7,9.8,5.5C558.7,453.2,558.7,453.1,563.9,451.1z"/>
	<path d="M590.1,376.9c-1.1,4.8-2.1,9.5-3.2,14.3c-1.1-6.6-6.6-5.5-10.6-6.7c-2.8-0.8-5.7-1.3-8.5-2c-5.8-1.3-5.8-1.3-10.4,2.3
		c1.1-4.9,2.2-9.8,3.3-14.6c0.3-0.1,0.7-0.3,1-0.4c-0.2,6.2,4.3,6.1,8.1,6.9c3.5,0.8,7.1,1.5,10.6,2.4c3.4,0.9,6.8,1.9,8.7-3
		C589.4,376.3,589.7,376.6,590.1,376.9z"/>
	<path d="M564.9,306.3c2,6.1,6.9,3.9,11,3.9c3.6,0,7.2-0.5,10.8-0.4c3.4,0.1,6-0.5,6.2-5c0.4,0.2,0.8,0.4,1.2,0.6
		c0,4.9,0,9.8,0,14.7c-1-5.2-5.1-4-8.5-3.9c-3.6,0-7.3,0-10.9,0.4c-3.5,0.4-8.3-1.3-8.6,5.8c-0.4-0.4-0.8-0.8-1.3-1.2
		C564.9,316.1,564.9,311.2,564.9,306.3z"/>
	<path d="M314.8,373.9c-3.3-2.4-5.9-3.9-7.9-5.9c-1.1-1.1-1.5-3.2-1.5-4.8c-0.1-17.9-0.1-35.8-0.1-53.7c0-1.9-0.2-3.9-0.3-6
		c-3.4,0-6.4,0-9.9,0c0,17.6,0,35,0,52.4c-5.1-4.4-10.2-8.1-9.7-15.9c0.7-10.7,0.2-21.5,0.2-32.3c0-1.4,0-2.7,0-3.8
		c-0.5-0.3-0.7-0.4-0.8-0.5c-9.4-1.3-9.4-1.3-9.4,7.9c0,5.2,0,10.3,0,15.5c-5.8-10.8-9.3-22.2-10.1-34.5c4.1,0.8,3.7,3.2,1.9,6.7
		c2.2-1.2,3.3-1.8,4.5-2.5c1,0.6,2.1,1.2,2.9,1.7c0.7-2.3,1.3-4.6,1.9-6.6c-1.4-1-3.4-2.5-4.8-3.5c-1.5,1-3.3,2.3-6.2,4.3
		c0-5.5,0-9.5,0-13.7c3.8,0.7,3.4,3.1,1.5,6.7c2.2-1.2,3.3-1.9,4.6-2.6c1,0.6,2.2,1.3,2.8,1.7c0.7-2.3,1.3-4.6,1.9-6.5
		c-1.4-1.1-3.3-2.5-5.2-4c-0.6,2-1.8,4.5-6,2.5c0.8-4.4,1.6-9,2.3-12.4c10.1-0.5,19.5,0,28.5-1.6c7-1.2,13.5-4.9,20.1-7.9
		c2.3-1.1,4-1.6,6.2-0.4c1.1,0.6,2.3,0.9,3.4,1.5c14.6,7.9,30.3,10.1,46.6,9.6c0.7,0,1.4,0,2.1,0.1c0.4,0.1,0.8,0.3,1.3,0.5
		c1.2,20.6-1.7,40.5-11.7,59.3c0-7.1,0-14.2,0-21.4c-3.6,0-6.5,0-9.9,0c-0.2,1.6-0.5,3.1-0.5,4.7c-0.1,8.9-0.7,18,0.2,26.8
		c0.9,8.7-3.7,14.1-9.4,20.2c0-17.7,0-34.6,0-51.8c-3.5,0-6.5,0-10,0c-0.1,1.6-0.2,3.2-0.2,4.8c0,16.5-0.5,33,0.2,49.5
		c0.3,7.6-2.8,11.9-9.4,15.7c0-23.5,0-46.7,0-70.1c-3.7,0-6.7,0-10.1,0C314.8,326.7,314.8,349.7,314.8,373.9z M322.5,269.9
		c0.7-1.9,1.5-4.1,2.1-5.8c-1.6-1.1-3.5-2.4-4.9-3.4c-1.7,1.1-3.7,2.4-4.8,3.1c0.6,2.4,1.2,4.7,1.7,6.4
		C318.3,270.2,320.5,270,322.5,269.9z M370.7,297.4c0.6-2,1.4-4.2,2.1-6.5c-0.7-0.1-2-0.2-3.2-0.3c-0.7-1.2-1.2-2.3-1.4-2.7
		c-2.2,1.4-4.1,2.6-5.4,3.4c0.7,2.2,1.4,4.5,1.9,6.1C366.7,297.4,368.9,297.4,370.7,297.4z M319.1,287.7c-0.3,0.7-0.8,1.9-1.2,2.9
		c-1.5,0.2-2.7,0.4-3.1,0.4c0.7,2.6,1.3,4.9,1.7,6.4c2.2,0,4.5,0,6,0c0.7-2,1.6-4.3,2.1-5.8C322.9,290.4,321.1,289.1,319.1,287.7z
		 M295.8,274.2c-1.7,1.3-3.6,2.6-5.5,4c0.7,0.6,1.6,1.4,2.5,2.2c-0.3,1.4-0.5,2.7-0.9,4.6c1.6-1,2.8-1.7,3.8-2.3
		c1.3,0.8,2.4,1.5,3,1.8c0.7-2.4,1.3-4.7,1.8-6.4C298.8,276.7,297.1,275.3,295.8,274.2z M299.2,297.5c-1.8-2.3,0-4.3,2.9-6.3
		c-2.1-0.2-3.4-0.3-4.7-0.4c-0.6-1.3-1.1-2.4-1.3-2.9c-2.2,1.5-4.1,2.7-5.4,3.6c0.7,2,1.4,4.2,2,6
		C294.6,297.5,296.9,297.5,299.2,297.5z M343.6,296.4c1.2,0.7,2.3,1.3,2.8,1.5c0.9-2.4,1.7-4.7,2.5-7.1c-3.3,1.4-4.1-1.4-4.8-3.2
		c-1.9,1.4-3.8,2.9-5.3,3.9c0.6,2,1.2,4.3,1.9,6.6C341.5,297.7,342.5,297.1,343.6,296.4z M372.4,277.9c-1.5-1.1-3.3-2.5-4.6-3.5
		c-1.7,1.2-3.6,2.5-5.5,3.9c0.7,0.6,1.6,1.4,2.5,2.2c-0.3,1.4-0.6,2.7-0.9,4.6c1.7-1,2.8-1.7,3.8-2.3c1.3,0.7,2.4,1.4,3,1.7
		C371.3,282.2,371.9,279.9,372.4,277.9z M346.5,284.4c0.7-2.5,1.4-4.8,1.9-6.4c-1.5-1.2-3.4-2.7-4.7-3.8c-1.5,1.1-3.4,2.6-4.7,3.6
		c0.6,2.2,1.2,4.4,1.8,6.6c0.7-0.4,1.8-1.1,2.9-1.8C344.9,283.5,346,284.1,346.5,284.4z M315,277.8c0.5,2.1,1,4.5,1.6,6.8
		c0.8-0.5,2-1.2,3-1.9c1.4,0.7,2.5,1.3,4,2.1c-0.4-1.8-0.7-3-1.1-4.6c1-0.7,2.1-1.4,2.7-1.8c-2.3-1.7-4.1-3.2-5.4-4.1
		C318,275.6,316.3,276.9,315,277.8z"/>
	<path d="M316,159.1c4.1,3.4,8,6.7,12.2,10.2c-4.3,2.6-7.6,1.8-10.7-0.9C314.6,165.8,313.7,162.9,316,159.1z"/>
	<path d="M305.5,210.1c1.9,4.5,1.8,4.7-1.9,8.4C300.4,215.9,300.4,215.9,305.5,210.1z"/>
	<path d="M472.4,316.6c-4.2-3.4-5.5-9.2-2.8-12.7C472.5,306.3,474.1,313.7,472.4,316.6z"/>
	<path d="M479.2,337.1c-3.9-1.1-5.6-6.2-4.6-12c0.4-0.1,0.7-0.2,1.1-0.4C476.8,328.7,478,332.6,479.2,337.1z"/>
	<path d="M485.3,364.3c0.7,2.6,3.4,5-0.4,8c-0.4-2.6-0.8-5.2-1.2-7.8C484.3,364.4,484.8,364.3,485.3,364.3z"/>
</g>
</svg>
