<svg xmlns="http://www.w3.org/2000/svg" viewBox="0 0 639.4 644.4" style="enable-background:new 0 0 639.4 644.4" xml:space="preserve"><path d="M331.5 4.9c2.8 9.8-8.7 22.4-17.1 23.3-1.8.2-4.1-.2-5.3-1.4-.7-.7 0-3.3.6-4.9 2.8-6.9 6.7-13 13.3-17.1 2.9.1 5.7.1 8.5.1zm-21.8 0c.1 1.7.6 3.6.1 5.2-1.3 3.8-2.7 7.7-4.6 11.2-2.5 4.5-6.3 7.5-11.6 8.1-3.8.5-5.5-1.7-4.3-5.3 1.1-3.3 1.9-6.9 3.8-9.7 2.5-3.5 6-6.3 9-9.5h7.6zm48 173.4c-2 .4-3.5.8-5 1.1-5.6.9-6.2 1.8-4.7 7.2 3.3 12 6.6 23.9 9.9 35.9 2.2 7.9 4.3 15.9 6.3 23.9 1.2 4.7 5 6 9.4 2.9 10.2-7.1 16.6-16.9 19.1-29 1.5-7.1 2.6-14.3 3.5-21.5 2.3-18.7 19-26.5 34.8-16.1 7 4.6 11.6 11.2 14.8 18.8 16.3 39.1 31 78.7 40.3 120.1 4.8 21.2 11.3 42.1 17 63.1.2.7.5 1.4.5 2-.2 2.9.4 7.8-.9 8.4-2.8 1.2-7 1.1-9.8-.1-4.9-2.2-9.1-6-13.8-8.6-2-1.1-4.6-1.6-6.9-1.4-3.4.3-6.1-.2-8-3.1-1.6-2.4-3.1-5-5.1-7.2-1.6-1.8-3.7-3.1-5.7-4.7-2.1-1.6-4.8-2.9-6.1-5-2.2-3.8-3.3-8.3-5.4-12.2-1.5-2.7-3.5-5.9-6-7-5-2.2-7.5-5.8-8.4-10.7-.9-4.9-2.4-8.2-8.2-6.9-1 .2-2.6-.1-3.1-.8-4.5-5.5-10-2.5-14.4-.8-4.9 1.9-9.1 5.8-13.4 9.1-3.9 2.9-7.3 6.5-11.3 9.2-3.3 2.3-4.3 4.7-2.9 8.5 1.6 4.3 3.1 8.7 3.8 13.3.6 3.7.1 7.7-.2 11.5-.8 9.9-4.8 19.5-1 29.7 1 2.7-.4 6.4-.9 9.6-.1.9-1.1 1.9-.8 2.7 1.7 5.7 3.5 11.5 5.6 17.1.3.7 2.9 1.3 3.8.8 6.8-3.7 13.5-7.7 20.4-11.7-1.6-2.6-2.9-4.9-4.6-7.8 8.5-1.2 16.5-2.3 25.8-3.5-5.7 7.5-10.7 14.1-16.1 21.2-1.2-2.6-2.2-4.7-3.4-7.3-6.8 4-13.5 7.8-20.1 11.7.1.5.2 1 .3 1.6 10.3 4.9 21.3 1.5 32.4 2.7v-9.6c7.9 3.9 15.3 7.4 23.5 11.4-8.6 3-16.3 5.7-24.7 8.6.2-2.7.4-4.9.6-7.3h-25.4c-.9 3.2.4 5.4 3.2 6.8 5.1 2.6 10.3 5 15.9 7.8 1-2.2 2-4.3 3.3-7 4.7 6.1 9 11.9 14 18.4-8.6-.5-16.2-1-24.6-1.6 2-2.6 3.7-4.6 5.6-7.1-5.8-3-11.3-5.8-17-8.7-1.6 4.2-4.9 5.1-8.2 6.9-4.8 2.6-9.9 3.3-14.7 5.2-1.6.6-2.4 2.9-3.7 4.3-2.1 2.1-3.9 4.9-6.5 6-8.3 3.2-16.6 6.6-25.9 5-.6-.1-1.6-.2-2 .2-3.8 4.1-7.6 1.9-11.7-.1-2.9 3.3-6.1 4.2-9.4-.4-4.4 3.6-8.6 3.4-12.8-.5-.7-.6-2.6-.5-3.7-.1-3.3 1.3-5.8.5-8.3-2-1.1-1.1-3.3-1.8-4.9-1.6-3.8.5-6.4-.7-8.6-3.8-1-1.3-2.8-2.5-4.4-2.9-6.3-1.3-8-3.3-7.7-9.8.2-4 .4-8 .7-12.8-7.4 3.7-5.8 11.3-9.6 16.1-5.3-3.1-10.9-6-15.9-9.5-3.2-2.3-5.9-3.4-9.4-1.1-.6.4-1.5.5-2.8.9.7-2.6 1.2-4.6 1.9-7-9.8-4.2-17.7 5-27.3 2.8 1.4-3.8 3-7.8 4.7-12.4h-14.7c1.8-3.1 3.2-5.5 4.9-8.3-4.9-1.4-9.4-2.6-14.3-4 1.1-2 2.1-3.9 3.4-6.2-6.3-.6-12.9 0-15.7-7.6 2.3-1.2 4.4-2.3 6.8-3.5-2.2-5.8-4.3-11.4-6.4-17.1.3-.3.6-.6.9-1 6.2 2.5 12.4 5.1 19.3 7.8-.8-3-1.5-5.5-2.2-8.1 8.3-1.8 10.9 5.1 15.3 9.8 2.1-4.7 4.1-9.1 6.3-13.8 4.3 6.1 1.5 15.1 10.4 19.2-1.5-4.3-2.8-7.8-4.3-12.1 6.9 1.5 9.9 7 14.3 11.7.6-3.1 1.2-5.7 1.7-8.2.4-.1.7-.2 1.1-.3 3.9 6.2 7.7 12.3 12.1 19.3 1.3-3.8 2.4-6.9 3.7-10.5 4.8 5 8.3 10.1 9.4 16.7.9 5.2 3.1 6.9 8.7 6.7 4.6-.2 5.6-3.9 5.4-7.1-.4-7.4-1.4-14.7-2.6-22-.8-5.1-2.6-10-3.4-15.1-.6-4.1-.4-8.3-.3-12.5.2-5.3.9-10.6 1.2-15.9.6-10-2.5-15.3-11.8-18.8-6.6-2.5-13.5-4.4-20.4-6.3-4.5-1.3-8.8-.4-12.9 2-7.6 4.7-14.8 9.6-21.2 16.2-7.1 7.4-15.9 13.1-24.6 19.1 13.6-26.4 16-55.7 24.7-83.2-.4-.2-.8-.5-1.2-.7-.9 1.3-2.2 2.4-2.7 3.8-2.5 7.3-5.3 14.3-6.5 22.2-2.9 18.8-8.9 36.9-16.9 54.2-.7 1.4-.6 3.2-.9 4.8.4.3.9.7 1.3 1-5.5 2.5-11 4.9-16.4 7.6-2.2 1.1-4.1 2.9-5.7 4.7-4.2 4.6-5.3 5.1-12.4 4.6.3-2.6.1-5.2.8-7.7 12.6-41.5 25.3-83 38-124.5 5.9-19.4 12.6-38.5 22.7-56.2 2.1-3.6 4.2-7.3 6.7-10.7 8.4-11.7 25-14.5 36.4-5.6 3.1 2.4 5.7 6.3 7 10 6.4 17.6 12.4 35.3 18.5 53 .4 1.3.9 2.5 1.4 3.7.5.1.9.2 1.4.3.9-2.1 2.3-4.2 2.7-6.4 1.6-8.8 7-15.4 12.3-22 4.7-5.9 9.5-11.7 14.1-17.7 7.8-10.1 7.2-18.5-2-27.4-1.7-1.7-3.4-3.3-5.1-5-5.6-5.9-6.1-7.9-3.4-15.6-3 .4-5.8.8-8.7 1.1-1.9-3.8-1.9-7.5.6-10.8 3-3.9 7.2-4.6 11.7-3.8 2.6.5 5 1.9 7.5 2.5 4.7 1.1 9.4 1.9 14.1 2.9 2.3.5 4.8.7 6.7 2 12 8.4 23.8 17.1 35.7 25.7.4 0 .8.4 1.8 1.3zM276.9 259c-3.1 0-6.2.2-9.2-.1-2.8-.2-3.8.9-4.5 3.5-3.6 13.9-3.8 27.9-.8 41.9 6.9 32.9 25.4 57.4 53.9 74.8 3 1.8 5.7 2 8.5 0 6-4.4 12.3-8.3 17.8-13.2 16.8-14.8 26.1-34.1 32.6-55.1 4.6-14.7 6.4-29.6 4.5-45-.5-4-2.3-5.4-6.3-5.3-6.4.2-12.9.3-19.2-.4-10.8-1.2-20.6-5.5-29.7-11.6-2.3-1.6-4.6-2.6-7.2-.6-12.1 9-25.7 11.9-40.4 11.1zm16.4-91.8c-.5.6-.9 1.1-1.4 1.7 2.8 2.3 5.6 4.5 8.3 6.8 9.8 8.2 11 19.5 3.2 29.7-6.5 8.5-13 17.1-19.5 25.7-1.2 1.6-2.4 3.3-3.5 5 .2.3.5.7.7 1 4.6-2.5 9.2-5 14-7.6.6 1.8 1.1 3.3 1.6 5 3-3.2 5.7-6.1 8.8-9.4.6 2.1 1 3.6 1.5 5.3 2.6-.6 3.5-5.6 6.7-2 6.9-7.2 2.6-16.1 3.9-23.9h1.5c.6 7.9 1.3 15.7 2 24.9 2.7-2.8 4.5-4.8 6.5-6.8.7 1.9 1.1 4.7 1.8 4.8 5.2.7 3.3 5.2 4.6 7.8.4.9.7 1.8 1.4 3.8 1.1-4.4 1.9-7.7 2.9-11.5 1.6 2.6 2.8 4.5 4.3 7 1.2-3.5 2.2-6.2 3.3-9.4 3 3.8 5.6 7.2 8.8 11.3-.1-1.6 0-2.1-.1-2.6-3.8-17-7.6-33.9-11.6-50.9-.8-3.2-1.2-5.9 2.8-7.7-4.7-2.7-8.9-4.9-12.9-7.4-3.4-2.2-6.8-4.6-9.9-7.2-1.9-1.6-3.1-3.9-4.6-5.9-2-2.6-4.3-3.3-7.7-2.6-2.9.6-6.3 0-9.2-.8-3.3-.9-6.3-2.9-9.6-4.1-4.2-1.4-6.9.4-8.3 5.2 9.9 1.1 14 9 19.5 16.6-3.7-.8-6.8-1.3-9.8-1.8zm170.8 98.4c-.3.1-.7.3-1 .4.5 5.2 1.1 10.4 1.6 15.6-.2.1-.5.1-.7.2-1.4-2.2-2.8-4.3-4.2-6.5-.4.1-.8.2-1.2.4 0 1.1-.2 2.3 0 3.3 1.2 5.7 2.4 11.4 3.8 17.1 7.4 29.2 13.4 58.8 24.3 87.1 1.3 3.3 3.4 6.3 5.7 10.5.8-2.6 1.1-3.8 1.6-5.2 2.4 2.2 4.4 4.1 6.5 6-1.6-6.1-3.8-11.8-6.2-17.4-1.3-3-3-5.9-4-9-.9-2.6-.8-5.5-1.5-8.1-4.1-16.8-8.3-33.6-12.5-50.4-3.5-14-7-28-10.6-42-.2-.9-1.1-1.4-1.6-2zm-282.3 4.2c-.5 0-1.1.1-1.6.1-2.6 7-5.6 13.9-7.6 21.1-3.7 12.9-7 26-10.2 39.1-3.9 16.2-9.4 31.9-16.8 46.9-1.1 2.3-1.8 4.9-2.7 7.3.4.3.8.5 1.2.8 1.2-1.5 2.7-2.9 3.6-4.6 3-6.1 6.5-12.1 8.5-18.5 5.7-17.9 10.8-36 16.1-54 3.3-11.3 6.4-22.7 9.6-34.1.2-1.3-.1-2.8-.1-4.1zm67.7 187.6c.1-7.2 3.5-12.4 9.4-15.9 6.9-4.1 12.1 1.3 18.1 4.1-.2-1.3-.2-2.1-.4-2.9-1.5-6.4.6-12.4 2.6-18.2 1.5-4.5 1.9-5.4-2.9-7.7-.9 4.3-1.8 8.5-2.6 12.7-.7 3.5-2.2 5.7-6.2 5-1.4-.3-2.8-.5-4.1-.6-7.8-.5-15.8-1.8-21.7 5.4-3.2 3.9-4.5 8.2-3.2 11.8 4.2-4.6 5.7-12.6 15.2-12.2-4.2 6.2-9.3 11.4-4.2 18.5zm203.4-178.2c-.5.1-1 .2-1.5.2-.1 1.2-.4 2.5-.2 3.7.6 3.3 1.3 6.5 2 9.8 6.5 28.6 12.6 57.3 22.7 84.9 1.1 3.1 3.2 5.8 4.9 8.7.4-.2.9-.4 1.3-.6-.4-2.1-.6-4.3-1.4-6.3-2.3-6-5.2-11.9-7.3-18-2.2-6.8-3.9-13.9-5.5-20.9-3.1-13.6-5.8-27.4-9-41-1.6-7-4-13.7-6-20.5zm15.8 104.6c.7-.4 1.3-.7 2-1.1-2.6-6.7-5.2-13.3-7.6-20-1.2-3.2-2.4-6.5-3.1-9.9-4.3-21.1-8.5-42.2-12.8-63.3-.4-1.8-1.4-3.5-2.2-5.3-.5.1-1 .3-1.4.4.4 2.9.6 5.9 1.2 8.7 5.2 26.7 9.7 53.6 18.4 79.6 1.3 3.8 3.7 7.2 5.5 10.9zm-247.6-68c-2.2-9.4 5.1-17.8 1.8-26.9-5 16.7-7.5 34.1-16.8 49.3.5.3 1 .6 1.6.9 2.8-3.3 5.6-6.7 7.5-9 1.7.3 2.9.8 3.2.5 1.5-1.6 3.5-3.1 4.2-5.1 3.3-9.4 6.2-19 9.2-28.5.7-2.1.8-4.4 1.1-6.7-.5-.1-1.1-.3-1.6-.4-1.9 5.7-4.1 11.2-5.5 17-.9 3.3-.9 6.7-4.7 8.9zm167.6 142c1.5-7.1-1.1-12.8-7.7-15.4-5.4-2.1-7.8-5.8-8.8-11-.3-1.8-.6-3.6-1.3-5.3-.9-2.3-.7-6.5-4.8-5.3-4.3 1.3-1.4 4.4-.6 6.6 2.8 7.8 4.2 15.4.8 23.5-1.9 4.6.1 8.7 4.3 11.7V447c3.3 5 1.5 11.9 7.3 16.1-.8-6.5-1.6-12.4-2.4-18.7 6.8 1.5 7.6 2.3 13.2 13.4zm-231.9-81.4c.5.2 1 .3 1.5.5 15-29.9 24.5-61.6 29.4-94.8-1.3.7-2.2 1.6-2.5 2.7-3.9 13.8-7.5 27.6-11.5 41.3-3.4 11.7-4.6 24-10.6 35-2.6 4.9-4.2 10.2-6.3 15.3zm296.9-7.5c.4-.2.9-.5 1.3-.7-.4-1.2-.8-2.5-1.3-3.7-6.9-17.3-10.3-35.5-12.3-53.9-.8-7.3-1.1-14.7-6-21-.4 2.4-.6 4.7-.4 7.1.3 2.9.9 5.8 1.4 8.6 3.2 18.8 5.9 37.7 12.6 55.7 1 2.8 3.1 5.3 4.7 7.9zm-247.8-79.3c-.6-.1-1.2-.1-1.8-.2-3.1 12.4-5.8 25-9.6 37.2-3.8 12.3-8.8 24.2-13.4 36.8 5.3-2.3 7-6.8 8.3-11.3 5.5-19.1 11-38.1 16.3-57.3.6-1.6.2-3.4.2-5.2zm9.2 1.2c-3.9 1.8-5.8 4.6-6 8-.2 2.8 0 5.6-.6 8.3-2.9 13.6-6.1 27.1-12.2 39.7-.5 1-.8 2.2-1.1 3.3.4.2.9.5 1.3.7 1.9-3 4-5.9 5.5-9.1 7.9-15.9 8.5-33.6 13.1-50.9zm88.2 130.6c-.6-.1-1.1-.2-1.7-.4-1.1 3.4-2.2 6.8-3.2 10.2-3.8 13.2-8.9 26.1-9.3 40.1-.1 2.6.5 5.2.8 7.8 4.4-9.4 3.1-19.5 6.6-28.9 3.4-9.2 4.6-19.2 6.8-28.8zm132.2-80.9c-3.1-16.6-6.3-33.6-9.7-51.4-4.8 8.2 3 45 9.7 51.4zm-123.8 86.4c-.5 0-1-.1-1.5-.1-4.6 16.7-9.7 33.3-8.9 51 .1 1.3 1 2.6 1.6 4.2 3-18.8 5.9-36.9 8.8-55.1zm-84.3 2.6c-5.8-.2-9.9 1-13.1 4.1-1.9 1.7-4.3 4.2-4.2 6.3.1 2.3-.9 3.3-2 4.6-.8.9-1.6 1.8-2.4 2.8 11-.9 14.7-10.3 21.7-17.8zm92 .9c-.5-.1-1-.1-1.5-.2-.3.9-.8 1.8-.9 2.8-1.6 14.1-3.3 28.2-4.6 42.3-.2 2.2 1.1 4.5 1.7 6.7 1.2-1.2 1.8-2.3 1.7-3.2-.8-5.4.5-10.8.2-16.2-.4-7.9 1.7-16 2.6-24 .3-2.8.5-5.5.8-8.2zm-146.2-32.9c.9 11.2 9.3 18.2 18.6 15.4-3.6-2.7-7-5.2-11.1-8.2h5.3c.1-.3.1-.5.2-.8-4.2-2-8.4-4.1-13-6.4zm43.3 27.7c-9.7-.9-14.8 4.6-19.6 10.7 7.5-1 15.4-.7 21.1-8.3-2.2.3-3.6.5-5.7.9 1.5-1.2 2.4-2 4.2-3.3zm205.1-100.3c.3-.1.7-.2 1-.3-.5-4-.8-7.9-1.4-11.9-.9-5.9-2-11.7-3.2-17.5-.3-1.6-1.3-3.1-2-4.7l-1.5.6c.1 11.8.9 23.4 7.1 33.8zM227 329.8c9-11.1 12.3-22.9 12.5-36-1.7 1.6-3.2 3.5-3.6 5.6-1.8 9.7-3.6 19.4-8.9 28-.2.2 0 .7 0 2.4zm-5.9 115.6c.6.5 1.2.9 1.8 1.4 4.9-4.5 9.9-9 15.4-13.9-4.5-2.1-7.7-2-10.4.5-3.7 3.2-5.9 7.3-6.8 12zm131.9-30c2.7 4.9 8 5.7 15 2.4 5.8-2.7 6.7-5.5 3.7-12.9-1.9 12-11.2 9.4-18.7 10.5zM246.1 298.8c-4 11-7.6 21.1-11.7 32.3 7.9-6.3 13.9-23 11.7-32.3zm46.2 111.4c-8.8 4.5-14.3-1.3-20.4-5.8-.9 5.3.3 8.1 4.6 9.6 3.1 1.1 6.4 1.7 9.7 2.1 3.5.4 5.5-1.4 6.1-5.9zm-107.7 16.6c8.6.8 15.6-2.2 23.2-5-7.6-4.8-17.6-2.6-23.2 5zm60.7-95.2c.4.2.8.4 1.1.6.5-.4 1.2-.6 1.4-1.1 2.8-8.1 5.5-16.2 8.1-24.3.3-.9-.6-2.1-.9-3.2-.4 0-.8.1-1.2.1-2.8 9.3-5.6 18.6-8.5 27.9zm144.9-1.4c2.1-8.3-1.8-26-5.9-27.4.5 9.2.8 18.2 5.9 27.4zm-97.9 90.6c-.5-.1-.9-.3-1.4-.4-3.2 9.1-6.5 18.1-9.9 27.6h4.1c3.3-9.1 6.5-17.9 7.2-27.2zm33.8 8.8c-.6.1-1.3.2-1.9.3.4 10.4 2.6 20.7 4.8 31.1 1.1-1.1 1.9-2.3 1.7-3.5-.9-6.3-2.1-12.6-3.1-18.9l-1.5-9zm-4.3-4.8c2.4-4.2 4.1-7.3 6-10.4 1.5 2.8 2.9 5.3 4.8 8.7 1.8-3.3 3-5.5 4.2-7.8-2.2.1-4.3.8-5.8.1-1.5-.6-2.4-2.6-3.6-4.1-1.7 2.2-3.6 4.5-5.5 7-1.7-2.3-3.2-4.4-4.7-6.4-.3.2-.7.4-1 .6 1.6 3.8 3.3 7.4 5.6 12.3zm87.2-103c.3-9.2-2.2-18.1-4.7-26.9-3.1 6.7.1 22.5 4.7 26.9zm-177.7 101c-1.7-8.8-5.5-15.5-11.9-20.6 3.4 6.9 2.4 16.3 11.9 20.6zm173.9-2.3c2 3.5 3.6 6.3 5.6 9.7 3.1-4 5.8-7.5 9.1-11.9-5.6.9-9.8 1.5-14.7 2.2zm14.6-189.4c-2.8-.9-5.1-1.6-7.3-2.3-.2.4-.3.7-.5 1.1 2.3 1.6 4.6 3.2 7.1 4.7 2.6 1.6 3.6.4 3.5-2.3-.2-3.1-.2-6.1-.5-9.2-.3-3.9-.7-7.7-1.1-11.6-.4 0-.7 0-1.1.1-.1 6.3-.1 12.7-.1 19.5zm2.6 208.7v10.8c4.3-1.5 8.2-2.9 13.1-4.6-5-2.3-8.8-4.1-13.1-6.2zm-38.8-103.4c-1.4-8.8-2.7-16.9-4-25.1-3.8 6.9-1.5 19.5 4 25.1zm-192.9-61.6c1.1-4.7 2.1-9.2 3.1-13.7-.3-.1-.6-.3-.9-.4-1.5 2.3-3.1 4.6-4.9 7.4-1-3.2-1.8-5.8-2.7-8.6-2.9 6.3-1.3 11 5.4 15.3zm208.5 50c-1.4-19.2-1.7-20.4-6.3-22.2.8 7.8.2 15.5 6.3 22.2zM283.4 457c-2.9-6.3-13.9-12-19.8-9.7 6.5 4.4 13.3 6.6 19.8 9.7zm-35.1-45.1c-3.6 4.1-3.7 6.2-2 10.8 1.4 3.7 4.4 3.5 7.9 4.1-2.1-5.3-4-10-5.9-14.9zm-24.6-202.4h-1.3c-.4 7.4-1 14.9-1.3 22.3-.1 2.3 1.4 3 3.3 2 2.1-1.2 4-2.8 6.3-4.4-6.8-1.1-6.8-1.1-7-8-.1-4.1 0-8 0-11.9zm194.8 43.3c2.3 5.3 5.7 9.4 12.2 10.4-.9-5.5-1.8-10.6-2.6-15.8-.5 0-.9.1-1.4.1v11.1c-3.3-2.4-5.7-4.1-8.2-5.8zm-206.6 28.8c-.4-3.9-.7-7.2-1.1-10.6h-1.1c-.8 4.8-1.5 9.7-2.3 14.6 6.2-.7 9.4-3.3 10.9-8.4-2.1 1.5-4.1 2.8-6.4 4.4zm-1.1-32.8c-.2-.2-.4-.5-.6-.7-1.9 1.2-3.7 2.3-5.9 3.7-.4-2.5-.7-4.4-.9-6.3-.2-1.8-.3-3.7-.4-6-3.1 6.3-2.3 14.2 1.8 18.8 2-3.2 4-6.3 6-9.5zm223.7-37.2c-.4 0-.7-.1-1.1-.1-.1 1.7-.3 3.4-.4 5.1-.3 7-.2 7-7 7.8 2 2.5 3.8 4.8 5.8 7.4 3.9-6.9 3-13.6 2.7-20.2zm8.4 32.7c-.5-.1-1-.2-1.6-.3-.7 2.9-1.5 5.9-2.3 9.1-2.2-1.7-4.1-3.2-5.9-4.6 1.2 3.6 3 6.6 5.1 9.3.4.5 3 .1 3-.2.7-4.4 1.2-8.9 1.7-13.3zm-245.8 19.9c-3.2 6-2.9 13.2 1.1 17.5 2.3-2.7 4.6-5.4 6.9-8-.2-.2-.4-.5-.6-.7-2 1-4 2.1-6.2 3.2-.4-4.2-.8-8-1.2-12zm227.5 13.7c3.5 6.5 6.1 8.3 11.6 8.4-.8-4.9-1.6-9.7-2.3-14.6-.9 1.7-1.2 3.4-1.4 5-.2 1.8-.3 3.5-.5 5.7-2.4-1.4-4.5-2.7-7.4-4.5zm-97.2 204.8c5-5.6 5.1-15.4 0-20.4v20.4zM210.2 210.2c-.4 0-.7.1-1.1.1.1 6.7-1.5 13.7 2.8 20.4 2-2.7 3.8-5.1 6-8.1-2.8.4-4.5.7-6.1.9-.5-4.6-1-9-1.6-13.3zm5.8 39h-1.2c-.5 4.2-.9 8.4-1.4 13 6.1-1.3 9.5-4.7 11.2-10.1-2.4 1.6-4.8 3.3-7.4 5.1-.5-3-.9-5.5-1.2-8zM450.6 262c-.3.1-.6.3-.9.4 1.1 4.3 2.3 8.7 3.5 13.3 6.7-5 8.1-8.8 5.3-13.7-.8 2.7-1.5 5.3-2.5 8.8-2.1-3.5-3.8-6.2-5.4-8.8zM207 395.3c-4 8.4-2.2 13.8 5 15.3-1.7-5.1-3.2-9.9-5-15.3zm28.2 28.6c4.1-7.2 2.4-13.5-4.5-16.9 1.5 5.7 2.9 11.1 4.5 16.9zm-42.3-176.7c1.9-3.5 3.7-6.9 5.5-10.3-.4-.2-.8-.5-1.3-.7-1.4 1.7-2.7 3.4-4.5 5.6-.5-1.7-.9-2.9-1.3-4s-.8-2.3-1.3-3.6c-2.2 4.8-1.3 9.1 2.9 13zm255.8 22.2-1.2-.6c-.4 4.8-1.6 8.7-8.4 6.6 2.5 2.7 3.9 4.4 5.4 6 2 2.1 3.3 1.2 3.5-1.3.4-3.5.4-7.1.7-10.7zm-205.2-25.5c0-.5-.1-.9-.1-1.4-4.6-.9-4.6-.9-7.5-10.3-1.3 4.4-3.6 8.4-.3 11.5 1.5 1.3 5.2.2 7.9.2zm203.1-5.3-.7.7c1.4 2.5 2.7 5 4.2 7.4 1.1 1.8 2.8 1.9 3.3-.2.8-3.7.9-7.6 1.3-11.4-.4 0-.7-.1-1.1-.1-.6 2.5-1.1 5-1.7 7.7-2-1.6-3.7-2.9-5.3-4.1zm-29.8 223.3c-1.6 2.7-2.9 5-4.7 8 4 .2 7.2.4 11.4.7-2.7-3.4-4.6-5.8-6.7-8.7zM260.9 314.3c-2.3 6.8-4.2 12.5-6.3 19 6.1-4.8 8.6-11.9 6.3-19zm-70.6 79.4c-2.1 6.5 2.1 13 7.4 12.2-2.5-4.2-4.9-8.2-7.4-12.2zm106.6-138c6.2-2.6 9-7.4 11.3-12.6-4.2 2-5 9.3-12.2 6.2.4 2.4.6 4.2.9 6.4zm33.5 140.8-.9.9c1.6 2.2 3.1 4.6 4.8 6.6.4.5 2.5.4 2.7 0 1.5-3.6 2.7-7.4 4-11.1-.3-.1-.7-.3-1-.4-1.5 2.5-2.9 4.9-4.5 7.5-1.8-1.2-3.4-2.3-5.1-3.5zm-82.6-134.8c.2-.4.3-.8.5-1.2-6.5 1.9-6-3-7.4-6.4-.8 3.4-1.3 6.8-1.4 10.1 0 .4 2.2 1.4 2.8 1.1 2-.9 3.7-2.4 5.5-3.6zm155.6-5.7c-.4 0-.7-.1-1.1-.1-.5 2.1-1 4.3-1.6 6.6-1.9-.5-3.7-.9-5.5-1.3 1.9 2.4 4.1 4.1 6.6 5.5.4.3 2.3-.7 2.3-1.1-.1-3.3-.5-6.5-.7-9.6zm-165.5 23c-.3 0-.6.1-.9.1-.1 1.2-.3 2.4-.2 3.6.3 2.6.8 5.2 1.2 7.8 2.2-1.7 4.5-3.3 6.7-5 .2-.1.1-.5.3-1.2-1.7.4-3.2.8-4.9 1.3-.8-2.3-1.5-4.4-2.2-6.6zm91.7-33.8c-.4.4-.7.9-1.1 1.3 1.7 1.4 3.2 3 5 4.3 1.9 1.4 4.1 2.4 6.1 3.6.2-2.7.3-5.5.4-8.2 0-.2-.3-.4-.8-1-.6 2.2-1.1 4.1-1.6 6.3-2.8-2.4-5.4-4.3-8-6.3zM405 292c.5-.2 1-.3 1.5-.5.2-3.4.5-6.9.7-10.3-.4-.1-.8-.1-1.1-.2-.9 1.9-1.8 3.8-2.7 5.8-2-1-3.6-1.8-5.3-2.6-.2.3-.5.6-.7.9 2.6 2.4 5.1 4.6 7.6 6.9zM278.3 475.3c1.8-5 4.6-9 2-14.1-3.8 3.3-4.6 7.9-2 14.1zm-53.1-199.8c-.3 0-.6-.1-.9-.1-1 3.7-2.1 7.3-3.1 11l1.5.6c2.8-2.5 5.6-4.9 8.4-7.4-.2-.2-.3-.5-.5-.7-1.7.7-3.4 1.3-5.3 2.1-.1-2.2-.1-3.8-.1-5.5zm187.6 3.4c-.3.3-.6.7-.9 1 3.1 2.7 6.2 5.5 9.3 8.2.5-.3 1-.7 1.6-1-1.1-3.5-2.3-7-3.4-10.5-.3.1-.6.1-1 .2.1 1.8.2 3.6.3 5.9-2.3-1.5-4.1-2.6-5.9-3.8zM271.3 455c-4.2.1-7.1 7.8-5 14.6 1.9-5.5 3.4-10 5-14.6zm-11.4-116.8c6.3-4 8.1-9.4 4.9-13.9-1.6 4.5-3.1 8.8-4.9 13.9zm156-74.2c.5-.3.9-.6 1.4-1-1.3-3.5-2.5-7-3.8-10.6l-.9.3v4.9h-5c3.3 2.5 5.8 4.4 8.3 6.4zm-189.4-1.5c.6.2 1.1.4 1.7.7 2.2-2.3 4.4-4.5 6.9-7.2-1.7.3-2.9.5-4.4.7v-5.3c-.3 0-.6-.1-.8-.1-1.2 3.8-2.3 7.5-3.4 11.2zm149.9 78.7c-1.2-4.8-2.3-9-3.6-13.8-3.4 4.8-1.8 10.9 3.6 13.8zm31.5-140.8c-.4-.1-.9-.1-1.3-.2-.5 2.1-1 4.2-1.6 6.4-1.7-.9-3.4-1.7-5-2.6l-.8.8c1.8 2.1 3.6 4.1 5.4 6.2.6-.2 1.3-.3 1.9-.5.4-3.4.9-6.8 1.4-10.1zm-210.2 11.8c-1.9 5.5-1 9.8 2.6 14.1 1.2-2 2.2-3.6 3.4-5.7-6.6.4-4.2-4.9-6-8.4zM354 400.3c1.3-3.6 2.6-7.1 3.8-10.6-2 1.5-2.8 4-4.5 4.9-1.5.8-3.9-.4-5.8-.6 2.1 1.9 4.1 3.9 6.5 6.3zm-71-10.1c.6 2.4 1.3 5.7 2.2 9.5 1.3-1.1 2-1.6 2.6-2.1 1.4-1.5 2.8-3 3.3-3.6-2.8-1.3-5.5-2.6-8.1-3.8zm-16.7-13.4c-.3 0-.6.1-.9.1v9.3c3.6-3.1 6.3-5.3 8.9-7.6-.2-.3-.4-.5-.5-.8-2.1 1-4.2 1.9-6.3 2.9-.5-1.4-.9-2.6-1.2-3.9zm180.3-160.4c-2 2.1-3.7 4.1-5.9 6.5.3.5.9 2 2 2.9.5.4 2.7-.2 2.8-.6.6-2.9.8-5.9 1.1-8.8zM249.9 218c-.2 0-.3 0-.5.1v10.6c.3.1.7.2 1 .3 1.3-1.8 2.6-3.6 4.2-5.8-1.9.3-3.1.4-4.3.6-.1-2.1-.2-3.9-.4-5.8zm.3 81.3c.5.2 1.1.4 1.6.5 1.3-2.2 2.7-4.4 4-6.5-.2-.2-.4-.3-.7-.5-1.1.6-2.2 1.3-3.4 1.9-.9-1.9-1.6-3.5-2.3-5-.4.1-.7.3-1.1.4.7 3.1 1.3 6.2 1.9 9.2zm163.3-112.1c-.4 0-.7-.1-1.1-.1-.2 1.8-.5 3.6-.7 5.4-1.4-.2-2.7-.5-3.9-.7-.2.3-.3.7-.5 1 2.1 1.3 4.2 2.5 6.2 3.8.1-2.1.2-4.1.3-6.2 0-1-.2-2.1-.3-3.2zm-60.8 248.4c-.4-.6-.7-1.2-1.1-1.8-1.9 1.6-4.9 2.9-5.4 4.8s1.7 4.4 2.7 6.6c.6-.3 1.2-.6 1.7-.8-.8-1.7-1.6-3.5-2.4-5.2 1.6-1.3 3.1-2.4 4.5-3.6zM241.4 202.8c-.4 0-.8.1-1.2.1.3 2.7.5 5.5 1 8.2.1.5 2 1.2 2.4.9 1.4-1 2.5-2.5 3.7-3.8-.2-.3-.5-.6-.7-.8l-3.6 1.2c-.6-2.1-1.1-3.9-1.6-5.8zm160.3 41.1c1.9.7 3.8 1.3 6.5 2.2.3-3.9.5-7.3.7-10.6-.4-.1-.8-.2-1.2-.4-1.1 3.5-.5 8.3-6 8.8zm-124 121c.4.1.8.1 1.2.2 1.1-1.8 2.3-3.6 2.8-4.5-2.6-1.8-4.5-3.2-6.9-5 1.1 3.5 2 6.4 2.9 9.3zm-41.8-169.1c-.4-2.3-.8-4.2-1.1-6h-1c-.2 3.2-.4 6.5-.6 9.7.5.2.9.4 1.4.6 1.9-1.7 3.9-3.5 5.8-5.2-.2-.3-.5-.5-.7-.8-1.1.4-2.2.9-3.8 1.7zm69.8 218.3c1.6 2.2 3 4.2 4.5 6.2 1.4-1.9 2.9-3.8 4.3-5.6-3.1-.3-5.5-.4-8.8-.6zm43.3-39.7-.7.7 4.9 6.3c1.2-3.6 1.9-6.1 2.7-8.6l-.9-.6c-.8 1.3-1.6 2.5-2.2 3.5-1.7-.5-2.7-.9-3.8-1.3zm-41.1 24.7c-2.6-.9-4.9-1.6-7.3-2.4.9 2.6 1.7 5.2 2.8 8.5 1.9-2.5 3.2-4.3 4.5-6.1zm16.5 4.3c-2.5-1-4.5-1.7-7.4-2.9 1.6 3.6 2.7 6.1 4.1 9.1 1.2-2.3 2.2-4 3.3-6.2zm53.1-28.9c-.9-4.5-1.6-8.1-2.3-11.6-.2 0-.4.1-.7.1-.5 2.9-1.1 5.9-1.6 8.9 1.3.7 2.4 1.3 4.6 2.6zm24.9-144.4c.3-.2.7-.4 1-.6v-9.7h-.5c-.3 1.8-.6 3.5-1 5.5-1.3-.5-2.5-1-3.7-1.4-.2.2-.4.5-.5.7 1.5 1.8 3.1 3.6 4.7 5.5zm-40.7 234.5c-.4 0-.9.1-1.3.1-1.9 3-1.1 5.7 3.6 10-.9-4-1.6-7.1-2.3-10.1zm-4.3-26.5c-.3-.5-.6-.9-.9-1.4-2.1.7-4.2 1.5-6.9 2.4 1.8 2.2 3.3 4 4.7 5.8.3-.2.5-.3.8-.5-.3-1.3-.6-2.5-1-4.2 1-.7 2.2-1.4 3.3-2.1zm-69-60.1c1.7-2.4 2.7-3.9 4-5.8-2.3-1-4.1-1.7-6.7-2.9 1 3.3 1.7 5.6 2.7 8.7zM230 190.7c-.2-.4-.4-.7-.6-1.1-1.5.8-3.1 1.5-4.6 2.3-.6-1.6-1.1-2.9-1.6-4.3-.4.1-.8.3-1.2.4.5 2.3 1 4.6 1.7 7.5 2.3-1.9 4.3-3.3 6.3-4.8zm195.5-5.6c-.5-.5-1-1-1.6-1.5.3 6.7-2.9 4.8-6.1 3.2-.1.4-.2.9-.2 1.3 1.9 1.4 3.8 2.8 6.3 4.7.6-3.2 1.1-5.5 1.6-7.7zm-271-41.1c-.6-1.7-.8-3.8-1.9-4.9-2.6-2.5-4.5-.1-6.2 1.7-1.3 1.4-3.4 3.2-3.3 4.8.2 3.3 2.6 4.6 6.2 3.4L125 176.6c2.4-5.4-1.9-7.2-4.6-9.6-2.9-2.6-6-5-8.9-7.6-2.6-2.4-5.1-4.5-8.7-1-.2-.4-.5-.8-.7-1.2 5.3-6.3 10.7-12.6 16.2-19.2 2.2 1.7 4.1 3.2 6.4 5-3.2.5-6.1.2-8.2 1.4-2.2 1.2-3.6 3.8-5.7 6.1 2.7 2.4 5.3 4.6 8 7 3-2.3 5-4.6 2.1-8.5.4-.2.8-.5 1.3-.7 2.5 2.1 5 4.2 7.5 6.4-.1.4-.1.7-.2 1.1-4-1.7-6.5 0-8.3 3.6 1.1 1 2.3 2.2 3.6 3.1 2.2 1.4 3.7 5.3 7.3 2.6 4.6-3.5 5.7-7.4 3.3-12-.4-.8-.6-1.6-.2-3 2 1.5 4 3 5.9 4.5.4-.1.8-.3 1.2-.4-.4-2.3-.5-4.7-1.3-6.8-2.5-6.5-5.3-12.9-7.9-19.4-.5-1.3-.9-2.8-1.7-5.1 1.9.5 3 .7 3.8 1.1 7.3 3.5 14.6 7.1 22 10.4 1.7.7 4.1.7 5.8.2 3-.9 3.7-3.1 1.7-5.9-3.6-4.8-6.9-9.9-10.8-14.4-1.4-1.6-4.1-1.9-6.6-3 3.5-2.6 7.5-5.5 11.5-8.4.4.2.8.3 1.1.5-3.7 3.9-1.3 6.6.9 9.5 3 3.8 5.9 7.8 8.7 11.8 1.7 2.3 3.4 2.4 5.6.8 4.6-3.2 5.2-4.6 5.4-13.4 1.9 2.5 3.7 5.1 5.7 7.8-10.8 8-21.6 16.3-31.7 24.1zm-13-1.8c2.2-2.1 3.9-3.7 6.1-5.7-3.6-1.6-6.5-2.9-10.3-4.7 1.6 4 2.8 6.9 4.2 10.4zM71.1 404.1c-8.7 1.9-9.2 2.3-11.2 7.8-1.6-4.5-3.2-9.1-4.8-13.6.4-.4.8-.8 1.2-1.3 2 4.9 4.9 3.5 8 2.4 5-1.8 10-3.6 15-5.2 3.7-1.2 3-3.7 2.5-6.4-.5-3-2.5-3.4-5-2.9-5.9 1.2-11.8 2.2-17.6 3.8-1.9.5-3.2 3-5.1 4.8-.3-1.1-.7-2.7-1.1-4.3-1-4.9-2-9.8-3-14.8-1.1-5.4.3-6.8 7.5-5.7-7.5 3.7-4.3 9-3.2 14.4 3.6-.7 6.9-1.4 10.3-2.1 0-3.9-.7-6.7-5.4-6.8.1-.5.2-1 .2-1.5 3.1-.7 6.2-1.3 9.3-2-2.6 3-3.4 5.8-1.1 9.4 1.5-.2 3.1-.3 4.7-.8 2.5-.8 6.5.2 6.4-4.3-.1-5.8-2.3-8.7-7.2-9.7-.9-.2-1.8-.5-2.7-1.8 2.9-.6 5.9-1.3 9.2-2 3.2 13.7 6.4 27.2 9.8 41.4-5.3-6.7-9.6-.5-14.7-.2 1.7 4.8 3.1 9 4.5 13.1 7.9-.7 11.1-2.8 12.7-8.2l4.8 13.8c-.3.4-.5.8-.8 1.2-2.9-5.1-6.4-3-9.8-1.7-3.9 1.4-7.9 2.8-11.9 4.1-2.9 1-6 1.7-4.2 6.5-.6-.1-1.2-.1-1.8-.2-1.6-4.5-3.2-9-4.8-13.6.2-.4.5-.7.7-1.1 4.2 6.3 8.3 1.6 13 .7-1.4-4.5-2.9-8.7-4.4-13.2zm265.2 194.1c5.3-1.1 4.4-4.6 4-8.1-.6-4.4-.9-8.9-1.5-13.3-.3-2.5 0-5.4-4-5.7-3.7-.3-5.3 1.3-6.3 4.6-2 6.8-4.1 13.6-6.4 20.4-.5 1.3-1.7 2.4-2.6 3.6-.9-1.2-2.1-2.4-2.6-3.7-2-5.8-3.8-11.6-6-18.5-2.5 6.6-4.4 12.2-6.7 17.7-.6 1.4-2 2.6-3.1 3.8-.8-1.3-1.9-2.5-2.3-3.9-1.8-6.5-3.2-13-5.1-19.4-.7-2.5-2.3-4.7-3.5-7.2h12c-4.5 2.2-2.4 5.5-1.8 8.3.9 3.9 2 7.7 3.4 12.9 2.5-6.8 4.5-12.3 6.8-17.8.5-1.2 1.8-2.1 2.7-3.1.7 1 1.7 2 2.1 3.2 1.9 5.6 3.7 11.3 6.4 17 1.4-4.7 3.1-9.3 4.1-14.1.3-1.4-1.4-3.2-2.3-5 11-.8 22.6-1.7 34.7-2.7.3 2.4.7 4.7 1 7.1-.3.4-.6.8-.9 1.3-3-7.5-8.3-5.8-14.1-4.5.3 3.3.6 6.7 1 10.2 3.8.5 6.6 0 7.5-4.4l1.2.3c.4 3 .7 6 1.1 9.1-.3.2-.6.5-.9.7-1.9-3.8-4.7-4.2-8.3-2.6.1 1.2.1 2.6.4 3.9.8 2.7-1.2 7 3.8 7.5 6.1.6 8.9-1.4 10.6-7 .1-.5.4-1 .6-1.4.4 0 .8-.1 1.2-.1.3 2.9.7 5.9 1.1 9.5-9.2 1-18 1.9-26.7 2.9-.1-.7-.3-1.1-.6-1.5zm2-534c2.6-1.1 5.2-2.1 8.2-3.3-.2 2.7-.5 5.9-.7 8.7l-7.5-4.5c-.4.3-.9.7-1.3 1-.2 3.1-.6 6.3-.4 9.4 0 .9 1.5 2.3 2.6 2.6 5.9 1.8 8.8.4 11.8-5.3.3-.5.3-1.1.5-1.6.5.3 1 .5 1.5.8-.2 3-.4 6-.7 9.2-14.1-.7-27.8-1.4-42.3-2.1 7.9-3.2 3.2-8.9 4.1-13.5h-13.5c-1.6 7.1-.3 11.4 4.1 14.5-4.8.3-9.6.7-15.4 1.1 1.1-1.2 1.6-1.7 2-2.2.9-1.2 2.5-2.4 2.5-3.6 0-6.4-.3-12.9-1-19.2-.2-1.7-2.3-3.1-4-5.1 4.6-.3 9.3-.6 13.9-.9-5.8 3.5-2.9 8.5-3 13.3 4.6-.2 9-.5 13.4-.7 1.9-6.6.7-10-3.9-11.6 2-1.9 10.2-2.5 15.3-.9-5.1 1.1-4.8 4.5-4.6 8 .4 5 .8 10 .8 15.1 0 3.9 2.8 4.1 5.4 4.4 2.9.3 3.9-1.4 4-4.1.3-4.7.9-9.5 1.2-14.2.2-3.6 2.1-7.9-4.9-8.7.4-.4.8-.9 1.3-1.3 8.1.6 16.3 1.2 24.7 1.8v7.1c-3.4-5.3-8.1-6.7-14.3-5.3-.2 3.2-.5 6.5-.7 9.8.2.4.5.9.9 1.3zM82 258.7c.5 1.4 1.5 2.9 1.3 4.1-1.6 9.3-3.5 18.6-5.4 27.9-.3 1.3-1.5 2.7-2.6 3.4-2.6 1.6-5.4 2.9-8.2 4.2-2.9 1.3-4.5 3.2-3.9 6.5 6.1 2.5 9.6 1.9 13.5-2.4-.4 4.8-.8 9.6-1.1 14.4-2.5-5.9-7.8-4.4-12.1-4.9-3.5-.4-7-.5-10.4-1-3.1-.4-5.5.1-6.5 4.3-.6-1.3-1.2-1.8-1.1-2.3.4-5.3.6-10.6 1.4-15.8.8-5.3 3.5-8.2 7.3-8.6 4.9-.6 7 2.6 8.4 6.3 3.6-2.1 7.3-3.8 10.5-6.2 1.7-1.2 2.5-3.6 3.8-5.5-1.6-.9-3.1-2.2-4.8-2.6-4.3-1.2-8.7-2-13.1-2.9-3.4-.7-7.3-3-8.9 3.6-.4-.5-.7-1-1.1-1.5 1.7-8 3.4-16 5.2-24.4 2.7.5 5.1 1 7.4 1.4l.9 1.2c-8 .5-7.9 6.2-8.8 12 3.3.7 6.6 1.5 11.4 2.5-.6-3.6-1.2-6.4-1.7-9.7 2.4.5 5.5 1.2 8.6 1.8.1.5.2.9.3 1.4-4.7.1-5.4 3-5.4 6.7 1.4.4 2.8 1 4.3 1.1 2.7.1 6.1 3.1 8-1.3 2.3-5.3 1.3-9.3-2.9-12-.6-.4-1.2-.9-1.6-2.2 2.6.2 5.2.4 7.8.5H82zm-21.8 46.6c.8-7.5-.6-10-5.6-10.2-4.4-.2-6.4 2.8-6.1 9 3.8.4 7.7.8 11.7 1.2zm520.4-70.1c1.5 4.7 3 9.4 4.4 14.1-.2.4-.3.8-.5 1.2-4.4-6.9-9.1-2-13.6-1.2-2.9.5-5.6 1.8-8.4 2.5-3.2.9-6.2 1.9-4.8 6.7-.4-.1-.9-.1-1.3-.2-3.3-9.4-6.5-18.8-9.9-28.5 1.9.9 3.5 2.2 5.1 2.3 1.7 0 3.4-1.1 5-1.8 4.1-1.8 8.1-3.7 12-6.4h-25.4c-.3-.4-.5-.8-.8-1.2 5.5-6.5 11-12.9 16.5-19.4-.2-.3-.3-.5-.5-.8-5.5 2.5-11.1 4.8-16.4 7.6-1.2.6-1.2 3.2-2.2 6.1-1.7-3.9-3.2-7.1-4.6-10.4.2-.4.5-.8.7-1.2 3.2 5.2 6.5 2.4 9.8.9 3.6-1.6 7.1-3.3 10.7-4.7 3.2-1.3 6.3-2.6 5-7.3 5.3 4.4 5.9 9.5 2 14.1-3.5 4.1-7.1 8.3-10.6 12.4-.1.2-.1.5-.4 1.8 6 0 11.8.4 17.6-.1 4.5-.4 6.7 1.4 7.8 5.4.4 1.5 1.1 3 1.9 5-2.3-1.1-3.9-2.4-5.5-2.4-1.7 0-3.4 1.1-5 1.9-4.3 1.9-8.6 4-13 5.8-4.1 1.6-2.9 4.6-2.1 7.3.8 3.1 3.3 2.3 5.5 1.6 4.3-1.3 8.5-2.6 12.8-4 3.5-1.2 8.4-.9 6.7-7.9.3.3.9.6 1.5.8zM133 524c-3.9-4.1-7.4-7.8-10.9-11.4 4.1 4.1 6.2.1 8.9-2.5 2.5-2.4 5-4.9 7.4-7.4 2.6-2.7 6.3-5 3.5-10 .7.4 1.5.8 2 1.3 4.7 4.4 9.4 8.7 13.9 13.3 1 1 1.6 2.9 1.6 4.3.2 7.5.1 15 .1 22.5.5.1.9.3 1.4.4 3-3.7 6.3-7.3 8.9-11.3.8-1.2-.1-3.5-.3-6.1 3.3 1.9 6 4.3 8.7 7.7-5.3-3.1-7.1 1-9.4 3.8-4.4 5.2-8.7 10.5-13.6 16.5-2.4-5.7-1-11-1.3-16-.4-5.1-.1-10.2-1-15.8-3.8 4.7-7.7 9.3-11.1 14.2-.7 1 .5 3.4 1.2 6.6-3.6-3-6.4-5.3-9.2-7.7 0-.5.1-.9.1-1.4 5.1 3 6.9-.6 9.2-3.4 2.9-3.6 5.8-7.2 8.7-10.7 2.4-2.8 1.5-5-.9-7.2-2.6-2.3-4.2-.5-6 1.2-3.4 3.5-6.8 7-10.4 10.3-2.6 2.6-4.6 4.9-1.5 8.8zm282.5 44.6c2.7 3.5 1 10.5 9.1 9.3 0 .4 0 .8-.1 1.2-4.5 1.9-9 3.8-13.5 5.6 4.5-4.8.6-8.7-.8-12.6-1.2-3.4-2.8-6.7-4.1-10.1-1.2-2.9-2.4-5.6-6.7-4.3.4-.6.7-1.4 1.3-1.6 4.7-2 9.4-4.2 14.3-5.9 5.4-1.9 9.2-.9 11.4 2.3 2.8 4.1.9 7.4-1.9 10.6 5.4 3 10.6 6 15.7 8.9-3.6 3.5-6.4 3.8-10.3 1.1-2.2-1.5-4.3-3.1-6.5-4.6-3.2-2.3-3.8-2.2-7.9.1zm-.5-1.4c2.7-2.9 5.4-4.7 6.2-7.2.6-1.7-1.1-5.5-2.7-6.2-2.3-1.1-5.5-.3-9.2-.3 2.1 4.9 3.5 8.5 5.7 13.7zm-173 20c4.7.9 5.7-1.6 6.4-4.7.9-4.5 1.9-9 3-13.4.8-3.4 2.6-7-2.9-8.2.5-.7.7-1.1.8-1.1 6.9 1.8 14.2 2.9 20.7 5.6 6.2 2.6 8.4 10 6.5 16.8-1.9 6.9-6.9 11.1-14.1 10.5-6.5-.6-12.8-2.4-19.2-3.7-.2 0-.4-.6-1.2-1.8zm17-23.2c-1.7 7.5-3.4 14.8-4.9 22.2-.2 1 .9 3.1 1.6 3.2 2.8.3 6 .7 8.4-.4 4.4-2 7.2-10.2 6.1-15.9-1-5.2-4-7.8-11.2-9.1zm257.3-394.6c-8.8.1-17.5-8.4-17.7-17.4-.2-8.5 7-16 15.4-16.2 8.7-.1 17.8 8.9 17.9 17.9 0 8.1-7.4 15.5-15.6 15.7zm-4.6-4.9c6.2.1 15-7.5 15.8-13.6.8-6.3-6-12.1-12.1-9.9-5.4 2-9.7 5.6-12 11-2.4 5.9 2.1 12.4 8.3 12.5zM221 91.4c0 8.7-8.6 16.6-18.2 16.6-8.3 0-15.5-7.4-15.5-16s8.7-16.5 18.3-16.6c8.4-.1 15.4 7.2 15.4 16zm-5.8 3.7c-.5-5.8-2.9-10.7-7.3-14.5-3.1-2.7-6.7-2.3-10.1-.4-3.4 1.9-5.6 5-4.5 8.6 1.5 4.6 3.7 9.2 6.6 13.2 2.3 3.2 6.2 3.4 9.9 1.8 3.6-1.8 5.6-4.5 5.4-8.7zm27.5 471.7c0 8.9-6.9 16-15.5 15.9-10-.1-18.2-7.5-18.1-16.6 0-9 6.8-15.9 15.5-15.8 10 .1 18.1 7.4 18.1 16.5zm-5-3.6c-.3-.2-.7-.4-1-.5-.2-4-2-6.9-5.8-8.4-3.7-1.5-7.2-1.4-10 1.7-3.7 4-5.7 9-5.8 14.4-.1 4.2 2.3 7 6.2 8.5 3.7 1.5 7.4.9 9.5-2.2 2.8-4.2 4.6-9 6.9-13.5zm-4.9-31.8c-2.9-1.2-7.1-2.5-11-4.6-2.9-1.5-2.7-3.6.3-5.3 3.6-2.1 7.4-3.8 11.1-5.7 7-3.5 13.7-2.1 20.3 1.3 2.3 1.2 4 3.2 1.2 5-6.1 4.2-12.6 8.2-21.9 9.3zm39-9.4c2.3.7 5.5 1.4 8.4 2.6 2.5 1 3.1 3.2.8 4.8-5 3.6-9.9 7.3-15.4 10-5.5 2.8-11.2 1-16.5-1.6-1.7-.9-3.4-2.5-1.3-4.2 6.7-5.7 13.8-10.9 24-11.6zM119.6 361c-.3 5.7-1.9 6.6-6.8 3.7-3.2-1.9-6.4-3.9-9.5-6-6.5-4.5-8.5-11.1-8.2-18.6.1-2.1 1-4.3 3.6-3 8.1 4 15.8 8.5 19.3 17.5.8 2 1 4.3 1.6 6.4zM176 167.1c-.1 8.6-2.1 15.4-8.3 20.3-3.8 3-5.7 2.4-6.3-2.3-.6-4.4-.9-8.9-1-13.3-.2-7.4 3.7-12.7 9.5-16.7 2.9-2 4.8-1.2 5.3 2.3.5 3.4.6 7.1.8 9.7zm206.6-60.5c2.9.8 5.9 1.4 8.7 2.5 2.7 1.1 3.3 3.1.7 5.1-4 3-8 6-12.2 8.8-6.7 4.5-13.4 2-19.9-.9-.7-.3-1.3-3.4-.7-3.9 6.8-5.7 13.8-11.2 23.4-11.6zM188.9 502.3c-7.8-.3-12.6-3.5-16.5-8.2-1.4-1.6-1.7-3.7.8-4.3 8.2-1.9 16.4-5.5 24.9-1.6 3 1.3 5.7 3.4 8.2 5.6 2.2 1.9 1.9 4.2-1.2 4.9-5.9 1.5-11.8 2.7-16.2 3.6zm348.2-221.4c-9.5-.7-21.1-11.6-22.4-21-.6-4.4 1.3-6.4 5.4-5 10.6 3.4 18 10.3 21.2 21.1 1.1 3.7-.4 5.2-4.2 4.9zm-415.8-4.4c-.4 1.5-1 4.5-2.1 7.2-.9 2.3-2.8 3-4.4.7-3.5-4.7-7-9.4-10-14.4-3.4-5.8-1.3-11.7 1.3-17.2 1.3-2.8 4-2.6 6.2-.4 6 6.3 8.4 14 9 24.1zm377.2 176.7c-.4 7.5-1.7 13.1-6.3 17.4-3.2 3.1-5 2.8-6.1-1.4-1.2-4.8-2.4-9.7-3-14.7-.8-7.1 2.6-12.7 7.9-17 2.6-2.1 4.3-.6 4.8 2 1.2 5 2 10 2.7 13.7zm-18.4 17.5c0 8-1.4 15.3-8 20.6-4 3.2-5.7 2.6-6.4-2.5-.6-4.1-1.1-8.3-1.2-12.5-.3-7.9 3.8-13.4 10.1-17.6 2.4-1.6 4.1-.7 4.5 2 .5 3.3.6 6.7 1 10zM466.5 164c8.2-.3 16 .8 21.4 7.9 1 1.3 1.9 3.3 1.6 4.7-.2.9-2.7 1.6-4.2 1.8-4.1.5-8.3.7-12.5.9-7.7.4-12.9-3.6-17-9.5-1.9-2.8-1.1-4.7 2.4-5.3 2.7-.4 5.5-.3 8.3-.5zM126 420.8c8.7 1.1 17.2 5.1 22.8 14.1.9 1.4 1.6 3.8 1 4.9-.6 1-3.2 1.5-4.8 1.3-5.2-.8-10.4-1.8-15.5-3.3-5.8-1.8-8.8-6.7-10.6-12.1-1.2-3.3 1-5.1 7.1-4.9zm185.8-301.3c-1.1-.2-2.6-.2-4.1-.6-2.7-.7-3.6-2.4-2.6-5 3.2-8.6 18.8-17.6 27.8-16 3.7.7 4.5 2.2 2.3 5-3.3 4.1-6.7 8.2-10.4 12-3.2 3.7-7.8 4.6-13 4.6zM366.2 545c-3.3.1-4.6-1.4-3.2-4.4 2.3-5.1 4.6-10.2 7.4-14.9 3.4-5.7 9.2-7.4 15.4-7.6 1.1 0 3.3 2.4 3.4 3.7.2 8.8-14.1 23-23 23.2zM126.5 391.8c-11.4 1.9-26.7-10.1-27.3-21.4-.3-4.7.9-5.6 5.3-3.8 2.7 1.1 5.4 2.3 8 3.6 8.8 4.4 13.5 11.6 14 21.6zm30.7-201.2c-.2 8.6-1.8 14.1-6.4 18.4-2.9 2.8-4.8 2.3-5.9-1.6-1.2-4.3-2.2-8.6-2.9-13-1.2-7.2 1.6-13.1 6.8-17.9 3-2.8 5-2.4 5.9 1.5 1.3 4.9 2 10 2.5 12.6zm359.6 35.6c-4-.9-9.7-1.7-15.1-3.6-6.1-2.1-9.1-7.4-11-13.3-.7-2.3.3-3.8 2.6-3.6 8 .9 16.3 1.6 22.6 7.4 2.5 2.3 4.4 5.3 6 8.4 1.7 3.4.4 4.9-5.1 4.7zm-67.9-80.6c8.5.2 14.1 1.6 18.4 6.1 3 3.1 2.6 5-1.6 6.1-4.3 1.1-8.7 2.1-13.1 2.9-7.5 1.3-13.3-1.9-18.2-7.3-2.4-2.7-1.9-4.5 1.6-5.4 5.2-1.1 10.3-1.9 12.9-2.4zm-22 .2c-7.5-.3-12-2.6-15.9-6.1-2.2-2-2-4.1.9-5.1 5.9-2 11.9-3.8 18-5.6 1-.3 2.2 0 3.2.4 3.5 1.5 6.9 3 10.2 4.8 1.2.7 2.4 2 2.7 3.2.1.6-1.6 2.1-2.8 2.5-6 2.4-12 4.4-16.3 5.9zm11.3 355.9c-1.1 8.5-5.2 16.9-13.8 22.5-1.5 1-3.6.9-5.5 1.4-.3-1.8-1.1-3.7-1-5.4.4-4 1.2-8 2.1-11.9 1.4-6.2 5.2-10.3 10.9-12.8 5.4-2.4 7.5-1 7.3 6.2zm107.5-195.9c0 4.2-1.8 5.4-5.4 3.3-4.2-2.4-8.4-5-12.2-7.9-5.3-4.1-6.8-10-6.5-16.4.2-3.1 1.9-4.5 5.1-3.6 8.3 2.4 18.9 16 19 24.6zM171.5 483.3c-8.4 1.3-14.7-2.3-19.5-8.9-2.4-3.4-1.8-5.4 2.3-5.5 6.1-.3 12.3-.5 18.3.1 5 .5 9 3.7 12 7.8 2.5 3.4 1.9 5-2.3 5.5-3.5.4-7.2.7-10.8 1zM137.3 415c-1.6 1.1-2.6 2.3-3.7 2.4-11.8.8-23.9-8-26.6-18.9-.7-3 0-5.2 3.3-4.4 8.2 1.9 16.4 4.1 21.9 11.1 2.1 2.6 3.2 6 5.1 9.8zm-21.1-82c-.2 1.7.1 3.4-.6 4.4-.6 1-2.9 2.2-3.3 1.9-6.9-5.6-15.7-9.7-17.6-19.7-.4-2.3-.3-4.7 0-7 .6-4.4 2.9-5.6 6.6-3.3 8.9 5.5 13.5 13.8 14.9 23.7zm243.4 191.7c.4.2 2.6.5 3.4 1.7.6.9-.4 3.2-1.2 4.4-2.9 4.2-5.7 8.6-9.2 12.3-3.6 3.9-8.5 5.7-13.8 6-4.6.2-6-1.8-3.7-5.9 2.3-4 4.7-7.9 7.4-11.6 3.8-5.2 9.5-6.8 17.1-6.9zM507 412.2c1 1.4 2.1 2.4 2.5 3.5 1.9 5.7 5.1 11.5 4.9 17.1-.2 5.4-3.9 10.6-6.3 15.8-.2.3-2.5.3-3.1-.3-7.6-7.3-8.3-25.4-1.5-33.3.8-.9 2-1.6 3.5-2.8zM125.9 215.1c0-7.8 2.5-12.2 6.1-16.1 1.7-1.8 3.8-1.9 4.7.6 2.2 6.3 4.7 12.6 5.7 19.2.5 2.9-2 6.5-3.6 9.6-1.1 2.2-3 4-4.6 6-1.4-2.1-3.2-4.1-4-6.4-1.9-4.8-3.4-9.9-4.3-12.9zm97.8-89.9c-1.5 5.5-2.7 11.1-4.7 16.4-2 5.3-6 9.2-11.5 10.8-1.4.4-3.5-.2-4.9-1.1-.6-.3-.5-2.4-.2-3.6.7-3.3 1.8-6.5 2.4-9.7 1.5-8.1 6.8-12.8 13.8-16.1 3.3-1.5 4.8-.4 5.1 3.3zm-103.3 97.7c1.7 2.9 3.5 5.7 5.1 8.7 1.1 2.1 1.5 4.6 2.7 6.5 4.3 6.6 1.3 12.4-1.5 18.4-1.2 2.4-3.3 2.9-5.1 1.3-8.5-7.3-12.1-28-1.2-34.9zM231.8 511c-6.1 2.3-11.5 4.5-17 6.4-2 .7-4.6 1.9-6.3 1.2-4.3-1.6-8.3-4-12.1-6.5-.7-.5-.6-3.7.3-4.7 5.6-6.3 25.9-6.6 31.9-.6.9.8 1.5 1.9 3.2 4.2zm164.9-377.7c-2.2-.8-6.3-2.1-10.1-3.9-2.4-1.2-2.3-3.9 0-5 6.5-3.1 13.1-6.7 20-8.1 3.7-.7 8.3 2.6 12.2 4.6.5.3.2 4.1-.9 5.2-5.1 5.1-12 6.5-21.2 7.2zM227 138.8c0-12.7 5.7-25.2 15.9-27.8 5.9-1.5 7.9 0 6.6 5.8-1.7 7.7-5.6 14.2-11.7 19.2-3.8 3-5.7 3.4-10.8 2.8zm308 112.4c-2.2.7-4.3 1.9-6.5 1.9-8.8-.1-20.4-8.5-23.2-16.8-.6-1.8-.2-4-.3-5.9 2 0 4.1-.4 6 .2 3 .9 5.9 2.5 8.9 3.7 7.4 2.9 12.3 8.3 15.1 16.9zM532 397c-3.4-4.2-6.9-8-9.9-12.2-4.8-6.5-4.3-13.6-1-20.6 1.6-3.5 3.4-3.8 5.7-.7 2.3 3.1 4.6 6.3 6.5 9.7 4.5 7.8 5 15.5-1.3 23.8zm-418.1-85.2c-13.6-7.9-19.1-18-15.6-29.7 1.3-4.3 2.8-4.9 5.8-1.7 3.3 3.5 6.7 7.1 9.3 11.2 4.7 7.3 4.6 12.3.5 20.2zm138-183.7c1.3-7.6 4.2-14.3 8.9-20 3.6-4.4 9-5.3 14.3-5.7 2.3-.1 4.1 1.2 2.8 3.7-2.8 5.5-5.6 11.2-9.1 16.3-3.9 5.7-10.1 6.5-16.9 5.7zm141 410.8c-.7-2.8-2-5.3-1.8-7.7 1-9.1 5.6-16.3 13.4-21.1 2.5-1.5 5.9-1.7 8.9-2.5 2.2 10.7-6.7 24.1-20.5 31.3zM516.7 387c2.2 3.1 3.9 5 5.1 7.3 1.4 2.6 1.9 5.6 3.4 8.1 3.9 6.4 2 12.2-1 18.1-1.8 3.5-4.3 4-6.7.8-5.5-7.4-7.8-15.8-6.2-24.9.6-3 3.2-5.7 5.4-9.4zm-212 160.1c5.1-14.3 19-22.1 30.9-17.4-4 11.9-16.2 25.3-30.9 17.4zm4.5-16.8c-3 5.8-7.6 9.7-12.8 13-6.6 4.2-13.2 5.7-20 .4 3-10.2 21.5-22.6 32.8-13.4zM442.4 501c.7-4.1.9-8.3 2.2-12.2 1.6-5 5.4-8.3 10.2-10.5 2.7-1.3 5.1-.5 4.9 2.7-.6 10.7-.5 21.8-11.1 28.6-1.3.8-2.9 1-4.4 1.6-.5-1.5-1.3-3-1.4-4.6-.2-1.8.2-3.6.3-5.4-.3-.1-.5-.2-.7-.2zm55.4-298.7c-5.1-1.5-10.5-2.4-15.3-4.7-2.9-1.4-5-4.8-7-7.5-.8-1.2-1.4-3.8-.7-4.6.9-1.1 3.2-1.6 4.8-1.5 4.4.5 8.8 1.4 13.2 2.1 6.1 1 10.4 4.5 13.7 9.5 2.3 3.5 1.5 5.2-2.6 5.4-1.9.1-3.9 0-5.9 0 .1.5-.1.9-.2 1.3zM156.9 462.9c-7.6.5-14.6-.8-19.7-7a20.6 20.6 0 0 1-3.5-6.1c-.8-2-.2-3.8 2.4-3.7 11 .2 22.1.5 29.1 11.1.8 1.2 1.2 2.7 1.7 4-1.5.5-3 1.3-4.5 1.5-1.8.4-3.7.2-5.5.2zM332 117c8.1-14.6 24.3-20.8 33-13.2-3.2 6.5-8.6 10.4-14.7 14.1-6.6 4.1-12.4 3.1-18.3-.9zm209.2 358.9c-2.5 1.8-5.1 3.4-7.3 5.5-.9.9-1.6 2.8-1.4 4 .6 3.1 1.8 6 3.1 10.1-4.2-3-7.4-5.3-10.8-7.7-3.4 2.4-6.6 4.7-10.7 7.6 1.2-3.9 1.9-6.9 3.1-9.7.9-2.3.3-3.6-1.6-4.8-2.4-1.6-4.7-3.4-6.9-6.1 2.9 0 5.9-.2 8.8 0 2.6.2 3.8-.8 4.4-3.2.7-2.8 1.8-5.5 3-9.3 1.3 3.9 2.4 6.8 3.2 9.7.6 2 1.6 3 3.8 2.8 3-.2 6 0 9.1 0 0 .5.1.8.2 1.1zM280.7 122.4c-3.3 0-4.4-1.3-2.6-4.1 3.3-5.1 6.4-10.8 10.8-14.8 3.4-3.1 8.7-4.5 13.4-6 1.2-.4 3.7.9 4.6 2.1.6.8-.2 3.2-1 4.4-2.8 4-5.9 7.7-9 11.5-4.3 5.2-10.2 6.3-16.2 6.9zM99 495.5c1.2-4 2-6.9 3.1-9.7.9-2.3.4-3.6-1.6-4.8-2.4-1.6-4.7-3.4-6.9-6 2.9 0 5.8-.2 8.7 0 2.5.2 3.8-.7 4.4-3.2.7-2.8 1.8-5.6 3-9.3.9 2.6 1.5 4.3 2.1 6 2.8 7.6.6 6.3 8.7 6.4 1.8 0 3.5 0 5.7.9-1.8 1.3-3.5 2.8-5.5 3.9-3.4 1.9-4.7 4.2-2.7 8 1.1 2 1.4 4.4 2.5 7.7-4.1-3-7.4-5.3-10.7-7.7-3.4 2.5-6.7 4.9-10.8 7.8zm98.2-359.6c.4 2.9 1 4.8.7 6.6-.8 5.2-2 10.4-3.1 15.5-1.1 5.6-5.3 8.7-9.8 11.2-.8.4-3.1-.2-3.5-1-3.9-8.2 1-25 8.7-29.7 1.9-1 4.1-1.5 7-2.6zm-.4 432.5c-2.6-.9-5.7-2-8.9-3.1-8-2.8-12-8.2-11.6-15.9.3-7 5.3-13.1 12.2-14.8 7-1.7 13.1 1.3 17.5 8.8 1-.2 2.1-.5 4.3-1-1.9 3.6-3.4 6.4-4.9 9.2-.4-.1-.9-.1-1.3-.2v-4.1c-.1-4-1.8-7-5.5-8.6-3.6-1.6-6.9-.8-9.7 1.7-4 3.6-6.4 8.2-7.1 13.4-.6 4.3 2.4 8 6.9 9.2 3.3.9 5.7-.5 6.7-3.4.6-1.7-.2-3.8-.5-6.5 3.7 2.1 7.5 4.2 10.6 6-3.1 3.3-5.8 6.2-8.7 9.3zm325.8-224.2 4.2-9.6c2.3 2 4.9 3.8 6.8 6 2.3 2.6 4 5.7 6.1 8.5 3.7 4.9 3.8 10.4 2.2 15.9-.3 1.1-3.6 2.6-3.9 2.3-5.6-5-11.7-9.7-13.8-17.4-.5-1.7-.6-3.6-.9-5.3-.2-.1-.4-.2-.7-.4zM74.3 321.1c.7 4.8 2 10 2.2 15.2.2 6.4-3.7 10.6-9.4 13-6 2.5-13.1.9-17.4-3.6-4.2-4.3-5.4-10.9-3-16.3 1.3-3.1 1.3-3.1-1.6-5.8 4-.3 7.2-.6 10.3-.9.1.4.3.8.4 1.2-1.2.7-2.4 1.5-3.6 2.2-3.2 2.1-4.6 5.1-4.2 9 .4 3.7 2.6 6.1 6.1 7.3 5.1 1.8 10.3 1.3 15.1-.7 4.6-1.9 6.6-7.3 4.2-11.6-.9-1.6-3.4-3-5.2-3.1-1.7-.1-3.5 1.7-5.9 3-.2-3.5-.5-7.8-.7-11.2 4.1.8 8 1.5 12.7 2.3zm471.6 9.9c-.2 2.6-.1 4.1-.4 5.4-.5 2.4-2.3 3.5-4.3 2-4.5-3.4-9.1-6.9-12.9-11.1-4-4.3-4.5-10.1-3.6-15.8.6-4 3.3-5.2 6-2.4 4.9 5.1 9.4 10.6 13.7 16.2 1.3 1.9 1.2 4.6 1.5 5.7zm-82.6-207.7c3.7 2.7 5.7.7 7.7-2 2.5-3.4 5.3-6.5 7.8-9.8 2.2-2.8 6.2-5.2.9-9.9l1.8-.3c3.2 2.5 6.4 5 9.5 7.5 3.3 2.6 6.5 5.3 10 8.1-1.6 2.1-3 4.1-4.4 6.1-.4.1-.8.3-1.3.4 2.4-7.3-1.9-10.5-7.2-13.4-2.1 2.5-4.2 5.1-6.4 7.8 2.3 2.7 4.4 5.4 8.5 1.7.2.5.5 1 .7 1.5-2 2.5-4 5-5.9 7.3-1.3-2.9-2.5-5.5-4.1-9.1-1.9 2.1-3 3-3.6 4.2-1.3 2.5-6.1 4.4-2.7 8 4 4.3 7.6 6.6 12.7 2.5.4-.3 1-.4 1.5-.5.3.3.7.6 1 .9-2 2.4-4 4.8-6.3 7.5-7-5.7-14-11.3-20.9-16.9.3-.7.5-1.2.7-1.6zm93.1 302.9c-4.1-.4-7.7-6.8-12.6-.3-.3-.3-.6-.6-1-.9l6-13.5c.5-.1.9-.2 1.4-.3-1.5 6.2 3 6.8 6.5 8.3 3.3 1.5 6.7 2.9 9.9 4.5s6.3 3.2 9.1-1.2l1 1c-1.7 3.9-3.1 8-5 11.8-1.5 2.9-3.4 5.7-5.5 8.2-2.2 2.5-5.1 2.5-8.1 1.1-2.9-1.4-4.7-3.8-4.2-7 .5-3.7 1.5-7.3 2.5-11.7zm1.8.9c0 3.8-.9 7.2.3 9.6.8 1.6 4.8 3 6.8 2.4 2.2-.7 3.7-3.7 5.9-6.2-4.8-2.1-8.3-3.7-13-5.8zm28.6-32.3c-2.3 6.3-4.2 12.8-7 19-1.9 4.2-5.6 5.3-9.5 3.9-4-1.4-5.9-4.7-5.2-9.3.4-2.9 1.1-5.7 1.8-8.8-4.6-.8-9-5.8-13.3 1l-.6-.9 4.5-14.1c.4-.1.9-.3 1.3-.4-.9 5.6 2.9 6.2 6.3 7.2 3.6 1.1 7.2 2.3 10.8 3.4 3.4 1 7.2 3.9 9.5-2.7.5.5 1 1.1 1.4 1.7zm-18.4 5.2c.3 3.8-.3 7.2 1.1 9.2 1.1 1.6 5.1 2.8 6.9 2 2.3-1 3.6-4.2 5.8-7-5-1.4-8.7-2.6-13.8-4.2zm47.7-71.6c0-7 1.8-8.3 7-5.3 4.4 2.6 8.9 5.3 12.4 8.9 2.3 2.3 3.4 6.3 3.9 9.7.5 3.3-2.1 4.9-5.2 3.4-4.5-2.2-8.9-4.6-13.2-7.2-3.8-2.4-4.9-6.3-4.9-9.5zM96.9 523.2c3.1 1.9 6.9 3.7 10.1 6.4 2.4 1.9 1.8 4.4-1.4 5.3-5.2 1.5-10.5 3-15.8 4-4.4.9-10.7-3-12.1-7.3-.3-1 .6-3.3 1.4-3.6 5.6-1.7 11.1-3 17.8-4.8zm31.2-428.9c-1.7 2.9-3.6 6.9-6.3 10.2-2.2 2.6-4.6 1.9-5.5-1.4-1.4-4.8-2.7-9.6-3.6-14.6s2.3-10.6 6.9-12.8c2.1-1 4-.9 4.6 1.6 1.3 5.3 2.4 10.4 3.9 17zM35.4 245c-.7 1.2-1.4 3.8-3.2 5.2-.8.6-3.9-.8-5.4-1.9-3.1-2.5-6.1-5.3-8.8-8.3-3.6-3.9-3.6-8.6-1.8-13.3.9-2.3 2.7-3.5 5.3-2.6 5.1 1.9 13.9 14.5 13.9 20.9zm42.7 278.8c-6.1 0-11.8-3.8-12.9-8-.3-1 .7-3.4 1.4-3.6 6.7-1.5 13.5-4.4 20.4-1.9 2.8 1.1 5.4 3.2 7.7 5.4 1.9 1.8 1.2 4.1-1.4 4.8-5.6 1.4-11.3 2.5-15.2 3.3zm547-105.4c-.4 1.6-.6 3.1-1.1 4.6-.9 2.5-2.8 3.3-4.8 1.4-4.2-3.9-8.4-7.8-12.2-12-2.7-3.1-2.8-9.3-.2-12.5.9-1.1 3.7-2.1 4.7-1.5 7.6 4.4 11.6 11.5 13.6 20zM128.3 77.2c-.2-6.8 2.9-11.6 7.7-13.8 2.1-.9 3.9-.7 4.2 1.6.8 6.3 1.2 12.6 1.6 18.9.1 1.1-.5 2.7-1.3 3.4-2.3 2.2-4.8 4.2-7.3 6.2-1.1-2.4-2.5-4.7-3.2-7.2-.9-3.4-1.3-7-1.7-9.1zm-9 489.8c-6.3-.2-9.8-2.2-12.5-5.4-1.7-2-1.5-3.9 1.2-4.9 5.2-2 10.4-5.3 15.7-5.5 4.2-.2 8.6 3.4 12.8 5.6.2.1-.2 2.7-.9 3.1-6 2.7-12 5.2-16.3 7.1zm519.8-242.2c-8.5 1.1-20.2-5.9-22.7-13.7-.4-1.3-.6-2.7-.5-4.1.1-4 1.6-5.2 5.2-3.6 4.5 2 9 4.3 13.1 7.1 4.9 3.5 6.5 8.5 4.9 14.3zm-556-210.9c.9-4.8 3.3-8 6.6-10.5 2-1.5 3.8-1.1 4.6 1.3 1.9 5.2 5.1 10.5 5.1 15.8 0 4.3-3.7 8.6-5.9 12.8-.1.2-2.8-.2-3-.8-2.5-6.2-4.9-12.4-7.4-18.6zm95.4-62.5c.4-3.2.4-6.4 1.1-9.5 1.2-4.8 4.7-7.3 9.3-8.7 2.6-.8 4.3.2 4.2 2.9-.2 5.4-.4 10.9-1.3 16.2-.7 4.3-3.8 7.4-7.8 9.2-3.2 1.4-4.8.5-5.1-2.9-.2-2.4 0-4.7 0-7.1-.1-.1-.3-.1-.4-.1zM313.1 622c-.4 7.1-11.1 20.1-17.1 21-2.1.3-4.8-.7-6.5-2-.8-.6-.3-3.7.5-5.2 1.9-3.6 4.1-7 6.5-10.2 3.2-4.1 7.7-6 12.9-5.5 1.5.1 2.8 1.4 3.7 1.9zm285.7-196.2c.6-2.4.8-3.9 1.3-5.4 1.7-5 3.8-5.5 7.7-1.9 4.5 4.2 8.9 8.4 10.1 14.9.2.8.6 1.7.4 2.4-.9 2.8-1.9 5.6-2.9 8.3-2.1-1.3-4.6-2.3-6.4-3.9-2.6-2.3-5-4.9-7-7.7-1.6-2.1-2.4-4.8-3.2-6.7zM97.7 101.3c.4-6.5 3-9.8 6.7-12.3 2.1-1.5 3.8-.6 4.5 1.7 1.5 5.1 4.2 10.2 4 15.2-.2 4.4-3.7 8.6-6 12.8-.2.3-3.5-.4-3.8-1.2-2.2-5.8-4-11.8-5.4-16.2zm291.7 514c-.1 11-5.8 20.7-13.2 23.1-1.7.5-4.3.8-5.3-.2-1-.9-.9-3.6-.4-5.3 1.3-4.5 2.8-9 4.6-13.4 1.8-4.5 6.5-7.1 11.1-6.4 1.2.3 2.4 1.7 3.2 2.2zM23.6 345.7c-8.4-1.4-16.3-3.8-21.3-11.2-1.6-2.4-.9-6.4-1-9.6 0-.4 2.5-1.6 3.3-1.2 5.2 2.4 10.7 4.7 15.3 8 4.5 3.1 5.8 8 3.7 14zm473.5 222.7c-.1-5.7 2.8-10.8 7.9-12.7 1.1-.4 4 .7 4.1 1.4.9 6.3 1.9 12.6 1.5 18.8-.2 3-3 6.1-5.3 8.5-2.4 2.4-4.6 1.5-5.4-1.8-1-4.6-1.8-9.4-2.8-14.2zm-49.7 36.9c0-2.5-.2-5 0-7.5.6-5.5 5.1-10.5 10.4-11.1 1.1-.1 3.5 1.5 3.5 2.2-.4 6.5-.7 13.1-2.3 19.3-.6 2.6-3.9 4.9-6.5 6.6-3.1 2.1-4.9.9-5.2-2.8-.1-2.2 0-4.4.1-6.7-.1 0 0 0 0 0zM346.9 619c5.5 0 6.4 1.1 4 6.2-2.5 5.2-5.4 10.3-9 14.8-1.6 2-5.2 2.9-8.1 3.3-3.3.5-4.7-1.5-3.5-4.6 2-5 4.2-10 6.6-14.8 2.1-4 5.8-5 10-4.9zm93-81.1c-1.9 5.1-1.9 5.2.9 10.1 1.9 3.4 3.8 6.9 5.9 10.1 2.6 3.9 5.6 4.8 9.3 3.1 3.9-1.8 6.1-5.7 4.4-9.6-2.4-5.3-5.3-10.5-8.5-15.3-.7-1.1-3.5-1-6.2-1.6 3.6-2.1 6.7-3.9 9.8-5.7l1.2.9c-4.3 3.2-2 6.1-.2 9 1.9 3.3 3.9 6.5 5.6 9.8 3 5.8 1.1 11.4-5 14.9-6.4 3.8-12.2 3-15.9-2.4-2-3-3.7-6.3-5.5-9.4-1.9-3.2-3-7.5-8.8-5.2 0-.5.1-1 .1-1.4 4.3-2.4 8.6-4.9 12.9-7.3zM175.5 52.5c.2 6-.2 11.9-5.3 16-1.6 1.3-3.9 1.7-5.9 2.5-.7-1.9-1.8-3.6-2.1-5.6-.5-3.6-.7-7.2-.7-10.8 0-5.9 3.2-9.8 8.5-12.2 2.9-1.3 4.6-.5 5 2.7.3 2.4.3 4.9.5 7.4zm370.6 72.4c-7.4.1-10.6-3-13.2-7-1.3-2-.4-3.5 1.7-4.1 5.1-1.4 10.3-4.1 15.3-3.6 4.5.4 8.7 4.1 12.9 6.6.2.1-.7 3.4-1.6 3.7-5.6 1.9-11.3 3.4-15.1 4.4zM50.7 477.7c2.6-.1 5.3-.5 7.9-.4 5.5.2 10 2.3 12.8 7.2 1.6 2.7.9 4.8-2.2 5.2-5.2.7-10.5 1.4-15.7 1.3-4.7-.1-7.8-3.3-9.9-7.3-2-3.8-1.3-5.3 3-5.8 1.3-.2 2.7-.2 4.1-.2 0-.1 0 0 0 0zM4.6 270.3c1.6-2.6 2.4-5.2 4.2-6.4 1-.7 3.8.6 5.4 1.5 6.3 3.8 12.2 8.2 12.9 16.3.2 2-.3 4.7-1.6 6-.7.8-3.9-.1-5.5-1-3.4-2-7-4.2-9.7-7.1-2.4-2.5-3.7-5.9-5.7-9.3zM631 399.4c-1.1 2.2-1.6 4.5-2.9 5.3-1.1.6-3.5-.2-4.9-1.2-3.4-2.4-6.8-5-9.8-7.8-3.5-3.4-4.9-7.8-3.3-12.7 1.2-3.9 3.7-4.9 6.8-2.4 3.5 2.8 7.1 5.5 9.8 8.9 2.2 2.9 2.9 6.6 4.3 9.9zm-88.2 149c-2.1 3.5-4 7.5-6.6 11.1-1.3 1.8-3.6 1.2-4.3-1-1.9-5.9-3.6-11.9-4.9-18-.4-1.8.5-4.4 1.7-5.8 1.7-1.9 4.1-3.8 6.5-4.3.9-.2 3 3.3 3.9 5.4 1.4 3.9 2.3 8 3.7 12.6zM272.9 32c-2.7 0-4.1-1.1-3.1-4.1 1.4-4.2 3.1-8.3 4.4-12.6 1.7-5.3 6.1-7.4 10.6-9.2 1.3-.5 3.5.1 4.6 1 .8.7 1.1 2.9.7 4.1-1.6 4.6-3.4 9.1-5.5 13.5-2.3 4.6-6.4 6.8-11.7 7.3zm222.3 548.2c.5 6.2-2.1 11.2-6.4 15.3-2.7 2.5-5.1 1.9-5.7-1.6-.9-5.2-1.6-10.5-1.6-15.7s3.4-8.7 7.9-10.9c2.7-1.3 4.6-.8 4.9 2.6.3 3.4.6 6.8.9 10.3zm-163.5 41.2c-1.5 8.4-4.2 16.2-11.7 20.9-2.5 1.5-6.4.8-9.7.7-.5 0-1.6-2.8-1.2-3.7 2.4-4.8 4.7-9.8 7.9-14.1 3.4-4.5 8.5-5.9 14.7-3.8zm22.9 20.4c-4.1.1-5.4-1.5-4.4-4.5 1.6-4.9 3.3-9.8 5.4-14.5 1.8-4.2 6.9-6.8 11.4-6.2 2.7.3 4.6 1.5 3.4 4.7-1.7 4.5-3.1 9.2-5.4 13.5s-6.6 6.3-10.4 7zM34.3 441.9c6.7-.3 13.1 2 17.7 8 1 1.3 2.1 3.6 1.6 4.8-.5 1.1-2.9 2-4.5 2-4.3 0-8.7-.2-12.9-.8-5.3-.7-8.8-3.9-10.6-9-1.4-4-.4-5.4 3.9-5.4 1.2.1 2.6.3 4.8.4zM500.1 86.3c-1.6-.3-3.5-.3-4.8-1.1-2.1-1.5-4.8-3.3-5.5-5.5-1.1-3.2 2.7-3.6 4.7-4.7 2.4-1.3 5.2-2.1 7.5-3.6 5.7-3.7 10.6-.9 15.5 1.7 2 1 3.2 3.4 1 4.7-5.8 3.5-11.9 6.3-17.9 9.4-.1-.3-.3-.6-.5-.9zm-21.3 501.6c-.4 3.3-.3 6.8-1.5 9.8-1 2.7-3.1 5.4-5.3 7.2-3.7 3-6.3 1.8-6.8-2.8-.5-5-.5-10.1-.2-15.1.3-4.3 5.1-9 9.2-9.9 2.6-.6 3.7.8 3.9 3.1.2 2.5 0 5 0 7.5.3.1.5.1.7.2zM43.2 215c-6.5-5.6-13.4-10.7-13.7-20.3-.1-1.7.4-3.6 1.1-5.2 1.7-3.8 4.6-4.2 7.3-1 2.8 3.4 5.8 6.8 7.9 10.7 2.9 5.3 3 10.7-2.6 15.8zm-2.3 9.5c-.2 1.6-.2 2.6-.6 3.5-.8 1.7-1.5 4.2-2.8 4.6-1.2.4-3.5-1.1-4.7-2.3-3.1-3-6-6.2-8.7-9.5-3.4-4.1-3.2-8.7-.9-13.3 1.5-3.1 3.8-3.5 6.2-1 3.4 3.7 6.7 7.4 9.5 11.5 1.2 1.9 1.5 4.6 2 6.5zm515.9 310c-1.9 3.4-3.6 7.3-6.1 10.6-1.5 2-3.7 1.1-4.6-1.1-2-5-4.2-10-5.6-15.3-1.2-4.5.5-8.6 4-11.7 2.7-2.4 5.2-1.8 6.5 1.6 2 5.2 3.8 10.3 5.8 15.9zM23.6 422.8c8.9 0 16.5 2.7 21.3 10.7.7 1.2 1.3 3.2.8 4.1-.6 1-2.6 1.6-3.9 1.5-4.6-.3-9.1-1-13.6-1.7s-7.4-3.5-9.2-7.6c-2.4-5.4-1.2-7.1 4.6-7zM429 48.7c-.7-.2-2.7-.5-4.4-1.3-3.4-1.7-3.8-4.1-1-6.7 2.5-2.4 4.9-5.1 7.8-6.9 2.7-1.7 6.1-3.3 9.2-3.4 3-.1 6 1.9 9 3-1.4 2.3-2.4 4.9-4.3 6.7-4.2 4.1-8.3 8.8-16.3 8.6zM31.3 263.2c-1.2 2.4-1.7 4.9-3.2 5.8-1 .6-3.7-.4-5.1-1.4-3.5-2.5-6.8-5.3-9.9-8.3-3.7-3.6-4-8.1-2.5-12.8 1.1-3.3 3.3-4 6-2 3.4 2.6 7 5.1 9.7 8.4 2.3 3 3.3 6.8 5 10.3zm39-133.8c1-2.8 1.2-5.1 2.4-6.6 1.4-1.8 3.6-3.6 5.7-4 1-.2 2.9 2.7 3.9 4.5 1.2 2.1 1.7 4.8 3.1 6.8 4.2 6.1 1.2 11.3-1.9 16.4-1.2 2-3.4 3.1-4.6.8-3.4-5.9-6-12.1-8.6-17.9zm508.3 29.1c7.7-.9 14 .4 18.5 6.5 1.7 2.4 2.1 4.9-1.3 5.3-6.1.7-12.4 1-18.6.6-4.4-.3-7.2-3.8-8.7-8.1-.9-2.5 0-4.1 2.8-4.2 2.7-.2 5.3-.1 7.3-.1zm31.9 296.4c-.1.5 0 1.6-.4 2.4-.9 1.8-1.8 4.1-3.4 4.8-1 .5-3.5-1.2-4.7-2.5-2.8-3-5.5-6.3-7.9-9.7-2.8-4-2.5-8.4-.4-12.6 1.7-3.4 4.2-3.7 6.9-1 7.1 7.1 9.9 12.2 9.9 18.6zM211.2 600.6c.7 0 1.5-.2 2.1 0 2 .9 4.5 1.6 5.5 3.2.5.9-1.2 3.8-2.5 5.1-2.7 2.8-5.7 5.4-8.8 7.7-4 2.9-8.5 3.4-13 1.2-3.6-1.7-3.9-4.4-1.1-7.2 7.6-7.8 11.7-10.1 17.8-10zM213.7 42c.9-5.1 1.5-9.8 2.7-14.4 1.2-4.9 6.5-8.9 11.4-8.9 1 0 2.8 1.1 3 2 1.9 6.6-4.1 20.9-10.3 24.5-1.4.8-3.7 1.7-4.9 1.1-1.1-.6-1.4-3-1.9-4.3zM368 8.3c.8.3 3.4.6 4.1 1.9.6 1.1-.6 3.6-1.6 5-2.6 3.9-5.4 7.8-8.3 11.5-3.1 3.8-8.7 4.9-12.7 2.7-.9-.5-2-2.1-1.9-3.1.4-6.2 11.4-17.2 17.6-17.9.6-.1 1.1 0 2.8-.1zM184.3 589.1c-4.3 5.9-10.1 9.4-16.5 11.9-1.9.7-4.6.7-6.5-.1-2.2-.9-4.6-2.7-5.6-4.8-.5-.9 1.9-3.9 3.6-5.1 3.1-2.3 6.5-4.3 10.1-5.8 5.6-2.5 10.6-1.4 14.9 3.9zm402.5-91.2c-5.5-3.7-8.9-8.9-11.2-14.8-1.7-4.2-1.3-8.5 1.7-12.3 2.2-2.8 4.7-2.7 6.7.2 1.6 2.3 3.2 4.6 4.6 7 3.9 6.9 4.8 13.6-1.8 19.9zm10.6-17.3c-6.3-3.7-10.1-9.4-12.9-15.9-.7-1.7-.9-4.1-.2-5.7 1-2.5 2.5-5.5 4.7-6.7 2.9-1.7 3.9 2.1 5.5 3.8 1.2 1.3 2.3 2.8 3.2 4.3 4.4 6.6 5.9 13.2-.3 20.2zm-401-435.1c.3-2.7.6-5.9.9-9 .7-5.8 4.6-10 10.3-11.2 2.5-.5 3.8.6 3.9 3 .6 9.1-.6 17.7-8.7 23.6-1.4 1-3.2 1.3-4.8 1.9-.6-1.7-1.2-3.4-1.6-5.2-.2-.8 0-1.7 0-3.1zM51.3 197.1c-6.1-3.9-10.1-9.4-12.5-16-.7-2-.8-4.6-.1-6.5.9-2.2 2.6-4.7 4.6-5.7.9-.5 3.9 1.8 5.2 3.4 2.4 3 4.6 6.3 6.1 9.9 2.3 5.4 1.4 10.5-3.3 14.9zM384.8 33.6c3.1-7.1 8.1-12.2 14.6-15.6 2-1 4.6-1.3 6.9-1.1 5.2.4 6.4 3.3 3.4 7.3-2.3 3-4.5 6-7.2 8.6-6 5.4-10.5 5.5-17.7.8zm118 30c-4.3 5.8-9.9 9.2-16.5 11-2.4.7-5.4.4-7.7-.5-2.1-.9-4.1-3-4.9-5-.4-.9 2.1-3.3 3.7-4.5 2.1-1.6 4.4-2.9 6.8-4 6.8-3.1 13.1-3.3 18.6 3zm112.6 141.3c-6.6 3.6-13.4 2.1-20.2.5-1.9-.5-4-1.9-5-3.5-1.4-2.3-1.8-5.3-2.6-8 2.2-.6 4.5-1.4 6.7-1.9 1.5-.3 3.1-.1 4.6 0 8.6.5 14.3 4.6 16.5 12.9zM637 362.6c.1 3.4-1.4 4.5-4.4 2.7-4.6-2.7-9.1-5.5-13.3-8.7-4.1-3.1-5.6-8.8-3.5-13 .6-1.1 2.6-2.3 3.7-2.1 8.8 1.5 17.3 12 17.5 21.1zM292.8 620.2c-.6 8.2-7.7 17.8-15.4 19.9-2.2.6-5-.1-7.1-1-.8-.3-1.5-3.2-.9-4.4 1.4-3 3.3-5.8 5.3-8.5 4.6-6 10.4-9.1 18.1-6zm277.6-135.9c6.5 7.4 12.1 14.4 9.4 24.6-.3 1.1-.7 2.1-1.3 3.1-2.3 4-4.7 4.2-7 .2-2.6-4.7-5.3-9.5-7.3-14.5-.7-1.8.2-4.5 1.2-6.5 1.2-2.3 3.1-4.2 5-6.9zM636 283.9c-7.4.7-14.2-.9-19.6-5.1-2.7-2.1-4-6.4-5.2-10-.8-2.6 1.3-4.5 3.9-3.8 5 1.4 10.1 3.1 14.8 5.4 5 2.7 6.1 7.7 6.1 13.5zM70.4 164c-5.9-4.5-9.1-10.2-10.9-16.6-1.2-4.2-.3-8.1 2.6-11.3 2.4-2.7 5-2.3 6.7.8 2.3 4.5 4.9 8.8 6.5 13.6.8 2.2-.2 5.3-1.1 7.7-.6 2-2.3 3.7-3.8 5.8zm-10.3 16.2c-6-4.2-9.6-10.3-11.9-17-.6-1.8-.4-4.4.5-6.1 1.2-2.3 3.1-4.5 5.3-5.7.6-.4 3.5 2.4 4.8 4.1 1.7 2.2 3 4.7 4.3 7.2 3.2 6.3 2.7 12.2-3 17.5zm-8.5 293.6c-2.2 0-4.6.5-6.6-.1-3-.9-6.2-2-8.3-4.1-1.9-1.8-2.3-5.1-3.4-7.7 2.4-.6 4.8-1.6 7.3-1.7 7.1-.2 14.4-.2 19.4 6.1 1.2 1.5 1.7 3.6 2.6 5.3-1.9.7-3.7 1.6-5.6 2-1.7.4-3.6.2-5.4.2zM368.1 81.2l-2.4 1.8c-.3-.1-.6-.3-.9-.4.7-3.2 1.5-6.4 2.2-9.6.4 0 .8 0 1.2-.1l1.2 4.5c.9 3.3 2.6 6.2 6.2 6.4 1.7.1 4.3-.8 5.2-2.1.7-1 .1-3.8-.9-5.1-1.3-1.9-3.5-3.1-5.3-4.7-5.8-5-6.9-10.2-2.8-14.3 4-4.1 9.9-3.2 14.9 2.2.8-.5 1.5-1 2.3-1.5.3.1.6.3 1 .4-.6 2.5-1.2 5.1-1.8 7.6h-1.3c-.4-1.1-.6-2.3-1.2-3.2-1.3-1.7-2.5-4-4.3-4.7-1.6-.6-3.9.6-5.9 1 .4 1.9.3 4.2 1.3 5.5 1.8 2.2 4.4 3.8 6.6 5.7 4.9 4.3 5.6 8.5 2.3 12.7-3.4 4.2-9.2 4.8-13.9 1.4-1.4-1-2.4-2.2-3.7-3.5zM168.4 578c-4.6 6.7-9.9 9.7-15.6 12-5.2 2.2-9.9.5-13.8-3.1-.8-.8-1-3.7-.5-4.1 5.3-3.8 10.5-8.4 17.4-8.2 4 .1 8 2.1 12.5 3.4zM23.5 307.1c-6.9-1.2-12.3-4.4-17-8.6-3.9-3.6-5.1-8.7-2.9-12.9.6-1.1 3-2.3 4-1.9 6 2.4 11.5 5.8 15.1 11.4 2.5 3.7 1.9 7.6.8 12zm590.3-18.6c.3-3.9 2.6-5.4 5.9-3.8 4 1.9 7.9 4.2 11.9 6 4 1.9 6.1 5.3 7.2 9.2.4 1.4-.1 3.4-.9 4.5-.5.7-2.6.8-3.8.4-4.5-1.5-8.9-3.2-13.2-5.2-4.7-2.2-6.9-6.2-7.1-11.1zm-128-236.1c-3.8 6-9.3 9.4-15.3 12.1-4.4 2-8.6.6-12.1-2.3-2.1-1.7-2.6-3.9.2-5.8 2.3-1.6 4.5-3.3 6.8-4.8 6.8-4.4 13.6-5.3 20.4.8zM33.2 420.9c-3.5-.8-8.6-1.6-13.5-3.1-4.1-1.3-6.5-4.7-7.5-8.8-.9-3.8 1.3-5.9 5-5 4.3 1 8.6 2.4 12.9 3.4 4.2 1 6.7 3.7 8.3 7.5 2.1 4.4 1.1 6-5.2 6zM431.1 26c-3.4 7.9-9.3 13.4-17.2 15.9-2.7.8-6.4-1.4-9.6-2.6-.4-.1-.4-2.7.2-3.6 4.1-6.1 9.4-10.7 16.8-12.3 3.7-.8 6.9-.1 9.8 2.6zM208.9 623.2c7.2-13.6 18.5-18.7 28.1-13.7-2.8 8.7-9.2 14.1-17.4 16.6-2.7.9-6.7-1.8-10.7-2.9zm28.9 9.1c-1.9-.3-3.2-.4-4.4-.8-4.9-1.4-5.6-3.4-2.3-7.4 2.7-3.2 5.6-6.2 8.7-8.9 3.8-3.4 8.6-3.9 13.4-2.7 3.2.7 3.9 2.7 1.8 5.1-3.9 4.4-7.9 8.6-12.1 12.6-1.4 1.3-3.8 1.5-5.1 2.1zM566.6 352c-.9-1-1.6-1.7-2.3-2.5.1-.3.2-.7.3-1 3.2.4 6.4.8 9.5 1.2.1.3.2.7.3 1-1.2.5-2.4 1.1-3.6 1.6-3.5 1.2-6.6 3.1-6.7 7.1 0 1.7 1.3 4.2 2.7 5 1.1.6 3.9-.3 5-1.4 2.1-2 3.4-4.8 5.3-7 4.2-5.1 9-6.1 13-2.6 4.1 3.6 4.1 9 0 13.8-.3.3-.5.6-.9 1.1.5.8 1.1 1.6 2.2 3.3-3.4-.4-6.1-.7-8.7-1-.1-.3-.2-.6-.4-.9 1-.6 2.2-1.1 3-1.9 1.9-2 4-4 5.2-6.5.4-.9-1-3.5-2.2-4.2-1-.6-3.4.1-4.4 1-1.9 1.9-3.3 4.4-4.9 6.7-4.5 6.4-9.2 7.8-13.9 4.1-4.9-3.9-4.9-10.5 0-15.8.5-.5 1-.7 1.5-1.1zM438.9 109.4c-3.8-1.8-8-3.8-12.1-5.8.1-.3.2-.7.3-1 1.2-.1 2.5-.1 4.4-.2-.2-2.1.4-4.9-.6-5.8-2.1-1.8-5-3.2-7.8-3.7s-3.8 3.6-1.2 8.3c-4-1.9-6.9-3.3-10.2-4.8 10.4-3.9 15.9-12.9 23.7-19.1 1.1-.9 2.3-1.6 4.4-3.1-.4 6.6-.7 11.9-1.1 17.3-.2 2.5-.6 5-.6 7.5 0 3.3.5 6.6.8 10.4zM432 94.3c.3-3.9.5-7.1.7-10.1-2.7 2.2-5.3 4.3-8.1 6.7 2.7 1.2 4.8 2.2 7.4 3.4zM588.3 152c-6.9 1.3-12.6 2.8-18.5 3.4-4.9.6-10.2-3.4-12.1-8.1-1-2.4-.5-4.3 2.3-4.6 5.8-.5 11.7-1.2 17.5-.9 5.2.3 7 5.3 10.8 10.2zM151.6 568.5c-4.8 6.2-11 9.4-18.1 10.7-4.4.8-8.1-1.5-11.2-4.6-1.7-1.8-1.7-3.5.7-4.7 5.2-2.4 10.2-5.4 15.7-6.9 4.8-1.2 8.8 2.2 12.9 5.5zm104.3 68.3c-1.1-.1-2.2-.1-3.3-.3-4.7-.9-5.6-3.1-2.5-6.9 2.9-3.6 5.9-7.1 9.2-10.3 3.2-3.1 7.1-4.3 11.6-3.2 3.6.9 4.4 3.1 2.1 6.1-3 3.8-6 7.7-9.4 11.2-1.9 1.9-4.7 2.9-7.1 4.3-.2-.4-.4-.6-.6-.9zM111.2 191.2c.4 1.1.7 2.1 1 3l-.8.8c-2.8-1.9-5.5-3.7-8.3-5.6.2-.4.4-.8.5-1.2 1.1.1 2.3.4 3.4.4 2.2-.1 4.5.1 6.5-.6 3.2-1.2 4.9-5.1 3.6-7.4-2-3.4-4.7-2.8-7.6-1.2-2.1 1.1-4.1 2.4-6.2 3.4-6 2.8-10.7 1.5-12.8-3.4-2.1-4.9.3-10 5.9-12.4.4-.2.8-.3 1.3-.5-.1-1-.3-2-.6-4.1 3 2 5.2 3.5 7.4 5-.1.4-.2.8-.4 1.2-1.4 0-2.9-.3-4.2.1-1.9.5-4.4.9-5.5 2.3-1.1 1.4-.8 3.9-1.1 5.9 1.9.3 4 1.2 5.7.7 2.6-.8 4.9-2.6 7.4-3.9 6.1-3.2 10.9-2.2 13.3 2.7 2.5 5.1.3 10.9-5.2 13.7-.9.3-2 .6-3.3 1.1zm485.4-2.7c-2.4 0-4.8.2-7.1 0-5.3-.4-9.7-3.9-10.9-9-.3-1.3.9-4.1 1.5-4.2 9-.5 18.4-2.1 25.2 6.3 1.1 1.4 1.4 3.4 2.1 5.1-1.6.6-3.2 1.4-4.9 1.7-1.9.4-3.9.1-5.9.1zm-365.3-151c1.8-6.5 3.1-12.3 5.1-17.7 1.6-4.4 5.8-5.9 10.1-6.2 2.6-.2 4.4 1.4 3.5 4.3-1.6 5.5-2.7 11.3-5.5 16.1-1.8 3-6.1 4.7-9.6 6.5-.5.3-2.4-2-3.6-3zm240 483.2c.1-1.1.3-2 .5-4.1 2.2 2.8 3.9 4.9 5.5 6.9-.1.3-.3.6-.4.9-1.1-.3-2.2-.7-3.3-.8-2.5-.1-5.3-.6-7.5.3-1.3.5-2.7 3.6-2.2 4.9.5 1.3 3.1 2.5 4.9 2.6 2.7.1 5.5-.9 8.2-1.3 6.9-.8 10.6 1.4 11.4 6.7.8 5.8-3.2 10.7-9.5 11.5-1.1.1-2.2 0-3.5 0v3.2c-.3.2-.7.4-1 .6-2-2.7-3.9-5.4-5.9-8.1.3-.3.5-.6.8-1 1.3.6 2.5 1.2 3.8 1.9 3.2 1.7 6.6 2.3 9.4-.2 1.3-1.1 2.2-3.7 1.8-5.3-.3-1.2-2.8-2.5-4.4-2.7-2.4-.2-4.9.6-7.4.9-7.6.9-11.9-1.7-12.2-7.3-.7-5.7 3.4-9.3 11-9.6zm152-275.4c-4.3-.9-9.1-1.7-13.8-3.1-4.7-1.4-7.2-5.1-7.8-9.9-.3-3 1-5.1 4.4-4.3 5 1.2 10 2.3 14.9 3.9 4.3 1.4 6.5 5.3 7.6 9.4 1.2 4.4-2.6 3.2-5.3 4zm-476-163.1c-1-6.2-2.3-11.8-2.8-17.4-.5-5.8 2.8-9.7 7.9-12.2 2.8-1.4 4.8-.7 5 2.5.3 5.6.7 11.2.4 16.7-.3 5.5-4.8 7.6-10.5 10.4zm262.2 541.3c.5-3.1 1-7.8 2.2-12.4 1.3-4.8 4.7-7.9 9.7-8.8 3.6-.7 5.3 1.2 4.4 4.8-1.1 4.8-2.5 9.4-3.5 14.2-.9 4-3.4 6.2-6.9 7.8-4.4 1.8-6.1.8-5.9-5.6zM0 309.2c1.2-2.4 1.6-4.6 2.7-5.1 1.4-.6 3.7-.2 5.2.6 3.6 2 6.9 4.7 10.5 6.9 4.1 2.6 5.4 6.5 5.6 11.1.1 2.9-1.7 4.6-4.1 3.5-5-2.3-10.1-4.8-14.5-8.1-2.5-2-3.6-5.9-5.4-8.9zm389.7 320.1c1.2-4.2 2.5-9.9 4.6-15.3 1.6-4.2 5.7-5.6 9.9-5.8 2.6-.1 4.2 1.5 3.4 4.4-1.3 4.5-2.9 9-4.1 13.5-1.3 4.5-4.3 6.9-8.5 8.4-3.7 1.4-5.3.3-5.3-5.2zM336 29.1c-7 .2-8.8-2.8-6.5-7.6 3.7-8.1 9.3-13.8 18.5-15 1.3-.2 3.1.1 4 .9.5.5.1 2.7-.5 3.7-2.7 4.5-5.2 9.3-8.6 13.3-2 2.5-5.4 3.7-6.9 4.7zm251.6 240.8c.7.5 1.6 1.1 3.3 2.3-3.6.8-6.2 1.4-8.9 1.9-.5-.7-1.1-1.4-1.6-2.1 1.1-.4 2.5-.4 3.1-1.1 1.3-1.4 2.6-3.1 3-4.8.6-2.7.2-5.6-3.1-6.3-3.1-.7-4.4 1.7-5.1 4.3-.7 2.7-1.2 5.4-2 8.1-1.7 5.8-5.5 8.3-10.5 7s-8.1-6.3-7-11.7c.3-1.6.9-3.2 1.5-5-.9-.4-1.8-.9-2.7-1.4 0-.3-.1-.7-.1-1 3.2-.7 6.5-1.4 9.7-2.2.2.4.4.9.6 1.3-1.1.8-2.6 1.5-3.3 2.6-1.5 2.4-3.3 4.9-3.5 7.5-.1 1.5 2.3 4.1 4.1 4.6 1.2.3 3.9-1.8 4.6-3.5 1.5-3.2 1.9-7 3.4-10.3 1.9-4.3 5.6-6 9.5-4.9 4.1 1.2 7 5.4 6.5 9.6-.4 1.7-1 3.3-1.5 5.1zM565 287.2c-1.1-.7-2-1.3-3.9-2.6 4.5-.6 7.7-1 11-1.4.2.4.3.8.5 1.2-1.1.8-2.3 1.6-3.4 2.3-3.2 2.1-5.3 4.9-4.1 8.8.4 1.5 2.3 3.3 3.8 3.6 1.2.3 3.5-1.1 4.3-2.3 1.3-2.1 1.9-4.6 2.8-7 2.6-6.9 7.2-9.7 12.2-7.5 5.4 2.3 6.7 8 3.3 14.7.7.6 1.4 1.3 3 2.8-3.6.4-6.2.8-8.8 1.1-.1-.4-.3-.9-.4-1.3.9-.7 2.1-1.2 2.7-2.1 1.2-1.8 2.9-3.7 3-5.6.1-1.7-1.3-4.4-2.8-5.2-2.4-1.3-4.1.7-5 3-1 2.6-1.9 5.2-2.9 7.8-2.5 6.3-6.3 8.5-11.5 6.6s-7.7-7.9-5.4-13.6c.3-1 1-2.1 1.6-3.3zM172.5 605.8c6.6-11.2 19.9-15.4 29.1-8.9-3.7 5.8-8.6 10.2-14.9 12.9-5.6 2.4-10.3.4-14.2-4zm403.7-470.4c-6.3 1.6-12 3.4-17.8 4.4-4.8.8-8.6-1.7-11.3-5.6-2.1-3.1-1.2-5.6 2.3-6.6 2.3-.6 4.6-1.2 6.9-1.7 9.7-1.9 13.8-.1 19.9 9.5zm-74 366.2c-5.2-3.5-9.2-2.8-12.3 2.4 5 5.4 10 11.1 15.3 16.4 1.1 1.1 3.8.6 6.5.9-3.7 3.4-7.3 6.8-10.9 10.2-.4 0-.8-.1-1.2-.1 4.1-6.2-1.2-8.5-4-11.8-3.3-3.9-6.9-7.6-10.4-11.3-5.9 3.9-6.1 4.7-4.5 11.8-1.7-2.1-3.4-4.2-5.3-6.6 6.6-6.1 13.9-12.8 21.3-19.7 2 2.2 3.8 4.2 5.6 6.2 0 .6-.1 1.1-.1 1.6zm16.7-398.9c12.5-8.9 25.2-8.7 30.5.6-5.2 5.3-12.3 6.9-19.1 7.9-5.5.8-8.3-4.3-11.4-8.5zm-14.8-11.8c7.7-6.4 15.7-10.2 25.4-6.6 1.9.7 3.4 2.9 5 4.4-1.4 1.4-2.5 3.3-4.2 4.2-3.8 1.9-7.8 3.9-12 4.8-2.7.6-5.9-.4-8.5-1.5-2.1-1.1-3.6-3.3-5.7-5.3zM91.4 545.6c10.8-9.4 22.8-9.4 30.3-.1-5.2 4.8-11.8 7-18.5 8-5.5.8-8.6-3.8-11.8-7.9zM269.1 10.2c1.3 11.3-3.4 20.5-12.8 24.4-1.4.6-3.7 0-5.2-.7-.6-.3-.5-2.6-.2-3.9 1-3.3 2.2-6.6 3.4-9.8 3.3-9 4.9-10.1 14.8-10zm353.4 214.3c-7.7 2.5-15 1-22-2.1-1.6-.7-3.3-2.5-3.9-4.2-.8-2.1-1-4.8-.5-6.9.2-.7 3.5-.9 5.4-.8 2.9.2 5.7 1.3 8.6 1.5 7.5.5 11.4 4.5 12.4 12.5zM593 342.2c-.1-.1.5.6 1.9 2.3-3.7-.2-6.4-.4-9-.6-.1-.3-.2-.6-.3-1 .8-.5 1.6-1 2.4-1.6 1.5-1.4 3.4-2.5 4.4-4.2 1.3-2.3 1.3-5.1-1.4-6.6-2.8-1.6-4.7.2-6.1 2.6-1.3 2.3-2.5 4.7-3.9 6.9-3.3 5.6-7.5 7.1-12.1 4.6-4.8-2.7-6.4-8.6-3.6-13.8.7-1.2 1.6-2.3 2.5-3.5-.7-.8-1.5-1.6-3.2-3.4 4.5.3 7.7.5 10.9.6.1.4.1.8.2 1.2-1.3.6-2.6 1.1-3.9 1.7-3 1.3-5.6 3.3-5.3 6.8.1 1.9 1.4 4.7 2.8 5.2s4.2-.8 5.4-2.2c2.6-3.1 4.3-6.9 6.8-10 2.1-2.6 5.5-3.6 8.3-1.7 2.3 1.6 4.5 4.4 5.1 7 .6 2.7-1 5.8-1.9 9.7zM217.1 68.9c7.5-2.7 14.9-5.4 23.1-8.3.9 2.6 1.7 4.9 2.5 7.2-.3.3-.7.6-1 1-4.2-6.2-8.8-3.1-14-1.2 1.1 3.4 2.2 6.6 3.3 9.7 4 .2 5.8-1.7 5.9-5.6.4 0 .7 0 1.1.1 1 2.9 2.1 5.9 3.1 8.8-3.1-1.5-5.8-3.2-8.6-.2 1.8 9.3 3 10.9 8.2 10.8.1.4.3.8.4 1.1-4.7 1.7-9.3 3.3-14 5 4.4-4.4 1.1-8.4-.1-12.4-.9-2.8-1.8-5.6-2.9-8.3-1.3-3.2-1-8.2-7.9-6.1.3-.4.6-1 .9-1.6z"/><path d="M82.1 258.8c1.2-3-.9-4.7-2.8-6.3-5.6-4.8-11.3-9.5-17-14.3-1.1-.9-2-2-3.4-3.5 11.9-2.9 23.7.8 35.2-4.6-1.6 4.6-3.1 8.9-4.4 12.6-1.8-1.4-3.1-3.1-4.6-3.5-3.2-.9-3.8 1.7-4.5 4.1-.5 1.7-1.6 3.5-1.5 5.2.2 3 4.3 3.4 7.2.9.9 4-1.4 9.1-4.2 9.4-.1-.1 0 0 0 0zM77 247.4c.9-2.8 1.6-5.1 2.6-7.9-3.9.2-7.1.4-11.4.6 3.4 2.7 5.8 4.7 8.8 7.3zM8 384.8c10-1.4 21.5 4 24.7 11.1 1.3 2.7 1.3 5.1-1.5 7.6-5.7-1.8-12-3.3-17.8-5.9-2.1-.9-3.4-4-4.5-6.4-.8-1.8-.6-4.1-.9-6.4zm553.4 146.3c-2.7-5.4-6-10.5-8.1-16.1-1.6-4.3-.7-8.9 2.9-12.3 2.7-2.6 5.3-2.2 6.9 1.2 1.5 3.1 2.5 6.5 4.2 9.5 2.6 4.8 1.6 9-1.5 13.1-1 1.3-1.9 2.7-2.8 4.1-.6.1-1.1.3-1.6.5zm-42.1 42.8c-5.1-6.6-6.6-13.1-7-19.7-.3-5.1 3.2-8.8 7.7-11 .8-.4 3.5.9 3.6 1.7 1.2 6.3 3 12.7 2.6 18.9-.1 3.2-4.1 6.3-6.9 10.1zm111-308c-6.6-2.2-12.7-3.8-18.4-6.3-3.7-1.6-4.8-5.7-5-9.6-.1-2.7 1.5-4.4 4.3-3.4 5.7 1.9 11.6 3.5 16.7 6.5 2.7 1.6 4 5.9 5.4 9.2.3.7-1.9 2.3-3 3.6zM386.6 11.5c1.2.7 3.7 1.4 4.6 2.9.6 1-.9 3.7-2 5.1-2.9 3.7-6.1 7.2-9.3 10.7-3 3.3-9.6 3.8-13 1-.7-.6-1.3-2.3-.9-2.8 4.6-6.6 8.8-13.7 17.1-16.3.8-.2 1.7-.3 3.5-.6zm156.7 168.9c-2.6 1.7-5.2 3.5-7.6 5.1-.3-3.2-.5-5.8-.8-8.8-9.3 4.2-10.5 5.7-10.7 12.1-2.8-4.1-5.7-8.3-8.5-12.4.2-.6.3-1.1.5-1.7 4.1 5.1 6.9 1.6 9.8-.4 2.9-1.9 5.9-3.8 8.7-5.9 2.9-2.2 7.8-3.2 4.3-9.4.6.1 1.1.2 1.7.2 4.5 6.6 9 13.2 13.9 20.3-2.2 1.5-4.2 2.9-6.8 4.6.5-3.3 1.6-5.9 1.1-8.1-.6-2.4-2.6-4.4-4.2-6.9-3.1 2.1-5.8 4-8.5 5.9 1.9 4.4 1.9 4.4 7.1 5.4zm89.1 204.9c-8.8-2.1-15.4-7.2-19-15.4-1-2.2.1-6.1 1.5-8.3 1.9-2.8 4.4-.6 6.4 1 2.2 1.8 4.4 3.5 6.5 5.3 6.6 5.8 7.4 8.8 4.6 17.4zM4.7 365c10.9-1.1 21.3 5.3 26.1 15.9-2 2.5-4.4 3.3-7.6 2.2-2.7-1-5.6-1.7-8.3-2.7-8.8-3.1-10.3-5.5-10.2-15.4zM438.5 52.6c5-8.3 12.2-11.6 19.5-13.9 2.8-.9 6.7 1.6 10.7 2.7-4.7 7.6-10.2 13-18 14.4-3.6.7-7.8-1.9-12.2-3.2zm-8 570.6c-3.3-7-1.8-13.4-.2-19.7 1-4.2 4-7 8.3-8.1 3.7-.9 5.7.8 5.2 4.5-.7 5.1-1.5 10.2-2.5 15.3-.2 1.2-1.2 2.7-2.2 3.3-2.7 1.7-5.6 3.1-8.6 4.7zM78.7 192.6c2.6 1.4 5 2.6 7.4 3.8-.1.3-.1.5-.2.8-2.2.3-4.7.1-6.4 1.1-1.7 1.1-2.5 3.5-4.1 5.8 7.5 3.5 14.4 7 21.6 9.9 1.2.5 3.2-1.2 6-2.4-2.4 5.1-4.5 9.5-6.5 14-.4 0-.9.1-1.3.1 1.5-5.5-2.2-6.5-5.6-8.1-5.3-2.4-10.6-5-15.8-7.5-4.1 4.6-4 5.7.9 13.2-3.5-1.5-5.8-2.5-8.8-3.7 4.2-9 8.4-17.8 12.8-27zM27.1 363.8c-8.3.7-14.3-1.7-19.7-5.1-4.6-2.9-5.7-7.7-5.4-12.8.1-2.4 1.6-3.2 3.8-2.1 5.7 2.8 11.9 5.1 16.9 8.9 2.5 2 2.8 6.9 4.4 11.1zm56.5 139.5c-6.8 3.7-13.3 5-20.3 4.1-4-.5-7.1-2.6-8.9-6.1-1.6-3.1-.5-5.6 3-5.9 5.3-.5 10.5-1 15.8-1 5.6 0 6.9 5.4 10.4 8.9zm-6.2-70.9c-5 3.9-5 7.9-1.1 12.3 6.7-3.4 13.6-6.7 20.2-10.5 1.2-.7 1.3-3.4 2.2-6 2.4 4.5 4.7 8.9 7 13.3-.2.4-.3.7-.5 1.1-4.4-5.2-8.1-1.4-11.8.4-4.8 2.3-9.4 4.8-14.1 7.2 1.3 5.8 2 6.3 10.9 7.4-3.1 1.7-5.4 3-8.2 4.6-4.6-9-9-17.7-13.7-26.9 2.8-1.3 5.2-2.4 7.5-3.5.6.2 1.1.4 1.6.6zm207.2-381c.5 3.2.9 5.7 1.5 9.4-6.8-6.5-6.9-6.6-12.6-4.3 1.4 7.3 2.6 14.7 4.4 22 .4 1.5 3 2.5 5.2 4.1-5.2 1-10 1.9-14.9 2.8-.4-.3-.7-.6-1.1-.9 6.3-2.2 4-6.4 3.4-10.2-1-5.6-2.1-11.2-3.1-16.7-6.9.2-6.9.2-10.1 8.7-.9-3.6-1.5-6.2-2.2-9.3 9.7-1.9 19.2-3.7 29.5-5.6zm172.1 69.3c-4.3-2.7-8.5-5.3-12.6-7.9 6.7 1 7.6-4.7 10-8.2 2.8-4.2 5.4-8.5 8-12.7-4.1-4.3-4.9-4.4-13.2-.7 1.8-3.1 3.1-5.4 4.7-8.1 8.6 5.4 16.9 10.6 25.5 16-1.7 2.5-3.2 4.7-4.7 6.9-.5.1-1.1.1-1.6.2 2.9-6.3-.1-9.2-5.2-11.2-4 6.4-8.1 12.6-11.8 19.2-.7 1.2.5 3.7.9 6.5zm-57.4 466.8c-5.4 1.4-10 2.6-14.6 3.8-.4-.2-.7-.5-1.1-.7 5.9-2.8 3.3-6.8 2.4-10.4-1.4-5.5-3-11-4.5-16.4-7 .7-7.9 1.6-8.5 8-.4.1-.7.3-1.1.4-.8-2.6-1.7-5.1-2.6-8 9.9-2.6 19.3-5.2 29.1-7.8.7 3 1.3 5.5 1.9 8-.3.4-.6.8-.9 1.1-2.9-5.3-6.7-6.5-11.9-3.4 2 7.2 3.8 14.6 6.1 21.9.6 1.4 3.3 2.1 5.7 3.5zm-2.8-527.8c9.6 3.4 18.7 6.5 28.2 9.8-1 2.7-1.8 5.2-2.7 7.7l-1.2.6c.3-5.9-1.9-9.4-8.1-9.5-2.4 6.8-5 13.7-7.1 20.7-.5 1.6 1.1 3.7 1.9 6.4-4.6-1.6-9.2-3.2-13.8-4.7 6.9-.6 6.4-6.6 8.1-10.6 1.8-4.5 3.2-9.2 5.1-14.5-2.6-.6-5-1.8-7.2-1.4-1.9.3-3.4 2.4-5.9 3.2.9-2.4 1.7-4.8 2.7-7.7zm167.4 391.4c-2.4 4.4-4.9 8.7-7.3 13.1-.6.1-1.1.2-1.7.3 2.9-6.2-1.8-7-4.9-8.9-3.6-2.1-7.3-4-10.9-6.1-2.8-1.6-5.5-3.2-7.8 1.5-.3-.5-.7-.9-1-1.4 2.3-4.4 4.7-8.8 7-13.2.6.3 1.1.5 1 .6-1.3 4.7 2 6.2 5.2 7.8 3.4 1.7 6.6 3.7 9.8 5.5 5.4 2.9 5.4 2.8 10.6.8zm26.2-74.2c-1.1 4.8-2.1 9.5-3.2 14.3-1.1-6.6-6.6-5.5-10.6-6.7-2.8-.8-5.7-1.3-8.5-2-5.8-1.3-5.8-1.3-10.4 2.3 1.1-4.9 2.2-9.8 3.3-14.6.3-.1.7-.3 1-.4-.2 6.2 4.3 6.1 8.1 6.9 3.5.8 7.1 1.5 10.6 2.4 3.4.9 6.8 1.9 8.7-3 .3.2.6.5 1 .8zm-25.2-70.6c2 6.1 6.9 3.9 11 3.9 3.6 0 7.2-.5 10.8-.4 3.4.1 6-.5 6.2-5l1.2.6v14.7c-1-5.2-5.1-4-8.5-3.9-3.6 0-7.3 0-10.9.4-3.5.4-8.3-1.3-8.6 5.8-.4-.4-.8-.8-1.3-1.2.1-5.1.1-10 .1-14.9zm-250.1 67.6c-3.3-2.4-5.9-3.9-7.9-5.9-1.1-1.1-1.5-3.2-1.5-4.8-.1-17.9-.1-35.8-.1-53.7 0-1.9-.2-3.9-.3-6h-9.9v52.4c-5.1-4.4-10.2-8.1-9.7-15.9.7-10.7.2-21.5.2-32.3v-3.8c-.5-.3-.7-.4-.8-.5-9.4-1.3-9.4-1.3-9.4 7.9v15.5c-5.8-10.8-9.3-22.2-10.1-34.5 4.1.8 3.7 3.2 1.9 6.7 2.2-1.2 3.3-1.8 4.5-2.5 1 .6 2.1 1.2 2.9 1.7.7-2.3 1.3-4.6 1.9-6.6-1.4-1-3.4-2.5-4.8-3.5-1.5 1-3.3 2.3-6.2 4.3v-13.7c3.8.7 3.4 3.1 1.5 6.7 2.2-1.2 3.3-1.9 4.6-2.6 1 .6 2.2 1.3 2.8 1.7.7-2.3 1.3-4.6 1.9-6.5-1.4-1.1-3.3-2.5-5.2-4-.6 2-1.8 4.5-6 2.5.8-4.4 1.6-9 2.3-12.4 10.1-.5 19.5 0 28.5-1.6 7-1.2 13.5-4.9 20.1-7.9 2.3-1.1 4-1.6 6.2-.4 1.1.6 2.3.9 3.4 1.5 14.6 7.9 30.3 10.1 46.6 9.6.7 0 1.4 0 2.1.1.4.1.8.3 1.3.5 1.2 20.6-1.7 40.5-11.7 59.3v-21.4H354c-.2 1.6-.5 3.1-.5 4.7-.1 8.9-.7 18 .2 26.8.9 8.7-3.7 14.1-9.4 20.2v-51.8h-10c-.1 1.6-.2 3.2-.2 4.8 0 16.5-.5 33 .2 49.5.3 7.6-2.8 11.9-9.4 15.7v-70.1h-10.1v70.3zm7.7-104c.7-1.9 1.5-4.1 2.1-5.8-1.6-1.1-3.5-2.4-4.9-3.4-1.7 1.1-3.7 2.4-4.8 3.1.6 2.4 1.2 4.7 1.7 6.4 1.7 0 3.9-.2 5.9-.3zm48.2 27.5c.6-2 1.4-4.2 2.1-6.5-.7-.1-2-.2-3.2-.3-.7-1.2-1.2-2.3-1.4-2.7-2.2 1.4-4.1 2.6-5.4 3.4.7 2.2 1.4 4.5 1.9 6.1h6zm-51.6-9.7c-.3.7-.8 1.9-1.2 2.9-1.5.2-2.7.4-3.1.4.7 2.6 1.3 4.9 1.7 6.4h6c.7-2 1.6-4.3 2.1-5.8-1.7-1.2-3.5-2.5-5.5-3.9zm-23.3-13.5c-1.7 1.3-3.6 2.6-5.5 4 .7.6 1.6 1.4 2.5 2.2-.3 1.4-.5 2.7-.9 4.6 1.6-1 2.8-1.7 3.8-2.3 1.3.8 2.4 1.5 3 1.8.7-2.4 1.3-4.7 1.8-6.4-1.7-1.4-3.4-2.8-4.7-3.9zm3.4 23.3c-1.8-2.3 0-4.3 2.9-6.3-2.1-.2-3.4-.3-4.7-.4-.6-1.3-1.1-2.4-1.3-2.9-2.2 1.5-4.1 2.7-5.4 3.6.7 2 1.4 4.2 2 6h6.5zm44.4-1.1c1.2.7 2.3 1.3 2.8 1.5.9-2.4 1.7-4.7 2.5-7.1-3.3 1.4-4.1-1.4-4.8-3.2-1.9 1.4-3.8 2.9-5.3 3.9.6 2 1.2 4.3 1.9 6.6.8-.4 1.8-1 2.9-1.7zm28.8-18.5c-1.5-1.1-3.3-2.5-4.6-3.5-1.7 1.2-3.6 2.5-5.5 3.9.7.6 1.6 1.4 2.5 2.2-.3 1.4-.6 2.7-.9 4.6 1.7-1 2.8-1.7 3.8-2.3 1.3.7 2.4 1.4 3 1.7.6-2.3 1.2-4.6 1.7-6.6zm-25.9 6.5c.7-2.5 1.4-4.8 1.9-6.4-1.5-1.2-3.4-2.7-4.7-3.8-1.5 1.1-3.4 2.6-4.7 3.6l1.8 6.6c.7-.4 1.8-1.1 2.9-1.8 1.2.9 2.3 1.5 2.8 1.8zm-31.5-6.6c.5 2.1 1 4.5 1.6 6.8.8-.5 2-1.2 3-1.9 1.4.7 2.5 1.3 4 2.1-.4-1.8-.7-3-1.1-4.6 1-.7 2.1-1.4 2.7-1.8-2.3-1.7-4.1-3.2-5.4-4.1-1.8 1.3-3.5 2.6-4.8 3.5zm1-118.7c4.1 3.4 8 6.7 12.2 10.2-4.3 2.6-7.6 1.8-10.7-.9-2.9-2.6-3.8-5.5-1.5-9.3zm-10.5 51c1.9 4.5 1.8 4.7-1.9 8.4-3.2-2.6-3.2-2.6 1.9-8.4zm166.9 106.5c-4.2-3.4-5.5-9.2-2.8-12.7 2.9 2.4 4.5 9.8 2.8 12.7zm6.8 20.5c-3.9-1.1-5.6-6.2-4.6-12 .4-.1.7-.2 1.1-.4 1.1 4 2.3 7.9 3.5 12.4zm6.1 27.2c.7 2.6 3.4 5-.4 8l-1.2-7.8c.6-.1 1.1-.2 1.6-.2z"/></svg>